<?xml version="1.0" encoding="UTF-8"?>
<svg id="Layer_2" data-name="Layer 2" xmlns="http://www.w3.org/2000/svg" xmlns:xlink="http://www.w3.org/1999/xlink" viewBox="0 0 250.28 431.52">
  <defs>
    <style>
      .cls-1 {
        fill: none;
      }

      .cls-2 {
        clip-path: url(#clippath-1);
      }

      .cls-3 {
        clip-path: url(#clippath);
      }

      .cls-4 {
        fill: #7daa7b;
      }
    </style>
    <clipPath id="clippath">
      <rect class="cls-1" x="72.65" y="161.57" width="32.62" height="269.95"/>
    </clipPath>
    <clipPath id="clippath-1">
      <rect class="cls-1" x="201.04" y="28.51" width="49.23" height="75.17"/>
    </clipPath>
  </defs>
  <g id="Layer_1-2" data-name="Layer 1">
    <g>
      <path class="cls-4" d="M187.02,34.93c.35.19.74.37,1.15.52.85.31,1.79.53,2.8.64,1.13.14,2.32.18,3.9.13,1.32-.04,2.38-.16,3.23-.39,1.19-.31,2.04-.81,2.6-1.55.51-.69.8-1.67.9-3.05.03-.42.04-.78.02-1.13-.16-7.15-6.44-13.8-13.43-14.26-1.24-.09-2.47.06-3.48.4-.21.07-.39.15-.56.23-.75.35-1.3.8-1.7,1.37-.91,1.3-1.04,3.26-.4,5.99l.03.11s.04.11.05.15c.35,1.49.84,3.02,1.47,4.54.3.73.64,1.49,1.1,2.42.68,1.34,1.46,2.65,2.34,3.89ZM193.67,38.83c-.9,0-1.94-.03-3-.16-1.2-.13-2.35-.39-3.41-.78-.65-.24-1.26-.53-1.8-.85-.16-.09-.29-.21-.4-.36-1.01-1.42-1.92-2.92-2.7-4.46-.49-.99-.87-1.82-1.18-2.61-.67-1.62-1.2-3.26-1.58-4.86-.03-.09-.05-.18-.07-.27-.83-3.54-.57-6.18.8-8.11.66-.95,1.56-1.69,2.68-2.2.24-.14.56-.27.89-.37,1.32-.45,2.88-.64,4.47-.53,8.4.55,15.66,8.23,15.85,16.76.02.41.01.88-.03,1.4-.14,1.9-.58,3.31-1.41,4.43-.93,1.21-2.28,2.06-4.02,2.51-1.07.28-2.28.43-3.82.47-.36.01-.79.02-1.27.02"/>
      <path class="cls-4" d="M45.99,149.09c-.64,0-1.19-.47-1.28-1.12-2.07-14.92-6.05-29.56-11.84-43.54-.27-.66.04-1.42.7-1.69.66-.28,1.42.04,1.69.7,5.87,14.18,9.91,29.04,12.01,44.18.1.71-.4,1.36-1.1,1.46-.06.01-.12.02-.18.02"/>
      <path class="cls-4" d="M99.88,149.89c-.49,0-.97-.29-1.19-.77-7.72-17.44-19.23-33.47-33.29-46.35-.53-.48-.56-1.3-.08-1.83.48-.53,1.3-.57,1.82-.08,14.32,13.13,26.05,29.45,33.92,47.21.29.66,0,1.42-.66,1.71-.17.08-.35.11-.53.11"/>
      <path class="cls-4" d="M42.38,85.08h.01-.01ZM100.92,124.26c-.22,0-.45-.06-.66-.18-.61-.36-.82-1.16-.45-1.78,1.75-2.97,4.13-7.48,4.53-12.34.4-4.92-1.5-9.61-4.83-11.97-.71-.5-1.5-.92-2.33-1.37-1.7-.91-3.46-1.85-4.69-3.54-.86-1.2-1.28-2.54-1.69-3.83-.34-1.08-.66-2.11-1.21-2.94-1.24-1.86-3.65-2.8-5.84-3.47-13.04-3.95-27.73-2.8-40.32,3.16-.16.07-.3.15-.44.22l-.61-1.14-.54-1.18c.16-.07.32-.16.49-.24,13.16-6.23,28.53-7.43,42.18-3.3,2.63.8,5.54,1.96,7.23,4.52.76,1.14,1.15,2.39,1.53,3.6.36,1.15.7,2.23,1.32,3.09.88,1.2,2.3,1.97,3.81,2.78.87.46,1.77.95,2.61,1.54,4.13,2.92,6.39,8.4,5.91,14.3-.44,5.4-2.99,10.26-4.88,13.45-.24.41-.67.64-1.11.64"/>
      <path class="cls-4" d="M51.7,182.28s-.08,0-.13,0c-.71-.07-1.23-.7-1.16-1.42.74-7.54-.06-15.31-2.32-22.46-.21-.68.16-1.41.85-1.63.68-.21,1.4.16,1.63.84,2.36,7.48,3.2,15.6,2.43,23.5-.07.67-.63,1.17-1.29,1.17"/>
      <path class="cls-4" d="M36.27,84.21c-1.68,0-3.36.38-4.84,1.13-2.46,1.24-4.4,3.53-5.32,6.26-.4,1.13-.59,2.27-.58,3.41.01,1.5.47,3.09,1.29,4.46.3.51.67.99,1.06,1.42,1.3,1.39,2.9,2.11,4.52,2.03.44-.03.88-.1,1.3-.22.76-.21,1.52-.55,2.35-1.03.91-.53,1.74-1.14,2.48-1.83,1.33-1.21,2.39-2.64,3.09-4.13.49-.99.82-2.02.99-3.08.38-2.34-.1-4.85-1.33-6.88-.11-.19-.22-.36-.33-.52-1.46-.68-3.08-1.02-4.68-1.02ZM32.14,105.51c-2.26,0-4.43-1.01-6.16-2.86-.53-.57-.99-1.19-1.39-1.84-1.06-1.77-1.65-3.82-1.66-5.78-.01-1.44.23-2.88.72-4.27,1.14-3.36,3.54-6.19,6.6-7.73,3.7-1.88,8.34-1.87,12.13.02.17.09.32.21.44.36.23.3.46.64.68,1.02,1.54,2.53,2.15,5.68,1.67,8.62-.22,1.32-.63,2.59-1.21,3.78-.83,1.78-2.1,3.49-3.67,4.92-.88.82-1.87,1.55-2.94,2.17-1.02.59-1.98,1.01-2.93,1.28-.6.18-1.23.29-1.87.32-.14,0-.27.01-.4.01"/>
      <path class="cls-4" d="M42.65,187.64c-3.14,0-6.21-2.08-7.81-4.7-1.93-3.15-2.28-6.83-2.49-10.65v-.17c-.3-5.26-.49-10.71-.68-15.98-.64-18.12-1.3-36.86-6.74-54.21-.14-.47-.29-.92-.45-1.38-.23-.68.13-1.41.8-1.65.67-.23,1.41.13,1.65.8.17.48.33.97.47,1.46,5.54,17.67,6.21,36.59,6.85,54.89.18,5.26.38,10.69.68,16v.17c.19,3.4.5,6.73,2.11,9.37,1.44,2.36,4.61,4.23,7.22,3.14,1-.43,1.86-1.24,2.78-2.1.92-.86,1.86-1.76,3.07-2.38.36-.19.74-.34,1.17-.48,1.65-.56,3.36-.58,5.03-.61,1.29-.02,2.49-.04,3.63-.29,3.57-.78,6.75-4.08,8.51-8.84.97-2.67,1.53-5.53,1.64-8.53.2-5.01-.82-10.52-2.94-15.93-3.15-7.98-8.21-15.1-13.11-21.98-2.61-3.68-5.22-7.35-7.84-11.03-2.61-3.67-5.23-7.34-7.84-11.02-.42-.58-.28-1.4.3-1.81.58-.42,1.39-.28,1.81.31,2.61,3.67,5.22,7.34,7.84,11.02,2.62,3.68,5.23,7.35,7.84,11.03,4.99,7.01,10.15,14.26,13.41,22.54,2.26,5.74,3.34,11.62,3.12,16.98-.11,3.26-.72,6.4-1.8,9.32-2.07,5.59-5.95,9.51-10.39,10.47-1.38.31-2.79.33-4.14.35-1.54.03-2.98.05-4.25.47-.3.1-.56.21-.8.34-.89.45-1.66,1.19-2.48,1.96-1.04.98-2.11,1.99-3.55,2.6-.86.36-1.74.53-2.62.53"/>
      <path class="cls-4" d="M33.65,173.43c-.09,0-.18-.01-.27-.03-2.23-.47-4.38-1.81-6.45-3.1-2.47-1.54-5.01-3.13-7.55-3.17-.87-.02-1.78.16-2.73.33-.8.15-1.64.31-2.5.36-.99.06-1.97-.02-2.92-.23-4.45-.97-8.41-4.77-10.09-9.66-1.86-5.4-1.1-11.31-.13-16.38,2.02-10.52,5.43-20.78,10.16-30.51,3.52-7.28,7.78-14.22,12.67-20.66.44-.57,1.24-.68,1.81-.24.57.43.68,1.24.24,1.82-4.78,6.29-8.96,13.09-12.4,20.21-4.63,9.53-7.98,19.58-9.95,29.87-.91,4.74-1.62,10.22.04,15.05,1.37,3.99,4.66,7.19,8.2,7.97.72.16,1.46.22,2.2.17.7-.04,1.42-.18,2.18-.32,1.04-.2,2.11-.39,3.26-.38,3.24.05,6.1,1.84,8.86,3.56,1.97,1.23,3.84,2.4,5.61,2.77.7.15,1.15.83,1.01,1.53-.13.61-.67,1.04-1.27,1.04"/>
      <path class="cls-4" d="M11.52,167.62c-.55,0-1.06-.35-1.23-.9-5.8-18.03-5.51-37.76.83-55.55.24-.68.98-1.03,1.66-.78.67.24,1.02.98.78,1.65-6.15,17.26-6.44,36.39-.81,53.88.22.68-.15,1.41-.83,1.63-.13.05-.27.06-.4.06"/>
      <path class="cls-4" d="M86.09,167.62c-1.92,0-3.88-.28-5.74-.8-2.07-.59-4.08-1.34-5.98-2.23-1.23-.57-2.45-1.22-3.64-1.92-.62-.37-.82-1.16-.45-1.78.36-.61,1.16-.82,1.77-.45,1.11.66,2.26,1.27,3.41,1.81,1.79.83,3.67,1.53,5.59,2.08,5.43,1.52,12.11.68,13.82-3.86.51-1.35.61-3.07.71-4.73.19-3.16.41-6.74,3.66-8.28.04-.02.09-.04.14-.06.74-.32,1.49-.46,2.17-.58.48-.09.93-.17,1.32-.3,3.1-1.06,3.81-5.5,3.15-9.19-.84-4.73-2.9-9.3-6.13-13.59-2.71-3.64-6.13-6.9-10.14-9.71-7.53-5.28-16.3-8.51-23.88-10.98-1.08-.36-2.15-.69-3.23-1.03-6-1.87-12.98-3.92-19.95-4.48-.71-.06-1.24-.68-1.19-1.4s.67-1.24,1.4-1.19c7.23.58,14.39,2.67,20.52,4.59,1.09.34,2.18.68,3.27,1.05,7.76,2.53,16.75,5.85,24.55,11.32,4.24,2.97,7.85,6.43,10.73,10.28,3.46,4.61,5.69,9.56,6.61,14.7.84,4.73-.32,10.54-4.86,12.09-.58.2-1.16.3-1.71.4-.58.1-1.14.2-1.59.41-.03.02-.06.03-.1.04-1.7.83-1.94,2.85-2.14,6.07-.11,1.85-.23,3.76-.87,5.48-1.65,4.36-6.26,6.24-11.21,6.24"/>
      <g class="cls-3">
        <path class="cls-4" d="M103.57,431.52c-.43,0-.86-.22-1.1-.61-14.6-23.7-23.85-52.72-27.51-86.26-1.7-15.59-2.24-32.62-1.61-50.6.4-11.7,1.24-23.66,2.06-35.23,2.21-31.6,4.51-64.28-1.76-95.15-.14-.7.31-1.39,1.02-1.53s1.38.31,1.53,1.01c6.33,31.22,4.03,64.07,1.8,95.85-.81,11.55-1.65,23.48-2.05,35.14-.63,17.86-.08,34.76,1.6,50.23,3.61,33.15,12.75,61.81,27.14,85.18.38.61.18,1.41-.43,1.78-.21.13-.44.19-.68.19"/>
      </g>
      <path class="cls-4" d="M76.24,345.81s-.08,0-.13-.01c-.71-.07-1.23-.7-1.16-1.42,4.71-47.69,11.66-86.71,21.89-122.81,10.91-38.48,25.72-73.22,44.02-103.24.37-.61,1.17-.8,1.78-.43.61.37.8,1.17.43,1.78-18.18,29.82-32.9,64.34-43.74,102.6-10.18,35.95-17.1,74.83-21.8,122.36-.07.67-.63,1.17-1.29,1.17"/>
      <path class="cls-4" d="M168.12,133.78c-1.16,0-2.05-.24-2.58-.42-3.43-1.22-5.3-4.42-7.1-7.51-1.76-3.01-3.42-5.85-6.27-6.2-1.21-.15-2.51.2-3.88.56-1.84.5-3.77,1.01-5.77.42-.42-.13-.82-.29-1.18-.49-1.17-.59-2.28-1.64-3.38-3.16-.72-1.01-1.38-2.14-1.95-3.35-3.02-6.52-2.89-14.98.35-22.65,1.22-2.86,2.86-5.74,4.9-8.55,3.47-4.81,7.79-9.05,11.16-12.2,1.25-1.16,2.51-2.31,3.77-3.46,5.01-4.57,10.19-9.29,14.24-14.76,3.31-4.47,5.93-9.47,8.46-14.31.95-1.81,1.89-3.62,2.84-5.43l.64-1.24c.33-.64,1.11-.88,1.74-.56.64.33.89,1.11.56,1.74l-.65,1.25c-.94,1.82-1.89,3.64-2.84,5.44-2.58,4.93-5.24,10.02-8.68,14.66-4.2,5.67-9.47,10.48-14.57,15.13-1.26,1.14-2.51,2.29-3.74,3.43-3.28,3.07-7.48,7.19-10.82,11.83-1.92,2.65-3.47,5.35-4.61,8.04-2.96,7-3.1,14.68-.39,20.54.5,1.06,1.07,2.05,1.71,2.93.84,1.19,1.65,1.96,2.48,2.39.24.14.45.22.69.29,1.32.39,2.81-.01,4.38-.43,1.55-.42,3.16-.84,4.86-.64,4.13.5,6.19,4.04,8.19,7.47,1.64,2.81,3.19,5.47,5.73,6.38,4.3,1.53,8.72-2.95,11.44-7.64,1.3-2.25,2.52-4.58,3.64-6.92,10.19-21.38,13.25-47.02,8.86-74.17-.26-1.6-.52-3.09-.8-4.56-.14-.7.32-1.39,1.03-1.52.7-.14,1.38.32,1.52,1.03.29,1.49.56,3.02.81,4.64,4.47,27.66,1.33,53.84-9.08,75.69-1.15,2.4-2.4,4.79-3.73,7.11-4.45,7.69-9.05,9.2-11.97,9.2"/>
      <path class="cls-4" d="M137.19,114.37c-.1,0-.2-.01-.3-.04-.7-.17-1.13-.86-.95-1.56,1.48-6.12,3.21-11.34,5.3-15.95,3.37-7.46,9.66-17.54,20.44-23.22.63-.33,1.41-.09,1.74.55.33.63.09,1.41-.54,1.74-10.14,5.34-16.08,14.91-19.29,22-2.03,4.46-3.71,9.53-5.15,15.49-.14.59-.67.99-1.26.99"/>
      <path class="cls-4" d="M131.86,86.51c-.68,0-1.36-.03-2.04-.1-4.81-.5-10.57-3.6-11.85-9.23-.91-4.01.69-7.79,2.22-11.44.31-.75.63-1.49.92-2.24.23-.6.49-1.37.48-2.02,0-.17-.05-.35-.12-.55-.3-.74-1.29-1.17-2.43-1.66-.49-.21-.99-.42-1.48-.69-3.3-1.79-5.21-6.02-4.66-10.29.42-3.17,2.01-6.36,4.87-9.78.02-.03.04-.06.07-.09,7.04-8.36,17.63-14.22,29.82-16.52,9.93-1.87,21.19-1.47,33.46,1.21.7.15,1.14.84.99,1.54-.16.7-.84,1.15-1.54.99-11.93-2.6-22.84-3.01-32.43-1.19-11.57,2.17-21.6,7.7-28.26,15.56-.02.04-.04.07-.07.09-2.57,3.05-3.99,5.84-4.33,8.52-.42,3.23.94,6.39,3.31,7.68.38.2.81.39,1.27.58,1.45.63,3.1,1.33,3.81,3.08.19.49.29.96.3,1.44.03,1.1-.31,2.14-.65,3.02-.3.77-.63,1.54-.95,2.32-1.44,3.43-2.8,6.66-2.08,9.86.99,4.39,5.67,6.82,9.59,7.22,4.11.42,8.27-.74,11.84-1.88.68-.21,1.41.16,1.62.84.22.69-.16,1.42-.84,1.63-3.26,1.03-6.97,2.08-10.85,2.08"/>
      <path class="cls-4" d="M208.11,126.68c-2.45,0-4.78-.53-6.74-1.53-1.67-.86-3.12-2.01-4.52-3.11-1.18-.94-2.3-1.82-3.52-2.53-2.95-1.71-6.74-2.2-10.38-1.34-.71.16-1.4-.27-1.56-.97s.27-1.4.96-1.56c4.28-1,8.74-.41,12.27,1.63,1.39.8,2.63,1.78,3.83,2.73,1.36,1.08,2.65,2.1,4.09,2.84,6.93,3.54,15.75-.69,19.65-6.86,2.41-3.8,3.66-8.52,3.72-14.04.03-2.82-.26-5.85-.85-9.01-2.33-12.17-8.28-23.45-14.35-33.84-4.26-7.28-8.75-14.44-13.36-21.29-.4-.59-.24-1.4.35-1.8.59-.4,1.39-.24,1.79.35,4.64,6.9,9.16,14.1,13.45,21.43,6.19,10.59,12.25,22.11,14.66,34.67.63,3.32.93,6.53.9,9.52-.07,6.01-1.46,11.19-4.13,15.4-4.04,6.4-10.51,9.3-16.27,9.3"/>
      <path class="cls-4" d="M207.09,105.46h-.05c-.71-.02-1.27-.62-1.25-1.33.75-22.55-4-45.22-13.74-65.57-.31-.65-.04-1.42.61-1.73.64-.31,1.42-.04,1.72.61,9.93,20.72,14.77,43.81,14,66.78-.02.7-.6,1.25-1.29,1.25"/>
      <path class="cls-4" d="M122.88,62.74c-.39,0-.78-.18-1.03-.51-.43-.57-.32-1.39.25-1.82,2.27-1.72,4.62-3.39,6.84-4.95,14.73-10.45,33.08-23.45,53.18-27.61.7-.15,1.39.3,1.53,1.01s-.3,1.39-1.01,1.53c-19.58,4.06-36.92,16.35-52.21,27.19-2.2,1.55-4.54,3.21-6.77,4.9-.23.18-.51.26-.78.26"/>
      <g class="cls-2">
        <path class="cls-4" d="M227.22,103.26c-.66,0-1.22-.49-1.29-1.16-.08-.71.44-1.35,1.16-1.42.4-.04.8-.07,1.2-.08.99-.05,1.94-.06,2.89-.08,4.59-.09,9.35-.17,12.66-2.87,3.06-2.48,4.46-7.19,3.6-11.99-.84-4.64-3.49-8.92-5.91-12.57-11.23-16.98-24.48-31.11-39.4-42-.57-.42-.7-1.23-.28-1.81.42-.58,1.23-.7,1.81-.28,15.16,11.07,28.63,25.42,40.03,42.66,2.56,3.86,5.36,8.42,6.29,13.54,1.03,5.72-.74,11.4-4.51,14.46-4.01,3.26-9.22,3.35-14.25,3.45-.93.02-1.85.04-2.76.07-.39.02-.76.04-1.11.08-.04,0-.09,0-.13,0"/>
      </g>
      <path class="cls-4" d="M118.82,40.57c-.55,0-1.06-.35-1.23-.9-1.2-3.78-1.66-6.91-1.45-9.84.33-4.54,2.46-8.55,5.68-10.73,1.19-.8,2.51-1.37,3.78-1.92,2.13-.92,4.14-1.79,5.04-3.53.42-.82.56-1.82.72-2.87.12-.79.24-1.6.48-2.41C133.79,1.91,141.62-.19,148.32.01c12.99.36,25.85,5.17,36.22,13.54l.57.47c.55.45.63,1.27.17,1.82s-1.28.63-1.82.17l-.55-.45c-9.92-8-22.23-12.6-34.66-12.95-5.73-.17-12.4,1.46-13.92,6.52-.19.63-.29,1.32-.4,2.05-.19,1.21-.38,2.46-.98,3.66-1.32,2.57-3.86,3.66-6.31,4.73-1.22.53-2.38,1.03-3.36,1.69-2.57,1.73-4.27,5.01-4.54,8.77-.18,2.59.24,5.41,1.34,8.86.21.68-.16,1.41-.84,1.63-.13.04-.26.06-.39.06"/>
      <path class="cls-4" d="M29.42,103.35c-.93,0-1.87-.1-2.79-.32-.3-.07-.59-.16-.88-.24-.68-.23-1.05-.96-.82-1.64.22-.68.96-1.05,1.64-.82.21.07.43.14.65.18,1.8.43,3.69.32,5.31-.31.2-.07.33-.13.46-.19l.08-.04c2.35-1.1,3.89-3.08,4.76-4.55.2-.33.39-.67.56-1.04,1.04-2.13,1.71-4.68,2.11-8.02.08-.71.73-1.22,1.44-1.13.71.08,1.22.73,1.13,1.44-.44,3.64-1.18,6.44-2.35,8.85-.21.43-.44.84-.67,1.23-1.51,2.54-3.54,4.46-5.9,5.57l-.09.04c-.22.1-.43.19-.66.27-1.23.47-2.59.71-3.99.71"/>
      <path class="cls-4" d="M196.84,34.13c-.54,0-1.03-.03-1.49-.08-3.24-.32-6.35-1.73-8.73-3.95-.28-.26-.56-.55-.86-.88-2.27-2.48-3.66-5.71-3.9-9.07-.11-1.6.03-3.27.43-5.1l.19-.8c.17-.69.87-1.12,1.57-.94.69.17,1.11.88.94,1.57l-.18.74c-.34,1.56-.46,2.99-.37,4.35.2,2.78,1.34,5.45,3.24,7.51.23.26.45.5.69.72,1.98,1.84,4.55,3,7.25,3.27.39.05.79.07,1.22.07.71,0,1.3.58,1.3,1.3s-.58,1.29-1.3,1.29"/>
    </g>
  </g>
</svg>