<?xml version="1.0" encoding="UTF-8"?>
<svg id="Layer_2" data-name="Layer 2" xmlns="http://www.w3.org/2000/svg" xmlns:xlink="http://www.w3.org/1999/xlink" viewBox="0 0 347.66 430.59">
  <defs>
    <style>
      .cls-1 {
        clip-path: url(#clippath-4);
      }

      .cls-2 {
        fill: none;
      }

      .cls-3 {
        clip-path: url(#clippath-1);
      }

      .cls-4 {
        clip-path: url(#clippath-3);
      }

      .cls-5 {
        fill: #293731;
      }

      .cls-6 {
        clip-path: url(#clippath-2);
      }

      .cls-7 {
        clip-path: url(#clippath);
      }
    </style>
    <clipPath id="clippath">
      <rect class="cls-2" x="290.45" y="226.78" width="57.21" height="11.21"/>
    </clipPath>
    <clipPath id="clippath-1">
      <rect class="cls-2" x="217.1" y="234.54" width="130.56" height="30.18"/>
    </clipPath>
    <clipPath id="clippath-2">
      <rect class="cls-2" x="153.24" y="97.44" width="31.07" height="333.16"/>
    </clipPath>
    <clipPath id="clippath-3">
      <rect class="cls-2" y="154.05" width="146.43" height="129.33"/>
    </clipPath>
    <clipPath id="clippath-4">
      <rect class="cls-2" y="154.05" width="125.09" height="110.67"/>
    </clipPath>
  </defs>
  <g id="Layer_1-2" data-name="Layer 1">
    <g>
      <path class="cls-5" d="M130.77,255.45c-.4,0-.8-.18-1.05-.53-.41-.57-.31-1.35.25-1.78.03-.02.11-.08.14-.09,1.41-.93,2.66-1.95,3.89-3.16,6.06-5.93,9.38-14.61,11.6-21.51,6.51-20.32,7.71-37.48,3.68-52.47-2.62-9.73-7.65-18.96-12.51-27.89-2.59-4.75-5.27-9.66-7.54-14.58-.3-.65-.02-1.42.63-1.71.65-.3,1.42-.02,1.72.63,2.24,4.84,4.9,9.72,7.46,14.43,4.94,9.06,10.04,18.43,12.74,28.45,4.17,15.48,2.95,33.13-3.71,53.94-2.32,7.19-5.8,16.24-12.26,22.56-1.35,1.33-2.73,2.45-4.21,3.43l-.82-1.01.73,1.06c-.22.16-.49.23-.75.23"/>
      <path class="cls-5" d="M134.91,252.11c-.55,0-1.07-.36-1.24-.92-6.42-20.92-6.46-43.91-.11-64.74.21-.68.93-1.07,1.61-.86.69.21,1.07.93.86,1.61-6.2,20.34-6.16,42.8.11,63.23.21.68-.17,1.41-.85,1.62-.13.04-.26.06-.38.06"/>
      <path class="cls-5" d="M104.86,212.41c-.71,0-1.29-.57-1.29-1.29-.01-1.98-.05-3.7-.11-5.28-.88-27.34-6.49-54.02-16.69-79.31-3.01-7.46-6.91-15.99-12.95-22.66-3.94-4.35-8.95-8.16-13.79-11.83-3.33-2.53-6.77-5.15-9.82-7.91-.53-.48-.57-1.3-.09-1.83.48-.53,1.3-.57,1.83-.09,2.97,2.69,6.37,5.27,9.65,7.77,4.94,3.74,10.03,7.63,14.14,12.15,6.31,6.97,10.34,15.76,13.44,23.44,10.31,25.57,15.98,52.55,16.88,80.18.07,1.59.1,3.34.11,5.35,0,.71-.57,1.3-1.29,1.3h-.01"/>
      <path class="cls-5" d="M104.75,207.09c-.32,0-.65-.11-.9-.35-9.28-8.85-17.1-21.02-23.25-36.17-4.45-10.98-7.72-22.56-10.88-33.74-1.51-5.33-3.07-10.85-4.73-16.22-.21-.68.17-1.41.85-1.61.68-.21,1.41.17,1.62.85,1.67,5.41,3.24,10.94,4.75,16.29,3.14,11.12,6.4,22.62,10.79,33.47,6.01,14.8,13.63,26.67,22.64,35.27.52.49.54,1.31.04,1.82-.25.27-.59.4-.93.4"/>
      <path class="cls-5" d="M119.21,234.14c-.62,0-1.16-.45-1.27-1.08-1.49-8.81-2.03-17.77-1.6-26.64.68-14.22,3.83-28.44,6.88-42.19,2.28-10.32,4.65-21.01,5.91-31.49.08-.71.73-1.22,1.44-1.13.71.08,1.22.73,1.14,1.44-1.28,10.61-3.66,21.35-5.96,31.74-3.02,13.64-6.15,27.74-6.82,41.74-.42,8.69.11,17.46,1.57,26.09.12.7-.35,1.37-1.06,1.49-.08.01-.15.02-.22.02"/>
      <path class="cls-5" d="M188.47,269.9c-.41,0-.82-.19-1.07-.56-.41-.59-.26-1.39.33-1.8,9.79-6.7,20.06-12.96,30.55-18.62,2.71-1.47,5.39-2.87,7.95-4.17l.22-.11c.16-.08.32-.16.47-.23.63-.33,1.32-.66,2-1,14.91-7.39,30.39-13.71,46.07-18.8,1.8-.58,3.61-1.16,5.43-1.73,12.51-3.96,25.44-8.06,35.52-16.33.55-.45,1.36-.37,1.82.18.45.55.38,1.36-.18,1.82-10.45,8.59-23.63,12.77-36.37,16.8-1.81.57-3.63,1.14-5.42,1.73-15.56,5.05-30.93,11.32-45.67,18.63-.73.36-1.4.69-2.06,1.03-.17.08-.31.15-.45.22l-.23.11c-2.53,1.28-5.19,2.67-7.89,4.13-10.41,5.61-20.6,11.83-30.32,18.48-.22.15-.48.22-.73.22"/>
      <path class="cls-5" d="M227.48,246.84c-.21,0-.43-.05-.63-.17-.61-.35-.84-1.13-.48-1.74l.03-.05c.2-.35.41-.7.6-1.05l1.1-1.93c4.51-7.86,9.16-15.99,15.77-22.48,13.52-13.26,32.63-17.66,51.12-21.91,2.54-.58,5.07-1.17,7.57-1.77,16.2-3.91,28.31-9.14,37.03-15.98.56-.44,1.38-.34,1.82.22.44.56.35,1.38-.21,1.81-9.02,7.08-21.46,12.46-38.03,16.46-2.51.6-5.05,1.19-7.6,1.78-18.14,4.17-36.89,8.48-49.88,21.23-6.36,6.23-10.93,14.21-15.34,21.92l-1.1,1.92c-.19.35-.41.71-.61,1.08-.24.42-.7.66-1.16.66"/>
      <path class="cls-5" d="M237.21,246.05c-2.57,0-5.15-.07-7.72-.21-.47-.02-.95-.06-1.44-.08-.71-.05-1.25-.67-1.2-1.38.05-.71.67-1.25,1.38-1.21.47.03.93.06,1.4.08,21.55,1.21,43.37-2.77,63.15-11.49,3.28-1.45,6.57-3.06,9.8-4.81,13.08-7.09,22.27-15.05,28.1-24.3,3.77-5.99,6.54-13.23,8.47-22.14.15-.7.84-1.15,1.54-.99.7.15,1.14.84.99,1.54-1.99,9.21-4.88,16.72-8.81,22.97-6.07,9.65-15.57,17.89-29.06,25.2-3.29,1.78-6.65,3.43-9.99,4.9-17.79,7.85-37.21,11.93-56.61,11.93"/>
      <g class="cls-7">
        <path class="cls-5" d="M346.36,237.61c-.08,0-.17,0-.25-.03-4.35-.85-8.73-2.07-13.01-3.65-.86-.32-1.72-.65-2.57-.98-2.87-1.11-5.83-2.27-8.84-2.8-6.54-1.16-13.01.45-19.86,2.16-2.71.68-5.52,1.39-8.31,1.89-.28.05-.58.1-.89.16-.71.12-1.4-.35-1.52-1.06-.12-.7.32-1.37,1.03-1.48h.06c.28-.06.55-.1.83-.16,2.73-.49,5.49-1.18,8.17-1.85,6.81-1.71,13.85-3.47,20.94-2.2,3.25.58,6.33,1.78,9.31,2.93.85.33,1.69.66,2.54.97,4.14,1.53,8.38,2.71,12.6,3.54.7.14,1.16.82,1.03,1.52-.13.62-.67,1.05-1.27,1.05"/>
      </g>
      <g class="cls-3">
        <path class="cls-5" d="M266.82,263.93c-16.04,0-31.31-3.46-44.14-10.24-1.55-.81-3.05-1.67-4.46-2.54-.61-.38-.8-1.17-.42-1.78.38-.61,1.18-.8,1.78-.43,1.35.84,2.81,1.66,4.31,2.45,20.02,10.58,46.22,12.83,71.89,6.19,15.84-4.11,32.16-11.43,49.9-22.37.6-.38,1.41-.19,1.78.42s.19,1.41-.42,1.78c-17.96,11.08-34.52,18.5-50.61,22.68-9.91,2.56-19.9,3.83-29.61,3.83"/>
      </g>
      <path class="cls-5" d="M164.68,333.05c-.57,0-1.09-.38-1.26-.96-.56-2.09-1.2-4.23-1.89-6.34-3.21-9.91-7.37-19.54-12.62-30.94-.64-1.4-1.28-2.78-1.92-4.17-1.41-3.04-2.83-6.09-4.24-9.14-3.78-8.09-8.27-17.61-13.01-26.83-3.96-7.73-7.77-14.66-11.64-21.17-4.7-7.91-9.37-14.97-14.28-21.62-.03-.04-.06-.08-.08-.13,0,0-.07-.09-.08-.09-4.09-5.52-8.55-10.97-12.85-16.25-8.7-10.66-17.7-21.68-24.38-34.01-11.28-20.83-16.57-45.69-16.66-78.23,0-.71.58-1.3,1.29-1.3h0c.71,0,1.29.58,1.29,1.29.09,32.1,5.28,56.57,16.34,77.01,6.56,12.11,15.48,23.04,24.1,33.6,4.33,5.3,8.8,10.78,12.94,16.36.08.1.14.18.18.25,4.95,6.7,9.66,13.83,14.4,21.79,3.9,6.56,7.73,13.53,11.71,21.31,4.76,9.26,9.27,18.8,13.05,26.91,1.42,3.05,2.84,6.1,4.25,9.15.64,1.39,1.28,2.78,1.93,4.17,5.29,11.49,9.47,21.2,12.72,31.22.7,2.16,1.35,4.33,1.94,6.47.18.69-.22,1.4-.92,1.59-.11.03-.22.05-.33.05"/>
      <path class="cls-5" d="M216.65,230.19c-.29,0-.58-.09-.82-.29-.55-.45-.64-1.27-.18-1.82,5.42-6.64,11.31-13.39,17.52-20.07,7.46-8.03,15.49-16.09,23.89-23.96,9.24-8.69,19.72-18.53,22.96-30.46.19-.69.9-1.1,1.59-.91.69.19,1.1.9.91,1.59-3.43,12.63-14.2,22.74-23.69,31.66-8.34,7.84-16.34,15.85-23.76,23.84-6.17,6.64-12.03,13.35-17.41,19.95-.26.31-.63.47-1.01.47"/>
      <path class="cls-5" d="M162.77,326.64c-.13,0-.25-.02-.37-.05-.69-.2-1.08-.93-.87-1.61.3-1,.7-2.33,1.15-3.66,5.75-17.77,14.06-35.73,24.69-53.38,3.56-5.92,7.55-12.05,11.85-18.22,5.1-7.27,10.62-14.54,16.42-21.64.45-.55,1.27-.64,1.82-.18.56.45.64,1.27.19,1.82-5.76,7.04-11.24,14.27-16.3,21.48-4.27,6.12-8.23,12.2-11.76,18.07-10.53,17.47-18.76,35.26-24.45,52.85-.44,1.31-.84,2.61-1.14,3.59-.16.56-.68.92-1.23.92"/>
      <path class="cls-5" d="M184.85,99.79c-.19,0-.39-.05-.58-.14-.64-.32-.9-1.1-.58-1.73.98-1.95,2.99-3.39,4.77-4.65l.49-.35c4.46-3.21,7.66-8.39,8.79-14.2.29-1.52.43-3.05.43-4.57,0-1.33-.12-2.64-.36-3.9-.13-.7.33-1.38,1.03-1.52.69-.14,1.38.33,1.51,1.03.27,1.42.41,2.9.41,4.39,0,1.68-.16,3.38-.48,5.06-1.25,6.45-4.83,12.21-9.81,15.81l-.51.36c-1.53,1.09-3.26,2.33-3.96,3.7-.22.45-.68.71-1.16.71"/>
      <path class="cls-5" d="M182.97,100.42c-.37,0-.73-.16-.98-.46-.07-.08-.12-.16-.18-.24-3.81-5.24-4.16-12.33-4-18.57l.02-.87c.13-4.48.25-9.13-.79-13.27-.17-.69.25-1.39.95-1.56.69-.18,1.4.24,1.57.94,1.13,4.48.99,9.31.87,13.97l-.03.86c-.15,5.81.16,12.36,3.49,16.96l.09.13c.45.55.38,1.37-.18,1.82-.24.2-.54.3-.82.3"/>
      <g class="cls-6">
        <path class="cls-5" d="M155.01,430.59c-.16,0-.32-.03-.48-.09-.66-.26-.98-1.02-.72-1.68,12.36-31.02,11.91-64.94,9.59-96.97-.24-3.34-.51-6.68-.78-10.02-.32-3.83-.65-7.67-.98-11.52-1.65-19.17-3.36-38.99-3.06-58.26.52-32.55,6.89-65.02,13.05-96.42,3.64-18.52,7.4-37.67,9.91-56.62l.03-.25c.09-.71.74-1.21,1.45-1.11.71.09,1.21.74,1.11,1.45l-.03.23c-2.53,19.04-6.3,38.23-9.94,56.79-6.14,31.3-12.48,63.66-13,95.97-.3,19.14,1.41,38.89,3.06,57.99.33,3.84.66,7.68.98,11.53.27,3.35.54,6.7.78,10.04,2.35,32.34,2.79,66.61-9.76,98.12-.2.51-.69.81-1.2.81"/>
      </g>
      <path class="cls-5" d="M192.66,71.93c-.83,0-1.67-.07-2.48-.27-.7-.17-1.12-.86-.95-1.56.17-.69.87-1.12,1.56-.95,1.14.28,2.46.21,3.71.1,1.53-.14,3.01-.32,4.4-.53,16.91-2.57,33.08-11.32,44.36-24.03,1.3-1.46,2.35-3.1,2.98-4.6.97-2.36.89-4.24-.25-5.59-.59-.7-1.44-1.2-2.34-1.73-.61-.36-1.25-.73-1.85-1.2-2.64-2.02-3.89-5.04-5.1-7.95l-.24-.58c-3.19-7.7-6.73-12.88-11.12-16.29-4.59-3.56-11.93-5.79-17.96-2.74-1.72.87-3.24,2.1-4.85,3.41-1.22.99-2.49,2.03-3.88,2.91-3.19,2.01-8.16,3.34-11.71.49-.96-.78-1.64-1.73-2.3-2.65-.65-.91-1.26-1.76-2.05-2.3-1.96-1.34-4.73-.53-6.34.92-1.26,1.13-2.22,2.73-2.96,4.89-.2.58-.39,1.21-.58,1.99-3.77,14.98,1.73,30.11,8.73,46.93.66,1.56,1.32,2.88,2.04,4.04.37.61.19,1.4-.42,1.78-.6.38-1.41.19-1.78-.42-.79-1.27-1.52-2.71-2.23-4.41-5.54-13.3-13.14-31.52-8.85-48.55.21-.85.42-1.55.65-2.2.89-2.59,2.09-4.55,3.68-5.97,2.4-2.16,6.45-3.24,9.53-1.13,1.17.79,1.95,1.88,2.7,2.93.58.81,1.13,1.58,1.81,2.14,2.33,1.86,6.05,1.01,8.71-.67,1.26-.79,2.41-1.73,3.63-2.72,1.64-1.34,3.34-2.72,5.31-3.71,6.09-3.08,14.42-1.87,20.71,3.01,6.26,4.86,9.8,12.22,11.92,17.34l.24.58c1.08,2.6,2.19,5.3,4.28,6.89.48.37,1.02.69,1.59,1.02,1.05.62,2.15,1.26,3.01,2.3,1.79,2.11,2.02,4.97.66,8.24-.72,1.77-1.95,3.66-3.43,5.33-11.68,13.15-28.41,22.21-45.91,24.87-1.44.22-2.97.41-4.55.55-.67.06-1.37.11-2.07.11"/>
      <path class="cls-5" d="M189.63,72.1h-.11c-2.98-.18-5.63-2.08-7.94-5.64-.06-.08-.14-.2-.22-.33l-.07-.11c-.39-.6-.22-1.4.38-1.79.6-.39,1.41-.22,1.79.38l.09.14c.05.09.1.18.17.26,1.88,2.89,3.85,4.39,5.89,4.52h.04c.71,0,1.29.57,1.29,1.29s-.58,1.3-1.29,1.3"/>
      <path class="cls-5" d="M175.84,68.13c-2.73,0-5.57-.45-8.31-1.32-6.36-2.01-11.85-5.93-16.36-9.5-8.4-6.62-16.16-14.17-23.06-22.45-3.56-4.26-6.94-8.97-7.59-14.48-.67-5.76,2.7-12.57,8.78-13.53,2.47-.39,4.83.25,7.1.86,1.94.53,3.77,1.03,5.56.89,2.55-.21,4.86-1.67,7.32-3.21,2.94-1.85,5.99-3.77,9.65-3.52,3.69.24,6.49,2.61,9.2,4.9,1.53,1.3,2.97,2.52,4.54,3.34.63.33.87,1.12.54,1.75s-1.12.87-1.75.53c-1.81-.95-3.43-2.32-4.99-3.65-2.5-2.11-4.86-4.1-7.7-4.3-2.82-.19-5.38,1.42-8.09,3.13-2.61,1.64-5.3,3.34-8.48,3.59-2.25.18-4.39-.4-6.45-.96-2.1-.57-4.09-1.11-6.02-.81-4.55.72-7.14,6.2-6.61,10.68.57,4.84,3.71,9.17,7.01,13.13,6.79,8.15,14.42,15.57,22.68,22.08,4.33,3.43,9.57,7.18,15.54,9.07,3.29,1.04,6.69,1.42,9.84,1.07,1.16-.11,2.27-.33,3.31-.65l.15-.04c.2-.07.42-.13.62-.2.68-.23,1.41.13,1.65.8.23.68-.13,1.41-.8,1.65-.23.08-.47.16-.71.23l-.15.04c-1.21.36-2.48.61-3.79.74-.85.09-1.71.14-2.58.14"/>
      <path class="cls-5" d="M219.52,81.6c-6.93,0-13.85-.4-20.68-1.36-.71-.1-1.2-.75-1.1-1.46s.75-1.2,1.46-1.1c24.44,3.44,50.36-.47,73.23-3.92,1.64-.24,3.37-.66,3.84-1.81.44-1.06-.31-2.13-1.57-3.79-.91-1.19-1.84-2.42-2.24-3.9-.57-2.09.09-4.26.68-6.16.72-2.36,1.1-3.88.23-5.05-.69-.91-2.04-1.28-3.46-1.67l-.45-.13c-3.91-1.08-7.52-2.93-11.02-4.71-1.63-.83-3.31-1.69-4.97-2.44-2.29-1.04-4.37-1.78-6.35-2.27-.69-.17-1.11-.88-.94-1.57.17-.69.87-1.11,1.56-.94,2.15.53,4.37,1.32,6.8,2.43,1.73.79,3.43,1.66,5.08,2.5,3.39,1.72,6.89,3.51,10.54,4.52l.44.12c1.7.46,3.63.99,4.85,2.62,1.72,2.3.9,4.98.17,7.35-.53,1.72-1.03,3.34-.65,4.72.27,1,1.05,2.03,1.81,3.02,1.37,1.8,2.92,3.84,1.91,6.33-1.1,2.66-4.43,3.17-5.85,3.39-16.71,2.52-35.03,5.28-53.3,5.28"/>
      <path class="cls-5" d="M188.78,71.01c-.43,0-.85-.21-1.1-.6-1.15-1.83-1.59-3.98-1.9-6.05-1.08-7.37-.88-14.83.6-22.16.14-.7.82-1.16,1.53-1.01.7.14,1.15.82,1.02,1.52-1.43,7.04-1.62,14.2-.58,21.27.27,1.78.64,3.63,1.54,5.05.38.61.2,1.41-.41,1.79-.21.13-.45.2-.69.2"/>
      <path class="cls-5" d="M189.62,72.1c-.19,0-.39-.05-.58-.14-.15-.07-.29-.18-.41-.31-.33-.35-.65-.76-.95-1.26-.37-.61-.18-1.41.43-1.78.61-.38,1.41-.18,1.78.43.2.34.41.61.61.83.4.38.53.99.27,1.52-.23.45-.69.71-1.16.71"/>
      <path class="cls-5" d="M190.48,71.7c-.5,0-.97-.29-1.19-.77-.29-.66,0-1.42.66-1.71,1.98-.88,4.08-2.28,6.42-4.28l.17-.15c.11-.09.22-.19.32-.29,6.53-5.71,12-12.8,15.88-20.53.32-.64,1.1-.9,1.73-.57.64.32.9,1.09.58,1.73-4.03,8.03-9.71,15.39-16.45,21.28-.1.09-.23.21-.37.33l-.16.15c-2.55,2.18-4.86,3.71-7.08,4.69-.17.08-.35.11-.52.11"/>
      <path class="cls-5" d="M189.51,72.1c-.72,0-1.3-.58-1.3-1.3,0-.57.37-1.05.89-1.22.02-.01.04-.02.06-.03.25-.09.52-.2.77-.31.65-.31,1.42-.02,1.72.63.3.65.02,1.41-.63,1.71-.29.14-.6.27-.9.38-.19.09-.4.14-.6.14"/>
      <path class="cls-5" d="M181.83,67.3c-.3,0-.61-.1-.85-.31-.33-.29-.65-.6-.97-.91-6.83-6.42-11.92-12.05-16.03-17.75-6.42-8.9-10.42-18.03-11.9-27.14-.11-.7.37-1.37,1.07-1.48.71-.11,1.37.36,1.48,1.07,1.42,8.71,5.27,17.47,11.45,26.05,4.01,5.56,8.99,11.08,15.68,17.36.32.31.61.59.91.85.54.47.6,1.29.13,1.82-.26.3-.61.44-.97.44"/>
      <path class="cls-5" d="M182.36,66.6c-.08,0-.15-.01-.22-.02-.49-.05-.96-.09-1.43-.17-1.07-.14-2.2-.34-3.34-.59-14.14-3.12-26.19-13.19-31.44-26.29-.27-.67.06-1.42.72-1.68.66-.27,1.42.05,1.68.72,4.94,12.31,16.28,21.79,29.59,24.72,1.07.23,2.13.42,3.15.56.48.07.94.12,1.41.16.67.06,1.18.62,1.18,1.29,0,.71-.58,1.3-1.29,1.3"/>
      <path class="cls-5" d="M216.65,230.19c-.14,0-.28-.02-.42-.07-.68-.23-1.04-.97-.81-1.64,7.04-20.57,5.54-43.97-4.03-62.61-.33-.64-.08-1.41.56-1.74s1.42-.08,1.74.56c10.03,19.54,11.55,43.09,4.18,64.63-.19.54-.69.88-1.23.88"/>
      <path class="cls-5" d="M200.28,251.76c-.15,0-.31-.03-.46-.08-.67-.26-1.01-1.01-.75-1.67,3.43-9.03,3.7-19.88.86-34.14-.76-3.79-1.67-7.64-2.55-11.36-1.87-7.84-3.8-15.94-4.4-24.15-1.58-21.49,5.48-43.99,21.59-68.79.39-.6,1.19-.77,1.79-.38.6.39.77,1.19.38,1.79-15.78,24.3-22.71,46.28-21.18,67.18.59,8,2.49,16.01,4.33,23.75.89,3.74,1.81,7.61,2.58,11.45,2.94,14.77,2.63,26.07-.98,35.56-.19.52-.69.84-1.21.84"/>
      <path class="cls-5" d="M234.11,210.19c-.09,0-.18-.01-.27-.03-.7-.15-1.15-.83-1.01-1.53,3.77-18.35,2.15-37.73-4.59-54.56-1.43-3.6-3.13-7.19-4.77-10.66-2.28-4.83-4.64-9.83-6.38-15.02-1.92-5.68-2.84-11.11-2.74-16.16.02-.7.59-1.28,1.3-1.28h.02c.71.01,1.28.58,1.28,1.29h0c-.09,4.79.79,9.93,2.61,15.32,1.69,5.04,4.02,9.97,6.27,14.74,1.66,3.5,3.36,7.13,4.83,10.8,6.92,17.29,8.59,37.19,4.72,56.03-.13.61-.67,1.04-1.27,1.04"/>
      <g class="cls-4">
        <path class="cls-5" d="M143.92,282.24c-.41,0-.82-.19-1.07-.56-2.89-4.24-6.55-8.18-10.88-11.7-2.7-2.19-5.73-4.29-9.01-6.25-3.77-2.26-8.06-4.47-13.14-6.74-2.12-.95-4.42-1.94-7.03-3.01-4.82-1.99-9.77-3.94-14.55-5.82-12.45-4.88-25.32-9.93-37.28-16.44-19.35-10.54-33.15-23.48-41.02-38.46-5.53-10.54-8.61-22.9-9.43-37.78-.04-.72.51-1.33,1.22-1.36.7-.05,1.32.51,1.36,1.22.8,14.51,3.79,26.52,9.14,36.72,7.62,14.52,21.06,27.1,39.96,37.39,11.82,6.44,24.61,11.45,36.98,16.3,4.8,1.88,9.76,3.83,14.6,5.83,2.64,1.09,4.96,2.08,7.1,3.05,5.17,2.32,9.55,4.57,13.4,6.88,3.38,2.02,6.52,4.19,9.32,6.46,4.53,3.68,8.36,7.81,11.39,12.25.4.59.25,1.4-.34,1.8-.22.15-.48.22-.73.22"/>
      </g>
      <g class="cls-1">
        <path class="cls-5" d="M123.62,263.92c-.61,0-1.15-.43-1.27-1.05-1.53-7.78-4.86-15.66-9.64-22.8-8.99-13.49-21.99-23.55-32.31-30.81-8.91-6.26-18.21-12.05-27.65-17.23-3.15-1.73-6.4-3.43-9.54-5.08-9.25-4.85-18.82-9.88-27.37-16.24-5.98-4.45-11.04-9.33-15.06-14.51-.44-.56-.34-1.38.23-1.82.56-.44,1.38-.33,1.81.23,3.88,4.99,8.78,9.71,14.57,14.02,8.39,6.24,17.86,11.22,27.03,16.03,3.15,1.65,6.41,3.36,9.58,5.1,9.52,5.22,18.9,11.07,27.89,17.39,10.51,7.39,23.74,17.64,32.97,31.48,4.96,7.42,8.43,15.63,10.02,23.74.14.7-.32,1.38-1.02,1.52-.08.02-.17.03-.25.03"/>
      </g>
      <path class="cls-5" d="M110.35,257.1c-.46,0-.91-.25-1.14-.69-5.03-9.43-12.18-17.57-20.69-23.54-6.01-4.22-12.78-7.49-19.33-10.66-3.99-1.93-8.13-3.92-12.07-6.12-13.1-7.3-21.46-16.01-24.84-25.89-.23-.68.13-1.41.8-1.64.68-.23,1.41.13,1.65.8,3.17,9.26,11.13,17.48,23.65,24.46,3.88,2.17,7.98,4.14,11.94,6.05,6.65,3.21,13.51,6.53,19.69,10.87,8.84,6.21,16.27,14.66,21.49,24.44.34.63.1,1.42-.54,1.75-.19.1-.4.15-.61.15"/>
      <path class="cls-5" d="M288.88,138.78c-.62,0-1.17-.44-1.28-1.07-.12-.7.35-1.37,1.05-1.49l.13-.02c.18-.03.38-.07.57-.11,1.65-.28,3.26-.7,4.83-1.26,3.77-1.33,7.21-3.42,9.96-6.05,5.26-5.03,8.13-12.17,7.68-19.09-.11-1.61-.38-3.2-.67-4.88-.15-.87-.3-1.74-.42-2.61-.16-1.14-.27-2.08-.33-2.97-.05-.71.48-1.33,1.19-1.39.71-.05,1.33.48,1.39,1.19.06.84.16,1.73.31,2.81.12.84.27,1.69.41,2.54.29,1.67.58,3.4.69,5.15.51,7.68-2.66,15.57-8.46,21.13-3.01,2.88-6.78,5.17-10.89,6.62-1.71.61-3.46,1.07-5.21,1.37-.18.04-.4.07-.61.11l-.12.03c-.08.01-.15.02-.22.02"/>
      <path class="cls-5" d="M282.08,155.47c-.34,0-.7-.07-1.05-.21-.17-.07-.34-.16-.52-.28-.67-.43-1.07-1.14-1.35-1.66-1.74-3.27-3.7-7.58-3.37-12.15.31-4.23,3.11-8.98,7.87-9.9.13-.03.26-.05.36-.05.71,0,1.29.58,1.29,1.3,0,.63-.44,1.15-1.04,1.27-.03.01-.07.02-.1.03-3.46.65-5.57,4.37-5.81,7.55-.28,3.91,1.49,7.79,3.06,10.72.14.24.36.64.53.75.09.05.13.05.16.05.38-.04.93-.39,1.37-.67.16-.1.31-.2.46-.29,1.14-.69,2.35-1.02,3.53-1.34,1.03-.28,1.99-.55,2.81-1.02,1.6-.94,2.67-2.66,3.28-5.28.39-1.58.54-3.3.65-4.77.05-.71.67-1.26,1.38-1.2.71.05,1.25.67,1.2,1.38-.11,1.58-.28,3.42-.7,5.19-.78,3.33-2.25,5.6-4.5,6.92-1.11.64-2.29.96-3.42,1.28-1.05.29-2.05.56-2.88,1.05-.13.08-.26.17-.4.26-.72.46-1.53.98-2.49,1.06-.1.02-.2.02-.31.02"/>
      <path class="cls-5" d="M305.13,98.08c-.47,0-.93-.27-1.16-.72-.32-.64-.06-1.42.58-1.73,1.51-.75,2.95-1.56,4.28-2.41.6-.39,1.41-.21,1.79.39.39.6.21,1.4-.39,1.79-1.41.9-2.93,1.76-4.53,2.55-.19.09-.38.14-.58.14"/>
      <path class="cls-5" d="M289.36,139.1c-.22,0-.43-.05-.64-.17-.21-.12-.42-.26-.61-.4-.55-.38-1.09-.8-1.6-1.23-1.41-1.2-2.63-2.55-3.64-4.03-1.67-2.38-2.84-5.07-3.39-7.8-1.26-6.13.39-12.69,4.39-17.53,4.13-4.95,10.1-7.59,15.88-10.13,1.1-.49,2.19-.97,3.28-1.47.51-.23,1.02-.48,1.54-.72.64-.31,1.42-.04,1.72.6.31.64.04,1.42-.6,1.72-.53.26-1.05.51-1.58.75-1.09.5-2.2.99-3.31,1.48-5.51,2.43-11.19,4.93-14.93,9.42-3.45,4.18-4.93,10.07-3.85,15.36.48,2.38,1.51,4.74,2.98,6.83.89,1.3,1.96,2.48,3.19,3.53.44.38.92.74,1.42,1.09.15.1.27.19.39.26.63.35.84,1.14.49,1.76-.24.42-.68.66-1.13.66"/>
      <path class="cls-5" d="M288.63,137.54c-.52,0-1.01-.32-1.21-.83-2.28-5.88-1.93-12.9.99-19.76,2.83-6.6,7.56-12.04,11.36-16.04l.15-.16c1.44-1.51,2.93-3.07,4.16-4.72.05-.06.09-.12.15-.17.23-.23.55-.37.9-.37.71,0,1.3.58,1.3,1.29,0,.32-.11.6-.3.83-1.31,1.77-2.85,3.38-4.33,4.93l-.15.16c-3.66,3.84-8.19,9.04-10.85,15.27-2.61,6.14-2.96,12.64-.96,17.81.26.67-.07,1.41-.74,1.67-.16.06-.31.09-.47.09"/>
      <path class="cls-5" d="M289.36,139.1c-.2,0-.41-.05-.61-.15-.63-.34-.87-1.12-.54-1.75l.25-.46c1.51-2.69,3.01-5.36,4.51-8.03,1.42-2.53,2.84-5.05,4.26-7.57,4.91-8.78,9.19-16.73,11.84-25.21.21-.68.94-1.06,1.63-.85.68.21,1.06.94.85,1.62-2.73,8.71-7.26,17.13-12.06,25.7-1.42,2.53-2.83,5.05-4.26,7.58-1.49,2.67-2.99,5.33-4.49,8l-.23.43c-.23.44-.68.69-1.15.69"/>
      <path class="cls-5" d="M295.45,145.89c-.22,0-.44,0-.66-.01-.71-.02-1.28-.61-1.26-1.32.02-.7.59-1.27,1.29-1.27.01,0,.02,0,.03,0,6.45.16,12.63-2.15,17.06-6.31,6.29-5.9,8.76-15.61,6.02-23.61-1.08-3.15-2.92-6.16-4.7-9.08-.91-1.48-1.84-3.02-2.68-4.56-.5-.92-.98-1.89-1.42-2.89-.31-.7-.58-1.41-.82-2.13-.23-.68.14-1.41.82-1.64.68-.23,1.41.14,1.64.82.21.65.46,1.29.73,1.91.41.93.85,1.83,1.33,2.69.81,1.49,1.72,2.99,2.61,4.45,1.85,3.04,3.78,6.18,4.94,9.59,3.06,8.94.3,19.77-6.7,26.34-4.77,4.47-11.38,7.02-18.23,7.02"/>
      <path class="cls-5" d="M263.11,256.33c-3.76,0-7.62-.33-11.54-.99-7.8-1.33-15.94-3.98-24.91-8.08l-.19-.09c-.07-.04-.15-.07-.22-.11-.64-.32-.9-1.09-.58-1.73.32-.64,1.09-.9,1.73-.58l.15.07c.07.04.15.07.23.11,8.72,3.99,16.66,6.56,24.23,7.86,11.15,1.9,21.79.98,30.79-2.67.66-.26,1.42.05,1.68.71.27.67-.05,1.42-.71,1.68-6.26,2.54-13.26,3.82-20.66,3.82"/>
      <path class="cls-5" d="M282.27,155.46c-.67,0-1.23-.52-1.29-1.19-.17-2.23.18-4.47,1.01-6.47.78-1.86,1.96-3.63,3.65-5.41,1.43-1.53,3.07-2.93,4.66-4.27,1.16-.97,2.34-1.98,3.42-3.02.52-.49,1.33-.48,1.83.03.5.52.48,1.34-.03,1.83-1.14,1.08-2.35,2.13-3.54,3.13-1.54,1.3-3.12,2.64-4.45,4.07-1.46,1.54-2.49,3.05-3.14,4.62-.68,1.63-.96,3.46-.82,5.28.06.71-.47,1.34-1.19,1.39-.04,0-.07,0-.1,0"/>
      <path class="cls-5" d="M207.63,75.76c-2.75,0-5.51-.11-8.26-.33-.71-.06-1.24-.68-1.19-1.4s.7-1.24,1.4-1.18c16.46,1.33,33.1-1.45,48.11-8.06.65-.29,1.42.01,1.7.66.29.66,0,1.42-.66,1.7-12.89,5.68-26.95,8.61-41.1,8.61"/>
      <path class="cls-5" d="M182.59,97.91h0,0ZM182.8,100.48c-.62,0-1.17-.45-1.27-1.08-.11-.68.32-1.33.99-1.48.04-.01.09-.03.11-.04.57-.16,1.16-.36,1.73-.59.66-.28,1.42.05,1.69.71s-.05,1.42-.71,1.68c-.67.28-1.35.51-2.02.69-.08.03-.18.06-.31.08-.07.01-.14.02-.22.02"/>
    </g>
  </g>
</svg>