<?xml version="1.0" encoding="UTF-8"?>
<svg id="Layer_2" data-name="Layer 2" xmlns="http://www.w3.org/2000/svg" xmlns:xlink="http://www.w3.org/1999/xlink" viewBox="0 0 499.11 487.13">
  <defs>
    <style>
      .cls-1 {
        fill: none;
      }

      .cls-2 {
        clip-path: url(#clippath-1);
      }

      .cls-3 {
        clip-path: url(#clippath-3);
      }

      .cls-4 {
        clip-path: url(#clippath-2);
      }

      .cls-5 {
        clip-path: url(#clippath);
      }

      .cls-6 {
        fill: #7daa7b;
      }
    </style>
    <clipPath id="clippath">
      <rect class="cls-1" x="57.2" y="84.35" width="384.7" height="318.44" transform="translate(-96.82 203.21) rotate(-37.66)"/>
    </clipPath>
    <clipPath id="clippath-1">
      <rect class="cls-1" x="301.55" y="1.02" width="31.41" height="82.28" transform="translate(40.34 202.62) rotate(-37.66)"/>
    </clipPath>
    <clipPath id="clippath-2">
      <rect class="cls-1" x="350.27" y="92.06" width="93.8" height="54.67" transform="translate(9.8 267.53) rotate(-37.66)"/>
    </clipPath>
    <clipPath id="clippath-3">
      <rect class="cls-1" x="369.65" y="85.45" width="65.8" height="36" transform="translate(20.66 267.5) rotate(-37.66)"/>
    </clipPath>
  </defs>
  <g id="Layer_1-2" data-name="Layer 1">
    <g>
      <path class="cls-6" d="M338.6,361.57c-.09-.12-.17-.26-.22-.42-.2-.69.18-1.42.87-1.63,9.21-2.78,20.45-2.58,29.48-2.43l2.14.03c9.06.15,17.86.5,25.91,3.17,3.94,1.31,7.36,3.4,10.67,5.42,2.62,1.6,5.09,3.1,7.81,4.27,1.38.59,2.79,1.02,4.31,1.32.71.13,1.18.82,1.04,1.53s-.82,1.17-1.53,1.04c-1.71-.32-3.3-.81-4.85-1.48-2.89-1.24-5.56-2.87-8.15-4.44-3.18-1.94-6.48-3.95-10.14-5.17-7.71-2.55-15.94-2.88-25.13-3.04l-2.14-.03c-8.85-.15-19.86-.35-28.68,2.32-.53.16-1.09-.04-1.41-.46"/>
      <path class="cls-6" d="M278.27,421.68c-.07-.09-.13-.2-.18-.31-.27-.67.06-1.43.73-1.7,9.26-3.71,20.65-4.45,29.81-5.03,1.26-.08,2.48-.16,3.65-.24,11.73-.82,22.04-.99,31.5-.53,1.35.07,2.69.15,4.03.24,5.33.37,10.67,1.42,15.83,2.45,2.66.52,5.42,1.07,8.13,1.51,3.94.65,7.19.97,10.22,1.02,1.09.02,2.25-.03,3.46-.15.72-.07,1.36.46,1.43,1.18.07.72-.46,1.36-1.18,1.43-1.31.12-2.57.18-3.75.16-3.16-.05-6.54-.39-10.61-1.05-2.75-.45-5.53-1-8.22-1.53-5.08-1-10.33-2.04-15.5-2.4-1.33-.09-2.65-.17-3.98-.24-9.36-.46-19.56-.28-31.19.52-1.18.09-2.41.17-3.67.24-8.96.58-20.12,1.3-29,4.85-.55.22-1.17.04-1.52-.42"/>
      <path class="cls-6" d="M342.68,415.98s-.06-.08-.09-.13c-5.65-9.57-9.36-19.98-10.43-29.33-.08-.72.44-1.37,1.15-1.46.72-.08,1.37.44,1.45,1.16,1.02,8.99,4.61,19.04,10.08,28.3.37.62.16,1.42-.46,1.79-.57.34-1.3.19-1.7-.33"/>
      <path class="cls-6" d="M363.44,439.14c-.34-.45-.37-1.07-.03-1.55.42-.59,1.24-.73,1.83-.31,5.77,4.1,12.07,7.37,17.74,9.21,1.56.51,3.2.91,4.78,1.3,1.18.29,2.4.59,3.59.93.69.2,1.1.93.89,1.62-.2.7-.93,1.1-1.62.89-1.14-.33-2.28-.61-3.49-.91-1.63-.4-3.31-.81-4.96-1.35-5.99-1.95-12.37-5.27-18.45-9.57-.11-.08-.2-.17-.27-.27"/>
      <path class="cls-6" d="M189.42,358.02c-5.01-6.49-9.26-15.23-11.77-24.41-2.43-8.92-2.41-18.34-2.19-26.47v-.1c.16-5.48.31-11.15.93-16.85.07-.72.72-1.24,1.44-1.16.72.08,1.24.73,1.16,1.45-.61,5.59-.76,11.21-.91,16.64v.1c-.22,7.94-.25,17.14,2.1,25.71,2.33,8.55,7.51,20.31,15.01,27.7,7.31,7.18,17.57,11.87,27.58,15.86.67.27.99,1.03.73,1.7s-1.03,1-1.7.73c-10.26-4.1-20.81-8.92-28.44-16.43-1.35-1.33-2.67-2.82-3.93-4.46"/>
      <path class="cls-6" d="M304.08,314.05c-1.63-2.11-3.12-4.37-4.26-6.95-3.76-8.54-4.96-18.59-3.27-27.56,1.92-10.26,7.63-15.33,16.14-21.89,1.15-.88,2.57-1.87,4.08-2.92,1.14-.79,2.35-1.64,3.59-2.53.58-.42,1.41-.3,1.83.29.42.59.29,1.4-.29,1.83-1.24.9-2.47,1.76-3.63,2.56-1.48,1.03-2.88,2-3.98,2.84-8.27,6.38-13.41,10.93-15.16,20.31-1.57,8.35-.42,18.07,3.09,26.03,1.8,4.07,4.56,7.28,7.49,10.67.88,1.02,1.77,2.05,2.63,3.11,1.1,1.34,2,2.63,2.76,3.94.36.62.15,1.42-.48,1.79-.62.36-1.43.15-1.79-.48-.69-1.18-1.52-2.36-2.52-3.59-.85-1.05-1.73-2.06-2.59-3.07-1.22-1.42-2.47-2.85-3.64-4.37"/>
      <path class="cls-6" d="M261.86,376.2c-.09-.12-.16-.25-.21-.39-.22-.68.14-1.43.83-1.65,3.81-1.27,7.5-2.66,10.65-5.84,12.25-12.34,11.86-34.96,10.53-47.34-.07-.72.44-1.37,1.16-1.44s1.36.45,1.44,1.16c3.04,28.43-4.45,42.6-11.27,49.47-3.56,3.59-7.56,5.12-11.68,6.48-.54.18-1.12,0-1.45-.44"/>
      <path class="cls-6" d="M233.12,330.93c-8.66-11.22-12.31-24.92-15.64-40.01-.16-.71.29-1.41,1-1.56.7-.16,1.4.29,1.56.99,4.28,19.4,9.09,36.43,24.65,48.44,2.77,2.14,5.89,3.58,9.19,5.11,3.86,1.78,7.86,3.63,11.21,6.67.39.35.84.8,1.32,1.29.51.51.49,1.34-.03,1.85-.52.5-1.35.49-1.85-.03-.44-.45-.85-.86-1.2-1.16-3.05-2.78-6.7-4.46-10.55-6.24-3.29-1.52-6.69-3.09-9.7-5.4-3.93-3.03-7.2-6.36-9.96-9.94"/>
      <path class="cls-6" d="M376.25,316.35c-.29-.38-.37-.91-.14-1.37.31-.65,1.1-.92,1.74-.6l.17.08c.65.31.93,1.09.61,1.74-.31.65-1.09.93-1.75.62l-.18-.09c-.19-.09-.34-.22-.46-.37"/>
      <path class="cls-6" d="M391.82,324.39c-.3-.38-.36-.91-.14-1.38.32-.65,1.1-.92,1.75-.6,10.39,5.04,21.6,8.98,33.18,3.65,7.37-3.39,15.54-10.15,21.32-17.63,5.53-7.19,10.05-17.36,12.08-27.23.39-1.91.53-3.95.67-6.1l.07-.94c.05-.72.68-1.26,1.39-1.21.72.05,1.27.68,1.22,1.4l-.06.94c-.14,2.14-.3,4.36-.73,6.45-2.1,10.24-6.8,20.82-12.57,28.31-6.11,7.92-14.45,14.8-22.3,18.4-12.6,5.8-24.97,1.4-35.41-3.68-.19-.09-.35-.22-.46-.37"/>
      <path class="cls-6" d="M369.76,327.73c-.31-.4-.37-.97-.11-1.44,1.06-1.91,2.13-3.66,2.99-5.06.33-.54.62-1.01.88-1.44.11-.19.23-.39.37-.62.82-1.38,1.64-2.77,2.44-4.18,1.86-3.25,3.26-5.94,4.39-8.47,1.7-3.77,2.86-7.24,3.57-10.58,1.11-5.29,1.73-10.81,2.34-16.15.22-2,.45-3.99.7-5.98,2.82-22.28,11.81-42.2,26.73-59.2.48-.54,1.31-.6,1.85-.12.55.48.6,1.3.12,1.85-14.57,16.6-23.35,36.04-26.11,57.8-.24,1.98-.47,3.96-.69,5.95-.61,5.4-1.24,10.99-2.38,16.39-.74,3.54-1.97,7.18-3.74,11.12-1.17,2.6-2.6,5.37-4.51,8.69-.78,1.38-1.61,2.81-2.46,4.23-.13.22-.26.45-.38.64-.25.41-.54.91-.88,1.45-.85,1.38-1.91,3.1-2.94,4.96-.35.63-1.15.86-1.78.51-.16-.09-.3-.21-.4-.34"/>
      <path class="cls-6" d="M380.87,307.85c-.41-.53-.35-1.3.16-1.77,3.07-2.79,6.83-4.97,10.57-6.15,9.81-3.05,15.42-7.29,20.67-15.64,4.27-6.77,6.81-15.16,7.55-24.94.65-8.61-1.24-17.44-3.07-25.98-1.24-5.83-2.53-11.86-3.02-17.81-.06-.72.47-1.35,1.2-1.41.72-.06,1.35.48,1.41,1.19.47,5.79,1.75,11.73,2.97,17.48,1.87,8.73,3.79,17.74,3.12,26.72-.77,10.21-3.44,19-7.95,26.13-5.56,8.83-11.75,13.52-22.1,16.75-3.39,1.06-6.8,3.04-9.6,5.58-.53.48-1.36.44-1.85-.09-.03-.03-.05-.05-.07-.08"/>
      <path class="cls-6" d="M283.04,82.57c-.18-.23-.28-.53-.27-.84.02-.72.63-1.29,1.35-1.26,10.94.39,24.39,6.27,33.32,11.64,4.78,2.87,8.68,7.17,11.93,13.15,1.46,2.7,2.86,5.42,4.21,8.04,3.3,6.44,6.42,12.54,10.45,18.17.42.59.28,1.41-.31,1.83-.59.41-1.38.31-1.83-.31-4.13-5.8-7.3-11.97-10.65-18.5-1.34-2.61-2.73-5.31-4.18-7.99-3.02-5.56-6.61-9.53-10.97-12.15-8.65-5.2-21.63-10.9-32.07-11.27-.41-.02-.76-.22-.99-.51"/>
      <path class="cls-6" d="M360.24,92.49s-.07-.09-.1-.15c-1.45-2.51-3.1-5.07-4.69-7.54-5.76-8.94-11.72-18.19-11.01-28.96.3-4.38,1.44-8.75,2.54-12.97.39-1.49.8-3.04,1.14-4.52l.09-.38c.52-2.25,1.31-5.65,1.63-9,.07-.72.7-1.25,1.43-1.18.72.07,1.25.71,1.18,1.43-.33,3.52-1.15,7.03-1.69,9.35l-.09.38c-.36,1.51-.76,3.07-1.16,4.58-1.07,4.11-2.18,8.36-2.46,12.49-.66,9.91,5.07,18.79,10.59,27.37,1.61,2.5,3.28,5.08,4.76,7.65.36.63.15,1.43-.48,1.78-.58.33-1.3.18-1.69-.33"/>
      <g class="cls-5">
        <path class="cls-6" d="M193.7,486.03c-.28-.36-.36-.86-.17-1.3,7.81-18.8,18.12-36.58,30.65-52.86,3.26-4.25,6.71-8.43,10.24-12.42,8.35-9.46,17.48-18.26,27.16-26.17,2.2-1.81,4.47-3.59,6.74-5.31,6.22-4.72,12.78-9.18,19.11-13.5,2.26-1.54,4.53-3.09,6.78-4.64,5.98-4.12,10.46-7.37,14.52-10.54.79-.61,1.57-1.24,2.35-1.86,1.1-.88,2.19-1.78,3.28-2.69,5.8-4.86,11.34-10.06,16.46-15.46,8.84-9.28,16.77-19.42,23.58-30.13,7.24-11.38,13.21-23.43,17.75-35.84,1.53-4.14,2.89-8.34,4.06-12.47.65-2.27,1.27-4.66,1.85-7.08,4.15-17.41,5.58-35.27,4.25-53.11-.84-11.32-2.81-22.49-5.85-33.19-2.16-7.59-4.87-14.98-8.05-22-.43-.98-.89-1.94-1.35-2.9-3.27-6.86-7.21-13.84-12.39-22-4.5-7.07-9.38-14.12-14.1-20.93-3.74-5.41-7.63-11-11.3-16.59-4.5-6.84-8.02-12.64-11.09-18.25-11.69-21.33-17.29-43.57-15.78-62.61.06-.72.69-1.26,1.41-1.2s1.26.69,1.2,1.41c-1.48,18.54,4.02,40.26,15.46,61.15,3.03,5.54,6.52,11.29,10.98,18.07,3.66,5.57,7.52,11.15,11.27,16.55,4.73,6.83,9.63,13.89,14.16,21.01,5.24,8.24,9.22,15.32,12.54,22.28.46.98.93,1.96,1.37,2.95,3.23,7.12,5.99,14.65,8.19,22.35,3.09,10.87,5.08,22.21,5.94,33.7,1.35,18.11-.1,36.25-4.31,53.91-.59,2.46-1.22,4.88-1.88,7.2-1.18,4.19-2.57,8.44-4.11,12.65-4.6,12.58-10.66,24.81-18,36.34-6.9,10.86-14.94,21.13-23.9,30.53-5.19,5.46-10.8,10.73-16.67,15.66-1.32,1.11-2.35,1.95-3.32,2.72-.79.63-1.59,1.27-2.38,1.88-4.1,3.2-8.62,6.48-14.64,10.63-2.25,1.56-4.52,3.1-6.79,4.65-6.31,4.3-12.83,8.75-19,13.42-2.25,1.69-4.49,3.46-6.67,5.25-9.56,7.83-18.6,16.53-26.85,25.88-3.5,3.95-6.91,8.08-10.13,12.28-12.39,16.1-22.58,33.68-30.3,52.27-.28.67-1.04.98-1.71.71-.21-.09-.4-.23-.54-.41"/>
      </g>
      <g class="cls-2">
        <path class="cls-6" d="M329.33,83.14c-.12-.16-.21-.35-.25-.55-1.33-6.85-1.57-14.02-1.79-20.95-.19-5.87-.39-11.95-1.27-17.63-1.34-8.71-7.12-16.48-12.71-24-4.08-5.49-8.29-11.16-10.8-17.2-.27-.67.04-1.43.71-1.71.67-.28,1.43.04,1.71.71,2.38,5.74,6.5,11.28,10.48,16.65,5.78,7.77,11.75,15.81,13.2,25.16.9,5.84,1.1,12,1.3,17.95.23,6.83.45,13.89,1.74,20.53.14.71-.32,1.4-1.04,1.54-.5.1-.99-.11-1.28-.48"/>
      </g>
      <path class="cls-6" d="M294.77,106.88c-6-7.77-9.39-16.58-11.95-24.71-.22-.69.17-1.42.86-1.64s1.42.16,1.63.86c3.92,12.46,9.33,25.23,22.39,34.2,5.63,3.87,12.46,6.67,19.07,9.37,2.1.86,4.27,1.75,6.33,2.64,3.27,1.42,6.69,2.41,10.2,3.37l1.16.32c4.3,1.18,8.75,2.39,12.85,4.34,5.22,2.48,9.39,5.13,13.14,8.32.55.47.62,1.3.14,1.85s-1.3.61-1.84.15c-3.57-3.04-7.56-5.57-12.56-7.95-3.89-1.85-8.22-3.03-12.42-4.18l-1.16-.32c-3.61-.99-7.12-2-10.55-3.49-2.03-.89-4.1-1.73-6.28-2.62-6.73-2.76-13.69-5.6-19.56-9.64-4.65-3.19-8.4-6.89-11.46-10.86"/>
      <path class="cls-6" d="M354.74,120.68c-.12-.16-.21-.35-.24-.56-.83-4.31-.65-8.54.56-13.32.85-3.33,1.92-6.43,2.96-9.43.72-2.07,1.39-4.03,2-6.06,1.32-4.4,1.98-8.01,2.1-11.7.4-11.12.53-23.82-2.92-33.72-1.69-4.83-4.58-9.93-9.1-16.03-.43-.58-.31-1.4.27-1.83.57-.43,1.38-.31,1.81.25l.02.02c4.69,6.32,7.7,11.64,9.48,16.73,3.61,10.32,3.48,23.31,3.07,34.67-.14,3.92-.83,7.72-2.21,12.35-.62,2.08-1.34,4.16-2.04,6.17-1.02,2.95-2.08,6-2.89,9.22-1.13,4.45-1.3,8.21-.54,12.18.13.71-.32,1.4-1.04,1.53-.5.1-.99-.11-1.28-.48"/>
      <path class="cls-6" d="M224.18,433.46c-.14-.19-.24-.41-.26-.65l-.11-.96c-1.23-11.19-2.49-22.76-2.56-34.27-.02-1.71-.02-3.42-.03-5.13-.02-4.83-.04-9.84-.26-14.7-.3-6.71-.92-12.23-1.95-17.38-1.73-8.74-3.59-16.54-8.95-23.48l-.09-.12c-2.47-3.17-5.55-5.61-8.81-8.2-2.1-1.66-4.26-3.37-6.23-5.28-10.54-10.22-16.43-20.62-18.54-32.72-.03-.14-.04-.29-.02-.44.09-.72.75-1.22,1.46-1.13.58.08,1.02.51,1.12,1.05,0,.01,0,.03,0,.04,2.02,11.53,7.66,21.48,17.79,31.31,1.88,1.82,3.99,3.49,6.04,5.11,3.24,2.57,6.59,5.23,9.25,8.64l.1.13c5.7,7.38,7.65,15.5,9.44,24.56,1.05,5.28,1.69,10.93,2,17.78.22,4.92.24,9.95.26,14.81,0,1.7.01,3.41.03,5.12.07,11.39,1.33,22.89,2.55,34.02l.1.95c.08.72-.44,1.37-1.16,1.44-.47.05-.91-.15-1.18-.5"/>
      <path class="cls-6" d="M234.38,421.12c-.15-.19-.24-.41-.27-.66-.07-.72.45-1.36,1.16-1.44,1.77-.19,3.56-.4,5.37-.61,12.3-1.42,25.01-2.9,36.6.4.83.23,1.69.53,2.55.87,5.61,2.23,10.08,6.23,14.4,10.1l.98.87c7.63,6.79,19.66,15.16,33.65,16.51,10.94,1.05,22.69-2.28,34.96-9.91,1.41-.89,2.84-1.83,4.21-2.79,2.81-1.95,5.7-4.32,8.84-7.25,2.38-2.22,4.86-4.71,7.8-7.85.49-.53,1.32-.55,1.85-.06s.55,1.32.06,1.85c-2.99,3.18-5.51,5.71-7.92,7.98-3.24,3.02-6.23,5.47-9.14,7.49-1.4.98-2.85,1.94-4.31,2.85-12.76,7.94-25.08,11.41-36.6,10.3-14.69-1.41-27.22-10.11-35.13-17.16l-.98-.87c-4.35-3.89-8.46-7.56-13.63-9.62-.78-.3-1.55-.57-2.3-.78-11.08-3.15-23.53-1.71-35.57-.31-1.82.21-3.62.42-5.4.62-.47.05-.9-.16-1.17-.5"/>
      <path class="cls-6" d="M293.92,371.71c-.28-.36-.36-.85-.18-1.29.27-.67,1.03-1,1.7-.73,6.14,2.49,12.39,4.94,18.44,7.32,4.7,1.85,9.4,3.7,14.12,5.59,2.08.83,4.1,1.7,6.01,2.58,9.85,4.55,17.82,9.88,23.66,15.86,5.4,5.53,10.29,11.27,14.94,17.55.43.58.31,1.4-.28,1.83-.58.43-1.41.28-1.83-.27-4.57-6.18-9.38-11.83-14.7-17.27-5.62-5.74-13.33-10.9-22.9-15.31-1.86-.86-3.84-1.71-5.88-2.53-4.71-1.88-9.41-3.73-14.11-5.58-6.05-2.38-12.3-4.84-18.46-7.33-.22-.09-.4-.23-.54-.41"/>
      <path class="cls-6" d="M389.94,450.79s-.04-.05-.06-.08c-2.29-3.47-4.4-7.11-6.44-10.63-1.85-3.19-3.78-6.49-5.81-9.64l-1.01-1.56c-.39-.6-.23-1.41.38-1.81.6-.4,1.42-.24,1.81.38l1.01,1.57c2.07,3.21,4.01,6.54,5.88,9.77,2.03,3.48,4.12,7.08,6.36,10.5.4.6.23,1.41-.37,1.81-.58.38-1.34.25-1.76-.29"/>
      <path class="cls-6" d="M261.37,395.09c-.14-.19-.24-.41-.26-.67-.7-6.85-.11-13.84.48-19.17.31-2.8.68-5.62,1.04-8.35.31-2.37.64-4.82.91-7.18.2-1.76.34-3.22.45-4.58.07-.82.12-1.63.15-2.44.44-9.55-1.4-18.3-5.96-28.37-2.97-6.54-7.61-11.23-13.37-16.68-4.73-4.48-8.65-7.74-13.58-10.13-2.04-.98-4.12-1.83-6.12-2.65-2.42-.99-4.72-1.93-6.97-3.09-.64-.33-.89-1.12-.56-1.77s1.12-.89,1.77-.56c2.14,1.11,4.38,2.02,6.75,2.99,2.05.83,4.16,1.69,6.28,2.72,5.79,2.81,10.39,6.93,14.24,10.58,5.76,5.45,10.79,10.53,13.95,17.5,4.75,10.46,6.66,19.58,6.2,29.56-.03.83-.09,1.68-.16,2.55-.11,1.39-.27,2.87-.46,4.66-.27,2.39-.59,4.85-.91,7.22-.36,2.72-.73,5.53-1.03,8.3-.58,5.2-1.16,12.01-.49,18.62.08.72-.45,1.36-1.16,1.43-.47.05-.9-.16-1.17-.5"/>
      <path class="cls-6" d="M263.81,360.67c-.26-.34-.35-.81-.19-1.25.6-1.66,1.27-3.3,1.98-4.85.1-.21.2-.43.31-.65,1.97-4.02,4.58-7.72,7.1-11.31,1.39-1.96,2.81-3.99,4.09-6.02,3.49-5.52,5.29-11.24,6.6-16.11.19-.69.91-1.11,1.6-.92s1.11.9.93,1.6c-1.36,5.06-3.24,11.02-6.92,16.83-1.31,2.08-2.76,4.14-4.16,6.13-2.46,3.5-5.01,7.12-6.88,10.94-.1.21-.2.41-.29.61-.68,1.48-1.32,3.04-1.91,4.64-.24.68-1,1.03-1.68.79-.24-.09-.44-.24-.59-.43"/>
      <path class="cls-6" d="M310.86,359.26c-.22-.28-.32-.65-.25-1.04.16-.9.31-1.8.45-2.73,1.27-8.67,1.41-17.75,1.53-26.53.02-1.54.05-3.06.08-4.57.03-1.58.06-3.14.11-4.67.13-4.08.05-8.26-.02-12.31-.11-5.69-.22-11.58.24-17.37.29-3.66.81-7.36,1.32-10.93.33-2.31.66-4.7.94-7.04.68-5.98,2.12-11.93,4.66-19.27.24-.68.98-1.05,1.66-.81.69.24,1.04.98.81,1.67-2.48,7.16-3.87,12.93-4.53,18.71-.27,2.37-.61,4.78-.94,7.11-.5,3.54-1.02,7.19-1.31,10.77-.44,5.66-.34,11.48-.23,17.12.07,4.08.15,8.29.02,12.44-.05,1.52-.09,3.06-.11,4.63-.03,1.5-.05,3.02-.07,4.55-.12,8.87-.26,18.04-1.56,26.86-.13.95-.29,1.9-.46,2.82-.12.71-.81,1.18-1.52,1.05-.33-.06-.62-.24-.81-.48"/>
      <path class="cls-6" d="M314.16,356.55c-.18-.24-.28-.55-.27-.87.03-.72.65-1.28,1.37-1.24,7.56.37,15.67,2.04,24.79,5.09,4.29,1.43,8.79,3.17,13.73,5.3,4.27,1.85,8.24,4.3,12.08,6.66,3.28,2.02,6.67,4.1,10.17,5.77,8.84,4.19,18.85,3.86,31.5-1.04,4.25-1.65,7.92-3.22,11.23-4.82.65-.31,1.43-.04,1.75.61.32.65.04,1.43-.61,1.74-3.38,1.63-7.12,3.23-11.43,4.9-13.37,5.18-24.04,5.48-33.58.96-3.63-1.72-7.07-3.84-10.41-5.9-3.76-2.32-7.65-4.71-11.75-6.49-4.88-2.11-9.3-3.82-13.52-5.23-8.89-2.97-16.77-4.59-24.09-4.96-.4-.02-.75-.21-.97-.5"/>
      <path class="cls-6" d="M330.73,340.99s-.06-.07-.08-.12c-.38-.62-.18-1.42.44-1.8,2.42-1.49,4.51-2.59,6.56-3.48,3.14-1.36,6.39-2.22,9.54-3.05,1.85-.49,3.77-.99,5.62-1.6,1.42-.46,2.81-.93,4.19-1.41,4.5-1.53,8.76-2.98,13.55-3.9,3.81-.74,7.62-1.23,11.29-1.71,3.55-.46,7.22-.95,10.77-1.63,4.97-.96,9.07-2.2,12.89-3.88,11.67-5.16,25.65-14.53,36.5-24.44,5.48-5,10.51-10.76,15.38-16.32.87-.99,1.74-1.99,2.61-2.98.33-.37.67-.79,1.04-1.25.45-.56,1.27-.65,1.83-.2.56.45.66,1.27.21,1.83-.39.5-.78.95-1.12,1.34-.87.99-1.73,1.98-2.6,2.97-4.91,5.62-9.99,11.43-15.58,16.53-11.04,10.09-25.3,19.63-37.21,24.9-4.01,1.77-8.29,3.06-13.46,4.06-3.63.7-7.34,1.19-10.93,1.65-3.63.48-7.4.97-11.2,1.7-4.55.88-8.72,2.3-13.14,3.8-1.39.47-2.8.95-4.23,1.41-1.93.62-3.88,1.14-5.77,1.64-3.19.84-6.2,1.64-9.16,2.93-1.93.84-3.91,1.89-6.24,3.31-.57.35-1.32.21-1.72-.31"/>
      <path class="cls-6" d="M354.47,310.66c-.22-.29-.33-.67-.25-1.06.26-1.27.54-2.53.82-3.79.16-.71.31-1.42.47-2.12.63-2.93,1.26-6.08,1.57-9.26.67-7,.37-14.55-.87-22.45l-.09-.61c-.73-4.64-1.48-9.43-2.96-13.81-.81-2.39-2.04-4.55-3.35-6.83-.28-.48-.55-.97-.83-1.46-.35-.64-.13-1.43.51-1.78.63-.35,1.43-.13,1.78.5.27.48.54.96.82,1.44,1.3,2.3,2.66,4.66,3.55,7.29,1.55,4.6,2.32,9.5,3.07,14.25l.09.6c1.28,8.13,1.57,15.9.89,23.12-.32,3.31-.97,6.55-1.61,9.55-.15.71-.31,1.42-.47,2.13-.27,1.25-.55,2.5-.8,3.76-.15.71-.84,1.16-1.55,1.02-.32-.06-.59-.24-.77-.48"/>
      <path class="cls-6" d="M343.16,289.71c-1.06-1.37-1.9-2.99-2.42-5.11-2.03-8.22.97-15.59,3.87-22.71,1.78-4.36,3.61-8.87,4.2-13.44.09-.72.75-1.22,1.47-1.13.72.1,1.23.75,1.13,1.47-.64,4.91-2.54,9.58-4.37,14.09-2.87,7.05-5.58,13.7-3.76,21.1.97,3.92,3.23,5.72,6.36,8.2.44.35.89.7,1.35,1.08,3.87,3.13,5.6,6.35,7.02,10.25.25.68-.1,1.43-.78,1.67s-1.43-.1-1.68-.78c-1.31-3.58-2.8-6.35-6.21-9.11-.45-.37-.9-.72-1.32-1.06-1.83-1.45-3.52-2.79-4.86-4.52"/>
      <path class="cls-6" d="M372.34,274.57c-.16-.21-.26-.47-.27-.75-.37-11.56-4.71-23.66-8.64-31.12-.62-1.19-1.3-2.39-2-3.59-2.71-4.57-5.76-8.73-8.38-12.2-10.39-13.74-13.7-29.38-17.2-45.95l-.42-2c-.15-.71.3-1.4,1.01-1.55.71-.15,1.4.3,1.55,1.01l.42,2c3.44,16.27,6.69,31.63,16.73,44.91,2.66,3.53,5.77,7.77,8.54,12.44.74,1.23,1.44,2.48,2.08,3.71,4.07,7.72,8.55,20.25,8.94,32.25.03.72-.54,1.33-1.27,1.35-.44.01-.83-.19-1.08-.51"/>
      <path class="cls-6" d="M361.51,239.24c-.15-.19-.25-.43-.27-.7-.23-2.97-.1-5.82.37-8.48v-.09c1.11-6.17,2.06-11.5,1.81-17.74-.26-6.66-2.09-9.71-6.2-15.06l-.03-.03c-2.79-3.62-7.02-6.5-11.09-9.28-3.67-2.51-7.47-5.1-10.38-8.3-.48-.52-.45-1.36.09-1.85.53-.48,1.36-.44,1.85.09,2.71,2.97,6.37,5.47,9.92,7.89,4.25,2.9,8.64,5.9,11.69,9.85l.03.04c4.52,5.9,6.46,9.5,6.74,16.55.26,6.52-.71,11.98-1.83,18.31l-.02.09c-.43,2.44-.55,5.07-.34,7.82.05.72-.49,1.35-1.21,1.4-.46.03-.88-.17-1.14-.51"/>
      <path class="cls-6" d="M378.29,254.87c-.39-.51-.36-1.24.1-1.72,8.02-8.19,11.56-21.8,14.24-33.91,1.04-4.73,2.06-9.56,3.05-14.22l1.03-4.85c.83-3.99,1.58-7.48,2.28-10.65,1.39-6.29,2.54-12.76,3.66-19.02.63-3.55,1.29-7.21,1.98-10.8,2.25-11.67,7.39-21.51,12.93-31.39.35-.63,1.15-.85,1.78-.5.63.35.86,1.15.51,1.78-5.43,9.69-10.47,19.31-12.65,30.6-.68,3.58-1.34,7.23-1.97,10.76-1.12,6.29-2.28,12.79-3.68,19.13-.7,3.17-1.45,6.64-2.28,10.62l-1.03,4.85c-.98,4.67-2.01,9.5-3.06,14.25-2.76,12.47-6.42,26.5-14.93,35.18-.5.51-1.33.53-1.85.02-.04-.04-.08-.09-.12-.14"/>
      <path class="cls-6" d="M396.96,201.23c-.4-.52-.36-1.28.13-1.74,2.97-2.85,7.58-4.92,12.04-6.91,4.07-1.82,7.92-3.54,9.41-5.44,5.03-6.41,4.49-15.39,4.01-23.32-.04-.67-.08-1.34-.11-2-.39-7.04-1.73-14.13-3.03-20.99-.28-1.48-.56-2.95-.83-4.43-.39-2.14-.76-4.45-1.16-7.26-.1-.72.4-1.38,1.11-1.48.72-.1,1.38.4,1.48,1.11.39,2.78.76,5.05,1.15,7.16.27,1.47.55,2.94.82,4.42,1.32,6.94,2.67,14.11,3.07,21.33.04.65.08,1.32.12,1.99.5,8.39,1.07,17.91-4.57,25.1-1.89,2.41-6.02,4.25-10.4,6.21-4.25,1.9-8.65,3.87-11.29,6.41-.52.5-1.35.48-1.85-.05-.04-.03-.07-.07-.09-.1"/>
      <path class="cls-6" d="M303.46,156.18c-2.36-3.06-4.15-6.3-5.36-9.74-.24-.68.11-1.43.79-1.67.68-.24,1.43.11,1.67.8,4.17,11.74,14.97,20.77,34.01,28.4.41.16.81.32,1.22.48l.8.31c6.52,2.51,13.06,4.53,18.83,6.32l.27.09c3.22.99,6.64,2.34,9.89,3.88,6.07,2.88,14.32,7.79,19.11,14.78.41.59.26,1.41-.33,1.82-.6.41-1.41.27-1.82-.34-4.47-6.5-12.3-11.15-18.08-13.89-3.96-1.89-7.37-3.08-9.53-3.75l-.28-.08c-5.81-1.8-12.39-3.85-19-6.38l-.8-.31c-.41-.16-.82-.32-1.24-.49-14.07-5.65-24.04-12.31-30.14-20.22"/>
      <path class="cls-6" d="M298.29,146.8c-.25-.33-.35-.78-.21-1.2.22-.69.96-1.06,1.65-.85,5.7,1.86,11.75,2.98,19.08,4.11,8.84,1.35,17.28,4.73,24.42,9.79,4.92,3.49,8.4,8.41,11.78,13.16,1.11,1.56,2.25,3.18,3.42,4.7,2.43,3.15,5.06,6.11,7.55,8.84.48.52.45,1.36-.09,1.85-.53.48-1.36.44-1.85-.09-2.52-2.77-5.17-5.76-7.69-9-1.2-1.57-2.36-3.2-3.48-4.78-3.4-4.79-6.6-9.31-11.16-12.54-6.81-4.82-14.87-8.05-23.3-9.34-7.45-1.14-13.62-2.29-19.5-4.2-.26-.09-.47-.25-.63-.45"/>
      <g class="cls-4">
        <path class="cls-6" d="M376.68,167.92c-.18-.24-.29-.54-.27-.87.64-12,3.81-24.34,7.14-35.9l.59-2.02c.29-1.02.59-2.03.88-3.02,6.85-23.38,16.9-41.03,31.64-55.55.51-.51,1.35-.5,1.85.01.5.51.5,1.34-.01,1.85-14.4,14.2-24.24,31.49-30.96,54.42-.3,1-.59,2-.88,3.01l-.59,2.02c-3.29,11.41-6.41,23.57-7.04,35.31-.04.72-.65,1.27-1.37,1.24-.4-.02-.74-.21-.97-.51"/>
      </g>
      <g class="cls-3">
        <path class="cls-6" d="M383.77,132.31c-.18-.23-.28-.52-.27-.83.02-.73.62-1.29,1.34-1.28,7.19.19,17.72-4.45,23.88-15.1,4.31-7.48,4.54-16.04,4.14-24.18-.4-8.37.73-14.73,3.55-20.04.34-.64,1.13-.89,1.77-.54s.88,1.13.54,1.77c-2.59,4.88-3.62,10.82-3.25,18.7.42,8.53.16,17.55-4.49,25.61-4.69,8.12-14.9,16.72-26.22,16.42-.41,0-.77-.21-1-.51"/>
      </g>
    </g>
  </g>
</svg>