<?xml version="1.0" encoding="UTF-8"?>
<svg id="Layer_2" data-name="Layer 2" xmlns="http://www.w3.org/2000/svg" xmlns:xlink="http://www.w3.org/1999/xlink" viewBox="0 0 291.19 432.04">
  <defs>
    <style>
      .cls-1 {
        clip-path: url(#clippath-4);
      }

      .cls-2 {
        fill: none;
      }

      .cls-3 {
        clip-path: url(#clippath-1);
      }

      .cls-4 {
        clip-path: url(#clippath-3);
      }

      .cls-5 {
        fill: #e9c261;
      }

      .cls-6 {
        clip-path: url(#clippath-2);
      }

      .cls-7 {
        clip-path: url(#clippath);
      }
    </style>
    <clipPath id="clippath">
      <rect class="cls-2" x="135.76" width="45.33" height="115.14"/>
    </clipPath>
    <clipPath id="clippath-1">
      <rect class="cls-2" x="127.76" width="38.67" height="116.47"/>
    </clipPath>
    <clipPath id="clippath-2">
      <rect class="cls-2" x="221.78" y="83.76" width="69.41" height="76.7"/>
    </clipPath>
    <clipPath id="clippath-3">
      <rect class="cls-2" x="226.96" y="83.76" width="64.23" height="77.56"/>
    </clipPath>
    <clipPath id="clippath-4">
      <rect class="cls-2" x="90.61" y="97.8" width="53.5" height="334.2"/>
    </clipPath>
  </defs>
  <g id="Layer_1-2" data-name="Layer 1">
    <g>
      <path class="cls-5" d="M211,252.2c-.17,0-.34-.04-.5-.1-.66-.28-.97-1.03-.7-1.69l.08-.21c.04-.09.08-.19.11-.29,1.4-3.59,2.3-6.94,2.74-10.22.35-2.56.46-5,.56-7.36.25-5.42.48-10.55,3.4-16.28,4.38-8.59,11.43-16.19,17.09-21.85,3.11-3.11,6.52-6.26,11.06-10.19,1.85-1.61,3.71-3.2,5.58-4.79,6.77-5.78,13.77-11.76,19.93-18.52.98-1.07,1.94-2.17,2.95-3.37.46-.54,1.27-.62,1.82-.16s.62,1.28.16,1.82c-1.03,1.23-2.02,2.36-3.03,3.45-6.26,6.88-13.32,12.91-20.16,18.73-1.85,1.59-3.71,3.17-5.56,4.78-4.49,3.89-7.86,6.99-10.93,10.07-5.53,5.53-12.4,12.93-16.61,21.2-2.67,5.23-2.89,10.09-3.12,15.23-.11,2.42-.22,4.92-.58,7.59-.47,3.48-1.42,7.03-2.91,10.83l-.09.22c-.04.1-.07.2-.11.3-.2.49-.69.8-1.19.8"/>
      <g class="cls-7">
        <path class="cls-5" d="M161.66,115.12c-.49,0-.96-.28-1.18-.76-.3-.65,0-1.42.65-1.71.63-.29,1.29-.62,2.09-1.05,10.96-5.98,16.48-16.6,14.77-28.43-.84-5.8-2.85-12.01-5.99-18.44-2.74-5.6-6.33-11.36-10.66-17.13-.86-1.14-1.72-2.28-2.59-3.42-6.78-8.96-13.79-18.23-18.15-28.75l-.07-.17c-.04-.1-.08-.21-.13-.32-1.55-3.9-2.87-8.87-3.53-13.29-.1-.71.38-1.36,1.09-1.47.71-.1,1.36.39,1.47,1.09.63,4.24,1.9,9,3.38,12.74l.18.45c4.22,10.2,11.13,19.33,17.81,28.16.87,1.15,1.73,2.29,2.59,3.44,4.42,5.9,8.1,11.8,10.92,17.54,3.25,6.68,5.34,13.14,6.22,19.2,1.88,12.94-4.14,24.55-16.09,31.07-.85.46-1.57.82-2.25,1.13-.18.08-.36.11-.54.11"/>
      </g>
      <g class="cls-3">
        <path class="cls-5" d="M156.1,115.73c-3.67,0-7.31-.76-10.9-2.28-4.61-1.96-8.75-6.45-11.09-9.98-4.51-6.87-3.79-15.99-3.15-24.04.14-1.8.27-3.51.35-5.15.31-6.63-.72-13.41-1.72-19.95l-.15-.96c-2.23-14.76.07-30.9,7.47-52.33.23-.68.97-1.03,1.65-.8.68.23,1.04.97.8,1.65-7.26,21.02-9.53,36.78-7.36,51.1l.14.96c1.02,6.68,2.07,13.58,1.75,20.46-.08,1.68-.21,3.41-.36,5.23-.6,7.64-1.28,16.29,2.74,22.41,2.13,3.22,5.85,7.29,9.94,9.03,4.96,2.1,10.06,2.61,15.14,1.49.03,0,.07-.02.1-.02.66-.15,1.34-.33,2.03-.55.68-.22,1.41.16,1.63.84.21.68-.16,1.41-.84,1.62-.8.26-1.58.46-2.34.63-.04.01-.07.01-.1.02-1.91.41-3.83.62-5.73.62"/>
      </g>
      <path class="cls-5" d="M160.25,95.98c-.35,0-.7-.14-.95-.42-.48-.53-.44-1.34.08-1.82,8.44-7.69,11.69-24.73,12.48-29.77.11-.71.78-1.19,1.48-1.08.71.11,1.19.78,1.08,1.48-1.06,6.72-4.48,23.24-13.3,31.27-.25.23-.56.34-.88.34"/>
      <path class="cls-5" d="M140.73,251.1c-.14,0-.29-.03-.43-.07-.67-.23-1.03-.97-.8-1.65,4.18-12.02,9.54-27.88,13.93-43.91.19-.69.9-1.09,1.59-.91s1.1.9.91,1.59c-4.41,16.1-9.79,32.02-13.98,44.08-.18.53-.68.87-1.22.87"/>
      <path class="cls-5" d="M164.71,153.16h-.1c-.71-.06-1.24-.68-1.19-1.39,1.07-13.38.8-26.29-.82-38.36l-.06-.51c-.67-4.84-1.54-9.58-2.6-14.08-.29-1.27-.61-2.54-.93-3.8-2.08-8.02-4.8-16.04-7.43-23.79-2.94-8.67-5.98-17.64-8.17-26.71-2.6-10.76-3.65-20.89-3.1-30.1.04-.71.65-1.25,1.37-1.21.71.04,1.26.65,1.21,1.36-.53,8.95.49,18.83,3.03,29.34,2.16,8.95,5.18,17.86,8.1,26.48,2.65,7.8,5.38,15.86,7.48,23.98.33,1.28.65,2.57.95,3.86,1.07,4.57,1.96,9.4,2.64,14.34l.06.52c1.64,12.24,1.92,25.33.83,38.89-.05.68-.63,1.19-1.29,1.19"/>
      <path class="cls-5" d="M116.27,191.27c-.07,0-.14,0-.2-.01-.53-.08-1.06-.18-1.57-.29-14.79-2.99-27.14-16.23-30.02-32.2-.49-2.72-.85-5.36-1.08-7.85-.95-10.56.28-20.15,3.67-28.49,2.97-7.33,6.98-14.24,10.85-20.93,1.4-2.42,2.85-4.92,4.23-7.4.34-.63,1.14-.84,1.76-.51.63.35.85,1.14.51,1.76-1.39,2.49-2.84,5.01-4.26,7.44-3.83,6.6-7.79,13.44-10.7,20.6-3.24,7.96-4.41,17.14-3.49,27.29.22,2.42.57,4.98,1.05,7.63,2.7,14.95,14.21,27.33,28.01,30.13.48.1.95.19,1.43.27.71.11,1.19.77,1.08,1.47-.1.64-.65,1.09-1.28,1.09"/>
      <path class="cls-5" d="M115.41,192.54c-.25,0-.51-.07-.74-.23-.58-.41-.73-1.21-.32-1.8.28-.4.56-.81.83-1.23,6.34-9.56,10.32-19.17,11.24-27.08.6-5.22-1.22-10.47-2.99-15.55-.24-.72-.49-1.43-.73-2.13-2.39-7.06-5.94-13.64-9.38-20-.91-1.69-1.83-3.39-2.72-5.09-.94-1.77-1.77-3.41-2.55-5.01-2.27-4.66-4.01-9.65-5.16-14.84-.35-1.53-.65-3.1-.89-4.66-.1-.7.38-1.36,1.09-1.47.71-.1,1.37.38,1.47,1.09.22,1.49.51,2.99.85,4.47,1.11,5.01,2.78,9.81,4.96,14.28.77,1.57,1.59,3.19,2.52,4.94.9,1.7,1.8,3.38,2.71,5.06,3.48,6.46,7.09,13.13,9.55,20.4.23.7.48,1.4.72,2.11,1.86,5.35,3.78,10.89,3.11,16.7-.96,8.3-5.09,18.32-11.65,28.19-.28.44-.57.88-.87,1.3-.26.36-.66.55-1.07.55"/>
      <path class="cls-5" d="M102.35,134.35c-.21,0-.42-.05-.62-.16-.63-.34-.85-1.13-.51-1.75,3.15-5.73,6.27-10.45,9.53-14.43.45-.55,1.27-.64,1.82-.18.55.45.64,1.27.18,1.82-3.16,3.85-6.19,8.44-9.26,14.03-.23.43-.68.67-1.14.67"/>
      <path class="cls-5" d="M107.37,168.54c-.31,0-.62-.11-.86-.33-3.07-2.75-6.48-5.26-9.78-7.68-1.71-1.26-3.32-2.44-4.88-3.65-2.5-1.95-5.33-3.57-7.79-4.94-.63-.35-.85-1.14-.5-1.76.35-.63,1.14-.85,1.76-.5,2.54,1.41,5.47,3.09,8.11,5.16,1.53,1.18,3.13,2.36,4.82,3.6,3.35,2.46,6.81,5.01,9.98,7.84.53.47.57,1.29.1,1.82-.26.29-.61.43-.96.43"/>
      <path class="cls-5" d="M139.08,293.8c-.42,0-.84-.21-1.09-.59-.39-.6-.21-1.4.39-1.79,6.42-4.13,12.75-9.14,18.8-14.86,6.14-5.79,12.06-12.41,17.61-19.65,3.41-4.43,6.7-9.14,9.82-14.01,10.84-16.97,19.68-35.51,28.21-53.44,4.74-9.95,9.65-20.25,14.85-30.19.25-.48.51-.97.78-1.47,1.18-2.24,2.19-4.13,3.17-5.9,4.42-8.05,9.04-15.57,13.71-22.36,12.93-18.8,27.28-33.34,42.66-43.24.6-.38,1.4-.21,1.79.39.39.6.21,1.4-.39,1.79-15.09,9.71-29.19,24.02-41.93,42.53-4.63,6.72-9.19,14.17-13.58,22.14-.97,1.76-1.97,3.63-3.16,5.87-.27.48-.51.96-.76,1.44-5.19,9.91-10.08,20.18-14.81,30.11-8.58,18.01-17.44,36.61-28.38,53.72-3.15,4.93-6.49,9.71-9.94,14.19-5.64,7.35-11.65,14.07-17.89,19.96-6.17,5.83-12.62,10.93-19.18,15.15-.21.14-.46.21-.7.21"/>
      <path class="cls-5" d="M158.07,278.79c-.56,0-1.08-.37-1.24-.93-.19-.69.2-1.41.89-1.6,18.58-5.33,36.14-14.23,52.16-26.47.15-.1.23-.17.32-.23l.24-.18c13.19-10.16,24.84-22.22,34.6-35.84,11.59-16.15,20.02-33.75,25.04-52.29.19-.69.9-1.1,1.59-.91.69.19,1.1.9.91,1.59-5.1,18.84-13.66,36.71-25.44,53.12-9.9,13.83-21.73,26.08-35.15,36.41l-.21.16c-.13.1-.26.2-.39.28-16.22,12.4-34.06,21.45-52.95,26.87-.13.03-.24.05-.36.05"/>
      <path class="cls-5" d="M175.82,258.99c-.06,0-.11,0-.18-.02-.7-.09-1.2-.74-1.11-1.45,1.75-12.94,1.82-26.22.22-39.46-.1-.74-.19-1.5-.3-2.24-2.12-15.71-6.52-30.97-13.08-45.39-5.67-12.44-12.83-23.97-21.3-34.26-.45-.55-.37-1.37.18-1.82s1.36-.38,1.82.18c8.61,10.47,15.9,22.19,21.66,34.83,6.67,14.65,11.14,30.16,13.3,46.1.1.75.2,1.51.3,2.28,1.63,13.47,1.56,26.97-.22,40.13-.09.65-.64,1.12-1.28,1.12"/>
      <g class="cls-6">
        <path class="cls-5" d="M229.58,159.71c-.38,0-.76-.17-1.02-.49-5.21-6.59-7.42-16.11-5.78-24.85,1.9-10.16,8.43-19.93,18.4-27.52,3.89-2.96,8.28-5.64,13.42-8.17,5.46-2.72,11.23-5.01,16.16-6.89,1.34-.51,2.69-1.02,4.04-1.52,4.82-1.82,9.8-3.69,14.58-5.76.66-.28,1.42.02,1.7.68.29.65-.02,1.42-.68,1.7-4.84,2.09-9.85,3.97-14.7,5.8-1.34.51-2.69,1.01-4.03,1.52-4.86,1.86-10.57,4.11-15.93,6.79-4.99,2.47-9.24,5.05-13,7.92-9.46,7.2-15.65,16.41-17.43,25.94-1.51,8.03.51,16.76,5.27,22.78.44.56.35,1.38-.21,1.81-.24.19-.52.28-.8.28"/>
      </g>
      <g class="cls-4">
        <path class="cls-5" d="M228.81,161.16c-.69,0-1.27-.55-1.29-1.25-.02-.71.54-1.31,1.25-1.33.62-.02,1.24-.05,1.86-.1,11.89-.96,23.03-6.63,30.55-15.53,7.16-8.47,10.9-19.36,14.51-29.9,1.22-3.55,2.48-7.22,3.86-10.77,2.29-5.88,5-11.14,8.07-15.63.4-.59.82-1.17,1.24-1.74.43-.57,1.24-.69,1.81-.27.57.42.69,1.23.27,1.81-.4.55-.8,1.1-1.18,1.66-2.96,4.32-5.58,9.41-7.79,15.1-1.36,3.49-2.61,7.14-3.82,10.67-3.69,10.76-7.51,21.89-14.98,30.72-7.96,9.43-19.74,15.42-32.32,16.44-.66.05-1.33.09-1.98.1h-.04"/>
      </g>
      <path class="cls-5" d="M219.21,253.28c-2.94,0-5.82-.38-8.55-1.14-.11-.03-.26-.06-.4-.11-.68-.22-1.05-.95-.83-1.63.22-.68.95-1.05,1.63-.83.09.03.17.05.26.07,6.33,1.76,13.52,1.3,20.28-1.3,7.43-2.86,14.61-8.29,21.34-16.13,16.99-19.78,24.5-47.39,20.1-73.86-.12-.7.36-1.37,1.06-1.48.71-.11,1.38.35,1.49,1.06,4.53,27.21-3.21,55.61-20.69,75.96-7.02,8.16-14.54,13.83-22.38,16.85-4.36,1.67-8.91,2.52-13.31,2.52"/>
      <g class="cls-1">
        <path class="cls-5" d="M92.89,432.04c-.67,0-1.24-.53-1.29-1.2-2.2-30.82,11.98-59.63,25.7-87.49l1.27-2.57c7.55-15.34,15.11-31.85,19.26-48.58,3.72-14.94,4.34-28.32,1.89-40.91-.06-.34-.13-.67-.2-1.01l-.04-.2c-2.61-12.24-8.17-23.72-14.12-35.39l-1.16-2.25c-2.99-5.84-6.1-11.88-8.8-17.96-.4-.91-.8-1.82-1.18-2.73-.22-.51-.44-1.04-.65-1.58-2.96-7.19-5.47-14.8-7.45-22.61-2.83-11.21-4.54-22.8-5.06-34.44-.52-11.39.09-22.83,1.82-34.02.11-.71.77-1.19,1.48-1.08.7.1,1.19.77,1.08,1.47-1.71,11.02-2.31,22.29-1.79,33.51.52,11.47,2.19,22.89,4.98,33.93,1.95,7.68,4.42,15.18,7.34,22.28.21.53.41,1.03.63,1.53.38.91.77,1.81,1.16,2.69,2.67,6.01,5.75,12.02,8.73,17.82l1.16,2.26c6.03,11.82,11.67,23.47,14.34,36.02l.04.21c.07.35.15.69.22,1.05,2.53,12.95,1.9,26.7-1.92,42.02-4.21,16.96-11.84,33.62-19.45,49.09l-1.27,2.57c-13.56,27.55-27.59,56.04-25.44,86.17.05.71-.48,1.33-1.2,1.38-.03,0-.06,0-.09,0"/>
      </g>
      <path class="cls-5" d="M8.69,274.22c-.38,0-.75-.16-1.01-.48-.45-.55-.37-1.36.19-1.82,1.94-1.57,3.78-3.36,5.48-5.33,3.99-4.62,7.28-9.96,10.46-15.11,2.36-3.83,4.81-7.8,7.54-11.49,3.13-4.22,6.72-8.18,10.71-11.78,10.56-9.55,23.4-16.2,37.11-19.23,1.17-.26,2.38-.5,3.68-.71.63-.12,1.32-.22,2.22-.34,14.1-2.03,28.59-.31,41.89,4.98.67.26.99,1.02.72,1.68-.26.66-1.02.99-1.68.72-12.89-5.12-26.92-6.78-40.58-4.82-.86.11-1.52.21-2.13.33-1.28.21-2.43.44-3.57.69-13.28,2.93-25.71,9.38-35.94,18.62-3.86,3.48-7.35,7.32-10.37,11.4-2.67,3.6-5.09,7.52-7.43,11.31-3.23,5.24-6.57,10.67-10.7,15.44-1.8,2.08-3.76,3.98-5.81,5.65-.24.2-.53.29-.81.29"/>
      <path class="cls-5" d="M1.3,276.02c-.28,0-.57-.1-.81-.29-.56-.45-.65-1.26-.2-1.82,1.64-2.04,2.96-4.41,4.04-7.22,2.29-5.99,3.52-12.45,4.71-18.7.9-4.71,1.82-9.58,3.2-14.26.13-.43.24-.82.37-1.19,3.74-11.74,10.8-20.19,20.95-25.07,13.4-6.45,31.61-6.13,49.98.86.26.09.52.2.79.31l.23.09c.66.27.98,1.02.72,1.68-.27.66-1.02.98-1.69.72l-.24-.09c-.24-.1-.48-.2-.73-.29-17.72-6.75-35.19-7.09-47.95-.95-9.48,4.56-16.08,12.48-19.61,23.54-.12.37-.23.73-.33,1.09-1.35,4.59-2.27,9.4-3.15,14.04-1.21,6.36-2.46,12.95-4.83,19.15-1.18,3.07-2.64,5.67-4.44,7.92-.26.32-.63.49-1.01.49"/>
      <path class="cls-5" d="M1.3,276.02c-.62,0-1.17-.45-1.28-1.08-.13-.7.35-1.37,1.06-1.49,1.33-.23,2.69-.51,4.04-.84,1.06-.25,2.12-.56,3.16-.91,7.2-2.39,12.95-6.64,19.05-11.13,1.28-.94,2.56-1.9,3.88-2.84,9.26-6.65,17.35-13.41,24.76-20.64,3.16-3.09,5.72-6.38,8.43-9.88,1.34-1.72,2.73-3.51,4.19-5.27,4.48-5.38,9.19-9.54,14.81-13.11.37-.24.76-.48,1.15-.71.61-.38,1.43-.19,1.8.42.38.61.2,1.39-.41,1.76-.42.26-.79.48-1.15.71-5.4,3.43-9.91,7.43-14.22,12.58-1.44,1.72-2.81,3.49-4.14,5.2-2.65,3.4-5.38,6.92-8.66,10.14-7.49,7.32-15.69,14.16-25.06,20.89-1.31.94-2.59,1.89-3.85,2.82-6.26,4.62-12.18,8.98-19.76,11.5-1.1.38-2.24.7-3.37.97-1.4.34-2.82.64-4.21.88-.07.01-.15.02-.22.02"/>
      <path class="cls-5" d="M22.41,234.64c-1.01,0-2.05-.03-3.11-.1-.95-.06-1.95-.11-2.99-.16-.83-.04-1.69-.08-2.56-.14-.71-.04-1.26-.65-1.22-1.36.05-.71.65-1.26,1.37-1.22.86.05,1.71.09,2.53.14,1.06.05,2.07.1,3.04.17,8.72.57,15.6-1.48,23.05-4.02.68-.23,1.41.14,1.64.81.23.68-.13,1.41-.81,1.64-6.82,2.32-13.2,4.24-20.94,4.24"/>
      <path class="cls-5" d="M246.39,131.57s-.04,0-.06,0c-.71-.03-1.27-.64-1.23-1.35.58-12.72,3.53-22.9,9-31.1.4-.59,1.2-.76,1.8-.36s.76,1.2.36,1.79c-5.2,7.8-8.01,17.54-8.57,29.78-.03.7-.6,1.24-1.29,1.24"/>
      <path class="cls-5" d="M175.56,219.2c-.3,0-.61-.01-.94-.03-7.22-.35-14.47-4.69-20.94-12.54-9.91-12.01-15.7-29.2-16.11-39.28-.11-2.78-.19-5.56-.26-8.25-.22-8.86-.43-17.23-2.13-25.42-.15-.7.31-1.38,1.01-1.53.69-.15,1.39.31,1.53,1.01,1.75,8.41,1.96,16.9,2.18,25.88.07,2.68.14,5.45.25,8.2.4,9.67,5.98,26.18,15.53,37.75,6,7.27,12.6,11.28,19.09,11.6.45.03.84.04,1.21.02.73-.04,1.32.52,1.34,1.23.04.71-.52,1.32-1.23,1.35-.18,0-.35.01-.53.01"/>
      <path class="cls-5" d="M175.74,216.92c-.17,0-.34-.03-.5-.1-.66-.28-.97-1.04-.69-1.7,7.84-18.51,2.43-43.23-6.65-57.09-1.16-1.79-2.52-3.52-4.15-5.29-3.93-4.24-8.99-8.21-15.94-12.48-2.11-1.3-4.49-2.52-7.26-3.74-1.31-.58-2.72-1.16-4.58-1.91-.66-.27-.99-1.02-.72-1.68.27-.66,1.02-.98,1.68-.72,1.89.76,3.32,1.35,4.66,1.94,2.89,1.27,5.36,2.55,7.58,3.9,7.15,4.4,12.39,8.51,16.49,12.94,1.72,1.89,3.17,3.72,4.41,5.63,9.44,14.42,15.05,40.18,6.86,59.52-.21.49-.69.79-1.19.79"/>
      <path class="cls-5" d="M246.08,215.56c-.08,0-.17,0-.25-.03-.7-.14-1.16-.82-1.02-1.52,1.71-8.63,1.59-18.05-.38-28.8-.13-.7.34-1.38,1.04-1.5.69-.13,1.38.33,1.51,1.04,2.03,11.08,2.15,20.82.38,29.77-.13.62-.67,1.04-1.27,1.04"/>
    </g>
  </g>
</svg>