<?xml version="1.0" encoding="UTF-8"?>
<svg id="Layer_2" data-name="Layer 2" xmlns="http://www.w3.org/2000/svg" xmlns:xlink="http://www.w3.org/1999/xlink" viewBox="0 0 313.14 382">
  <defs>
    <style>
      .cls-1 {
        clip-path: url(#clippath-4);
      }

      .cls-2 {
        fill: none;
      }

      .cls-3 {
        clip-path: url(#clippath-1);
      }

      .cls-4 {
        clip-path: url(#clippath-3);
      }

      .cls-5 {
        fill: #293731;
      }

      .cls-6 {
        clip-path: url(#clippath-2);
      }

      .cls-7 {
        clip-path: url(#clippath);
      }
    </style>
    <clipPath id="clippath">
      <rect class="cls-2" x="215.05" y="98.24" width="98.09" height="111.46"/>
    </clipPath>
    <clipPath id="clippath-1">
      <rect class="cls-2" x="155.92" y="199.51" width="52" height="182.49"/>
    </clipPath>
    <clipPath id="clippath-2">
      <rect class="cls-2" x="102.95" y="215.81" width="57.95" height="166.18"/>
    </clipPath>
    <clipPath id="clippath-3">
      <rect class="cls-2" x="142.6" y="71.53" width="23.64" height="310.46"/>
    </clipPath>
    <clipPath id="clippath-4">
      <rect class="cls-2" x="162.59" width="97.33" height="75.51"/>
    </clipPath>
  </defs>
  <g id="Layer_1-2" data-name="Layer 1">
    <g>
      <path class="cls-5" d="M292.26,54.34s-.03,0-.04,0c-.64-.02-1.13-.55-1.1-1.18.48-14.46-6.97-31.05-18.11-40.33-4.73-3.95-9.55-7.04-14.75-9.45-.57-.27-.82-.95-.56-1.52.27-.57.95-.82,1.52-.56,5.39,2.5,10.37,5.69,15.25,9.77,11.66,9.7,19.44,27.04,18.93,42.17-.02.62-.53,1.11-1.14,1.11"/>
      <path class="cls-5" d="M199.39,68c-.27,0-.55-.09-.76-.29-.47-.42-.52-1.15-.09-1.61,2.87-3.21,5.85-6.16,8.47-8.77l1.54-1.53c9.18-9.16,16.58-15.98,28.25-20.41,8.28-3.15,15.45-4.63,25.54-2.27,13.68,3.19,21.91,9.74,30.76,19.29.43.46.41,1.19-.06,1.62-.46.43-1.18.4-1.61-.06-8.56-9.23-16.49-15.56-29.6-18.62-8.45-1.97-14.79-1.4-24.21,2.18-11.25,4.27-18.47,10.93-27.45,19.89l-1.55,1.54c-2.6,2.58-5.55,5.51-8.38,8.66-.23.26-.54.38-.85.38"/>
      <path class="cls-5" d="M304.83,110.58c-.52,0-.98-.35-1.11-.87-5.29-21.52-13.29-54.04-36.81-59.87-10.18-2.52-20.55-.04-29.19,6.98-2.1,1.71-4.7,4.54-7.45,7.53-7.54,8.21-16.92,18.44-25.62,16.33-2.6-.64-4.52-1.94-5.69-3.88-1.52-2.49-1.74-5.93-.68-10.22.15-.61.77-.98,1.39-.83.61.15.98.77.83,1.39-.9,3.62-.75,6.55.42,8.48.86,1.42,2.26,2.35,4.28,2.84.6.15,1.22.21,1.85.21,6.98,0,15-8.73,21.55-15.87,2.81-3.05,5.45-5.94,7.69-7.75,9.21-7.48,20.29-10.12,31.18-7.42,24.86,6.17,33.06,39.49,38.48,61.54.15.61-.22,1.23-.84,1.39-.09.02-.18.03-.27.03"/>
      <g class="cls-7">
        <path class="cls-5" d="M283.18,209.62c-.32,0-.64-.14-.86-.39-.41-.48-.36-1.2.11-1.62,9.98-8.7,19.15-22.24,23.96-31.18,6.2-11.48,5.06-26.41,1.93-36.56-3.95-12.83-16.46-31.96-29.7-34.47-14.85-2.81-26.07,1.7-39.07,6.93-.92.37-1.85.74-2.79,1.12-4.38,1.76-13.88,3.95-18.55-.29-3.74-3.4-3.41-8.49.9-13.97.39-.5,1.11-.58,1.61-.19s.58,1.11.19,1.61c-2.49,3.17-4.72,7.63-1.16,10.86,3.55,3.22,11.61,1.68,16.16-.14.94-.38,1.86-.75,2.78-1.12,13.33-5.36,24.85-10,40.35-7.06,8.3,1.58,15.32,8.63,19.74,14.27,5.17,6.58,9.55,14.72,11.72,21.78,3.27,10.59,4.43,26.22-2.11,38.32-4.9,9.11-14.25,22.92-24.47,31.83-.21.19-.48.28-.75.28"/>
      </g>
      <path class="cls-5" d="M304.83,110.58c-.31,0-.62-.13-.84-.37-13.45-14.71-27.76-21.83-42.52-21.17-13.97.64-28.11,4.74-40.9,11.85-.55.3-1.24.1-1.55-.45-.31-.55-.11-1.25.44-1.56,13.1-7.28,27.59-11.47,41.91-12.13,15.47-.71,30.38,6.67,44.31,21.91.43.47.39,1.19-.07,1.62-.22.2-.49.3-.77.3"/>
      <path class="cls-5" d="M283.18,209.62c-.53,0-1.01-.37-1.12-.91-5.31-25.21-20.5-49.18-38.7-61.07-4.65-3.04-13.67-8.26-21.82-9.1-.63-.06-1.08-.63-1.02-1.26s.63-1.09,1.26-1.02c8.64.89,18.01,6.31,22.83,9.46,18.68,12.2,34.27,36.74,39.69,62.51.13.63-.27,1.23-.89,1.36-.08.02-.16.03-.23.03"/>
      <path class="cls-5" d="M277.95,233.61c-.61,0-1.13-.49-1.15-1.11-.64-21.29-14.63-44.6-37.41-62.36-2.22-1.73-5.23-3.25-8.43-4.87-7.32-3.71-15.63-7.91-16.83-16.2-.71-4.81,1.74-9.31,6.89-12.64.53-.34,1.24-.19,1.58.34s.19,1.24-.34,1.58c-2.53,1.64-6.64,5.16-5.88,10.39,1.04,7.11,8.44,10.86,15.6,14.48,3.29,1.67,6.4,3.24,8.79,5.1,23.32,18.17,37.64,42.13,38.3,64.1.02.64-.48,1.16-1.11,1.18h-.03"/>
      <path class="cls-5" d="M223.2,299.14c-.4,0-.78-.21-.99-.58-.31-.55-.13-1.25.42-1.56,8.21-4.72,14.55-12.78,17.38-22.11.54-1.77.99-3.54,1.43-5.25,1.75-6.84,3.41-13.29,10.05-18.57,2.91-2.31,6.29-3.68,9.55-5.01,3.64-1.48,7.08-2.88,9.85-5.45,2.69-2.51,4.66-5.31,6.01-8.57.24-.58.91-.86,1.49-.61.58.24.86.91.61,1.49-1.48,3.57-3.63,6.64-6.56,9.36-3.08,2.86-6.88,4.41-10.55,5.9-3.26,1.33-6.34,2.58-8.99,4.68-6.04,4.8-7.53,10.62-9.26,17.35-.44,1.74-.9,3.53-1.46,5.35-2.99,9.89-9.71,18.43-18.42,23.43-.18.1-.38.16-.57.16"/>
      <path class="cls-5" d="M223.2,299.14c-.63,0-1.14-.51-1.15-1.13-.04-3.08-.03-6.19-.02-9.19.05-14.57.09-28.34-4.79-42.5-6.28-18.2-17.61-33.44-32.78-44.06-.52-.36-.65-1.07-.28-1.59.36-.52,1.07-.65,1.59-.28,15.56,10.9,27.19,26.53,33.63,45.19,5,14.53,4.95,29.14,4.91,43.26-.01,2.99-.02,6.09.02,9.15.01.63-.49,1.15-1.13,1.16h-.01"/>
      <g class="cls-3">
        <path class="cls-5" d="M158.33,381.37c-.17,0-.35-.04-.52-.13-.56-.29-.78-.98-.49-1.54l.14-.27c.12-.24.24-.48.38-.71,5.38-10.4,12.61-21.03,21.48-31.58,1.74-2.07,3.56-4.12,5.48-6.3,6.37-7.19,12.96-14.62,16.86-22.89,5.86-12.39,5.23-29.2-1.89-49.96-1.72-5.01-3.57-9.86-5.35-14.56-6.53-17.17-12.7-33.38-10.43-52.26.07-.63.66-1.07,1.27-1,.63.08,1.07.65.99,1.28-2.2,18.32,3.87,34.28,10.3,51.17,1.79,4.71,3.65,9.58,5.38,14.63,7.32,21.35,7.93,38.74,1.8,51.69-4.05,8.56-10.74,16.13-17.22,23.43-1.91,2.16-3.72,4.2-5.45,6.26-8.76,10.41-15.9,20.91-21.22,31.19-.14.24-.24.45-.34.66l-.15.29c-.2.4-.6.62-1.02.62"/>
      </g>
      <g class="cls-6">
        <path class="cls-5" d="M159.07,381.98c-.25,0-.5-.08-.71-.25-.25-.2-.51-.41-.76-.63-13.34-10.99-26.47-23.48-39.01-37.11-12.16-13.21-17.01-27.41-15.27-44.68,2.13-21.19,9.4-37.24,25.08-55.41,3.84-4.44,10.98-12.71,10.01-19.16-.37-2.42-1.82-4.38-4.44-6-.33-.21-.67-.39-1-.55-.58-.26-.83-.93-.58-1.51.26-.58.93-.84,1.51-.58.44.2.88.43,1.29.7,3.16,1.96,5.01,4.52,5.48,7.59,1.14,7.49-6.17,15.95-10.54,21.01-15.34,17.77-22.45,33.46-24.53,54.14-1.68,16.57,2.98,30.2,14.67,42.9,12.47,13.55,25.52,25.97,38.79,36.91.24.2.48.4.72.59.49.4.58,1.12.18,1.61-.22.28-.56.43-.9.43"/>
      </g>
      <path class="cls-5" d="M89.77,328.01c-.6,0-1.1-.47-1.14-1.08-1.32-24.25,3.35-52.47,12.22-73.65,5.64-13.46,15.47-24.89,31.91-37.03.51-.38,1.22-.27,1.6.24.38.51.27,1.22-.24,1.6-16.09,11.89-25.7,23.02-31.16,36.08-8.73,20.88-13.35,48.71-12.04,72.64.03.63-.45,1.17-1.08,1.2-.02,0-.04,0-.06,0"/>
      <path class="cls-5" d="M89.77,328.01c-.21,0-.43-.06-.62-.19-1.54-1-3.33-1.37-5.23-1.76-2.34-.48-4.76-.98-7.02-2.67-1.93-1.44-2.68-3.16-3.41-4.82-.31-.72-.64-1.46-1.07-2.21-4.23-7.41-8.7-10.69-15.46-15.66l-1.47-1.08c-8.71-6.43-13.87-14.56-14.92-23.52-1.19-10.13,2.89-21.31,11.48-31.52,2.8-3.33,6.59-6.17,10.26-8.93,7.05-5.3,13.71-10.31,14.58-18.63.28-2.57-.04-4.87-.94-6.85-.27-.57-.01-1.26.57-1.52.57-.26,1.25-.01,1.51.57,1.07,2.36,1.46,5.07,1.14,8.04-.97,9.31-8.35,14.85-15.48,20.21-3.72,2.8-7.24,5.45-9.88,8.58-8.18,9.71-12.07,20.28-10.95,29.77.99,8.44,5.71,15.82,14.01,21.95l1.46,1.08c6.74,4.96,11.62,8.54,16.09,16.37.48.85.84,1.66,1.18,2.43.69,1.58,1.23,2.83,2.68,3.91,1.85,1.39,3.92,1.81,6.11,2.26,2.03.42,4.13.85,6.02,2.09.53.34.68,1.05.33,1.58-.21.33-.58.52-.96.52"/>
      <path class="cls-5" d="M30,258.21c-.12,0-.24-.02-.35-.06-.6-.2-.93-.85-.73-1.45,5.09-15.43,15.94-29.6,31.38-41,4.5-3.32,10.46-7.14,16.69-7.16h0c.63,0,1.14.51,1.14,1.14s-.51,1.15-1.14,1.15c-5.56.02-11.11,3.6-15.34,6.71-15.05,11.11-25.61,24.91-30.55,39.88-.16.48-.61.79-1.09.79"/>
      <path class="cls-5" d="M30,258.21c-.6,0-1.11-.47-1.14-1.08-.3-5.45-.72-10.33-2.92-14.91-2.32-4.84-5.11-5.7-8.98-6.89-1.49-.46-3.18-.98-4.95-1.8C-.87,227.65-.7,208.8.55,198.08c.07-.63.65-1.07,1.27-1.01.63.07,1.08.65,1.01,1.27-2.73,23.52,5.18,30.84,10.14,33.1,1.65.74,3.19,1.22,4.68,1.69,3.92,1.21,7.61,2.35,10.37,8.08,2.38,4.95,2.84,10.29,3.15,15.78.03.63-.45,1.17-1.08,1.21h-.06"/>
      <path class="cls-5" d="M1.68,199.36c-.18,0-.35-.04-.52-.13-.56-.29-.79-.97-.51-1.54,15.8-31.22,48-49.44,65.79-57.53,1.7-.78,3.86-1.41,6.16-2.08,7.73-2.26,13.61-4.41,13.21-9.82-.05-.63.43-1.18,1.06-1.22.63-.04,1.17.43,1.22,1.06.56,7.69-7.98,10.19-14.85,12.19-2.21.65-4.31,1.26-5.85,1.96C26.59,160.8,9.35,185.6,2.7,198.73c-.2.4-.6.63-1.02.63"/>
      <g class="cls-4">
        <path class="cls-5" d="M159.07,381.98c-.55,0-1.04-.4-1.13-.96l-1.05-6.62c-5.93-37.37-12.06-76.02-13.67-114.22-1.62-38.42,2.67-77.63,7.08-110.91.54-4.06,1.06-8.19,1.58-12.37,2.41-19.14,4.91-38.93,9.64-57.64.57-2.26,1.13-4.35,1.71-6.36l.12-.43c.17-.6.81-.96,1.41-.79.61.18.96.81.79,1.42l-.12.43c-.58,1.99-1.13,4.05-1.69,6.29-4.7,18.57-7.19,38.29-9.59,57.36-.53,4.18-1.05,8.32-1.59,12.39-4.39,33.18-8.67,72.26-7.06,110.51,1.6,38.07,7.73,76.65,13.65,113.96l1.05,6.61c.1.63-.32,1.21-.95,1.31-.06.01-.12.02-.18.02"/>
      </g>
      <path class="cls-5" d="M1.29,148.61c-.06,0-.11,0-.17-.01-.63-.09-1.06-.67-.97-1.3,1.06-7.39,3.83-14.42,6.51-21.22.86-2.18,1.75-4.44,2.56-6.67l.68-1.85c4.59-12.58,10.31-28.24,20.98-36.91,8.92-7.24,21.98-9.24,31.36-9.64,11.22-.48,21.58,1.45,31.22,3.46,17.13,3.58,29.14,4.94,43.6,1.88.62-.13,1.23.27,1.36.89s-.27,1.23-.88,1.36c-14.86,3.15-27.13,1.77-44.55-1.88-9.5-1.98-19.69-3.88-30.66-3.41-9.04.39-21.59,2.29-30.02,9.13-10.18,8.27-15.78,23.6-20.27,35.92l-.68,1.85c-.82,2.24-1.72,4.52-2.58,6.71-2.63,6.68-5.35,13.58-6.38,20.71-.08.57-.57.98-1.13.98"/>
      <path class="cls-5" d="M156.5,60.32c-.34,0-.69-.16-.91-.45-.82-1.08-1.66-2.22-2.64-3.59-.36-.52-.24-1.23.27-1.6.52-.36,1.23-.24,1.6.27.96,1.35,1.78,2.47,2.59,3.53.38.51.29,1.22-.21,1.6-.21.16-.45.24-.69.24"/>
      <path class="cls-5" d="M153.82,56.66c-.35,0-.71-.17-.93-.48-.99-1.4-1.89-2.7-2.65-3.81-.63-.92-1.17-1.7-1.6-2.3-8.54-11.82-17.95-23.93-30.82-30.54-15.11-7.77-32.16-9.07-46.76-3.58-9.73,3.66-16.78,11.57-23.6,19.22-1.12,1.26-2.23,2.51-3.36,3.74-.43.47-1.15.5-1.61.07-.47-.43-.5-1.15-.08-1.62,1.13-1.22,2.23-2.47,3.35-3.72,7-7.86,14.24-15.99,24.51-19.84,15.2-5.72,32.92-4.38,48.6,3.68,13.31,6.84,22.92,19.19,31.63,31.24.44.61.98,1.41,1.63,2.34.76,1.1,1.64,2.39,2.63,3.78.37.52.24,1.23-.27,1.59-.2.15-.43.22-.66.22"/>
      <path class="cls-5" d="M137.31,78.62c-.38,0-.76-.19-.97-.54-.59-.96-1.54-1.95-2.83-2.96-2.9-2.26-6.2-4.21-9.39-6.1-2.18-1.29-4.44-2.63-6.57-4.06-10.14-6.82-45.42-28.82-74.17-25.69-.63.07-1.19-.39-1.26-1.01-.07-.63.39-1.19,1.02-1.27,29.51-3.21,65.39,19.14,75.69,26.06,2.07,1.4,4.3,2.71,6.46,3.99,3.26,1.93,6.61,3.92,9.63,6.27,1.51,1.18,2.64,2.38,3.38,3.56.33.54.17,1.24-.37,1.58-.19.11-.4.17-.6.17"/>
      <path class="cls-5" d="M4.65,149.88c-1.72,0-3.11-.53-4.18-1.6-.44-.45-.44-1.17.01-1.62s1.17-.44,1.61,0c1.66,1.67,4.91.76,7.34-.3,3.15-1.36,5.96-3.48,8.68-5.52,1.49-1.13,3.05-2.29,4.65-3.33,1.22-.79,2.5-1.63,3.82-2.5,7.17-4.73,15.29-10.1,22.69-12.82,18.15-6.69,29.16-1.52,38.36,5.06.52.37.64,1.08.27,1.6-.36.52-1.08.64-1.59.27-10.04-7.19-20.05-10.75-36.24-4.78-7.16,2.63-15.16,7.91-22.22,12.58-1.32.87-2.6,1.72-3.83,2.52-1.54.99-3.05,2.14-4.52,3.24-2.82,2.12-5.74,4.32-9.14,5.79-2.18.94-4.08,1.41-5.69,1.41"/>
      <g class="cls-1">
        <path class="cls-5" d="M164.33,74.37c-.32,0-.64-.13-.86-.39-.42-.47-.37-1.2.1-1.61.03-.03.06-.05.08-.08l.09-.1c.44-.45.89-.9,1.33-1.36.45-.45.9-.9,1.34-1.35,1.55-1.58,3.38-3.43,5.18-5.31.65-.67,1.28-1.33,1.91-2.01,3.24-3.44,6.03-7,8.97-10.77.69-.88,1.38-1.77,2.08-2.65,1.92-2.42,3.8-4.89,5.79-7.5,4.03-5.28,8.2-10.74,12.7-15.86,8.45-9.63,16.28-15.92,24.63-19.83,1.66-.8,3.45-1.52,5.3-2.15,7.45-2.52,15.9-3.42,23.8-2.53.82.09,1.54.2,2.21.34.61.13,1.02.73.89,1.35-.13.62-.73,1.02-1.35.89-.61-.13-1.25-.23-2.01-.31-7.56-.85-15.66,0-22.8,2.42-1.77.6-3.47,1.29-5.06,2.05-8.06,3.77-15.65,9.9-23.89,19.27-4.44,5.06-8.58,10.49-12.59,15.75-1.99,2.61-3.88,5.09-5.81,7.53-.7.88-1.39,1.76-2.07,2.64-2.85,3.65-5.8,7.42-9.11,10.93-.64.68-1.28,1.35-1.93,2.02-1.8,1.88-3.64,3.74-5.19,5.32-.44.45-.89.91-1.34,1.36s-.9.91-1.34,1.36l-.06.06c-.07.07-.15.15-.23.22-.21.19-.48.29-.75.29"/>
      </g>
      <path class="cls-5" d="M163.45,73.31h0,0ZM164.56,74.15c-.47,0-.9-.29-1.07-.74-.02-.04-.05-.09-.06-.1-.35-.72-.75-1.41-1.18-2.15-.46-.81-.95-1.66-1.38-2.55-1.35-2.8-3.04-5.59-5.3-8.78-.76-1.08-1.6-2.23-2.59-3.53-.03-.03-.04-.06-.06-.09-.02-.02-.04-.06-.05-.07-.35-.53-.21-1.23.31-1.59s1.23-.21,1.59.31c0,0,.03.04.07.1.99,1.3,1.84,2.46,2.6,3.54,2.34,3.29,4.09,6.19,5.49,9.1.39.81.86,1.62,1.3,2.4.42.73.85,1.48,1.24,2.26.04.06.13.21.18.41.17.61-.18,1.24-.79,1.41-.1.03-.21.04-.31.04"/>
      <path class="cls-5" d="M134.4,174.28c-1.47,0-3.04.32-4.57,1-4.52,2.01-6.98,6.37-5.49,9.73s6.38,4.46,10.89,2.46c4.52-2.01,6.98-6.37,5.49-9.73-.98-2.22-3.46-3.46-6.32-3.46ZM130.71,190.74c-3.78,0-7.1-1.73-8.46-4.81-2-4.51.99-10.23,6.66-12.75,5.67-2.52,11.91-.89,13.91,3.63,2,4.51-.98,10.23-6.66,12.74-1.81.81-3.68,1.19-5.45,1.19"/>
      <path class="cls-5" d="M116.51,144.35c-4.45,0-9.64,1.1-14.73,3.36-11.82,5.24-19.16,14.65-16.36,20.96s14.69,7.19,26.51,1.94c5.83-2.58,10.74-6.27,13.83-10.35,2.94-3.9,3.84-7.67,2.54-10.61-1.55-3.49-6.06-5.3-11.78-5.3ZM97.14,176.34c-6.63,0-11.85-2.31-13.81-6.73-3.36-7.6,4.33-18.14,17.53-23.99s26.16-4.48,29.53,3.11c1.65,3.73.66,8.32-2.8,12.91-3.32,4.4-8.55,8.33-14.73,11.07-5.51,2.45-10.97,3.63-15.71,3.63"/>
      <path class="cls-5" d="M202.31,189.7h.01-.01ZM188.76,160.59c-2.28,0-4.38.65-6.13,1.92-2.67,1.93-4.22,5.1-4.37,8.91-.16,3.92,1.17,8.03,3.74,11.57,5.24,7.24,14.05,9.84,19.64,5.78,5.59-4.05,5.88-13.24.63-20.48-2.57-3.55-6.06-6.09-9.82-7.17-1.26-.35-2.5-.54-3.69-.54ZM195.53,192.96c-5.46,0-11.38-3.09-15.39-8.63-2.87-3.96-4.35-8.58-4.17-13.01.18-4.53,2.07-8.32,5.31-10.67s7.43-2.97,11.79-1.73c4.26,1.21,8.19,4.06,11.05,8.02,5.98,8.27,5.47,18.89-1.14,23.69-2.19,1.58-4.77,2.33-7.45,2.33"/>
      <path class="cls-5" d="M199.69,126.27c-1.08,0-2.07.3-2.89.9-1.26.91-1.99,2.42-2.07,4.24-.07,1.93.58,3.96,1.86,5.72,2.57,3.55,6.84,4.85,9.52,2.91s2.78-6.41.21-9.96c-1.28-1.76-2.99-3.02-4.85-3.54-.61-.18-1.21-.26-1.78-.26ZM206.78,140.96h0,0ZM203.23,143.21c-3.03,0-6.3-1.7-8.5-4.74-1.57-2.17-2.39-4.71-2.29-7.15.1-2.55,1.17-4.68,3.01-6.01,1.84-1.33,4.2-1.68,6.64-.98,2.34.66,4.51,2.23,6.08,4.4,3.31,4.57,2.98,10.48-.72,13.16-1.24.9-2.7,1.33-4.22,1.33"/>
      <path class="cls-5" d="M139.59,94.52c-1.29,0-2.66.28-3.99.87-1.98.88-3.57,2.31-4.47,4.01-.85,1.62-.97,3.29-.35,4.71.63,1.42,1.95,2.45,3.72,2.91,1.87.48,3.99.26,5.97-.63s3.57-2.31,4.47-4.01c.85-1.62.98-3.29.35-4.71-.9-2.02-3.13-3.15-5.7-3.15ZM136.5,109.55c-.88,0-1.74-.1-2.57-.32-2.46-.63-4.32-2.12-5.24-4.2-.92-2.07-.77-4.45.42-6.7,1.14-2.16,3.11-3.95,5.57-5.04,5.15-2.29,10.86-.74,12.71,3.45.92,2.07.78,4.46-.42,6.7-1.14,2.16-3.11,3.95-5.57,5.04-1.59.7-3.27,1.07-4.9,1.07"/>
    </g>
  </g>
</svg>