<?xml version="1.0" encoding="UTF-8"?>
<svg id="Layer_2" data-name="Layer 2" xmlns="http://www.w3.org/2000/svg" xmlns:xlink="http://www.w3.org/1999/xlink" viewBox="0 0 461.16 431.96">
  <defs>
    <style>
      .cls-1 {
        fill: none;
      }

      .cls-2 {
        clip-path: url(#clippath);
      }

      .cls-3 {
        fill: #7daa7b;
      }
    </style>
    <clipPath id="clippath">
      <rect class="cls-1" x="358.5" y="378.06" width="102.66" height="53.85"/>
    </clipPath>
  </defs>
  <g id="Layer_1-2" data-name="Layer 1">
    <g>
      <path class="cls-3" d="M267.43,195.03c-.54,0-1.06-.32-1.28-.86l-.58-1.41c-1.08-2.61-2.2-5.32-2.83-8.22-1.56-7.21-2.13-15.3-1.69-24.04.31-6.35,2.26-12.32,4.13-18.09.95-2.92,1.93-5.93,2.68-8.94.82-3.31,1.54-6.79,2.14-10.33.13-.76.84-1.26,1.59-1.13.76.13,1.26.84,1.14,1.59-.6,3.62-1.34,7.17-2.18,10.54-.77,3.11-1.77,6.17-2.73,9.13-1.91,5.85-3.7,11.39-4,17.38-.43,8.49.13,16.34,1.64,23.31.58,2.66,1.6,5.13,2.68,7.74l.58,1.43c.29.71-.05,1.52-.76,1.8-.17.07-.35.1-.52.1"/>
      <path class="cls-3" d="M267.59,195.46c-.56,0-1.09-.35-1.3-.92-.04-.11-.08-.22-.12-.31-.32-.7-.02-1.52.68-1.83.69-.32,1.52-.02,1.83.68.08.17.15.35.21.53.26.72-.11,1.51-.83,1.77-.16.06-.31.08-.47.08"/>
      <path class="cls-3" d="M267.6,195.46c-.36,0-.73-.15-1-.43-.53-.56-.51-1.43.05-1.96,4.78-4.55,7.67-13.09,9.67-20.03,1.63-5.69,2.26-12.36,1.76-18.8-.32-4.16-1.51-8.41-2.65-12.52-.7-2.52-1.42-5.11-1.94-7.69-.6-2.93-1.82-6.06-2.99-9.08l-.43-1.09c-.27-.71.08-1.51.79-1.79.71-.27,1.52.08,1.79.79l.42,1.09c1.21,3.13,2.48,6.38,3.13,9.53.51,2.48,1.21,5.04,1.9,7.51,1.18,4.24,2.39,8.62,2.73,13.05.52,6.76-.14,13.78-1.86,19.78-2.09,7.27-5.16,16.26-10.42,21.27-.27.26-.61.38-.95.38"/>
      <path class="cls-3" d="M275.48,239.95c-.4,0-.79-.18-1.07-.51-7.86-9.59-18.63-17.61-29.9-25.66-.62-.44-.77-1.31-.32-1.93.44-.62,1.3-.76,1.93-.32,11.42,8.16,22.34,16.31,30.42,26.15.48.59.4,1.46-.19,1.95-.26.21-.56.32-.88.32"/>
      <path class="cls-3" d="M245.32,214.04c-.27,0-.55-.08-.79-.26l-1.47-1.04c-.63-.44-.77-1.31-.33-1.93.44-.63,1.3-.78,1.93-.34l1.46,1.04c.63.44.78,1.31.34,1.93-.27.39-.7.59-1.14.59"/>
      <path class="cls-3" d="M245.03,213.26c-.11,0-.22-.02-.33-.04-.38-.09-.75-.18-1.13-.26-1.83-.41-3.66-.81-5.48-1.2-17.62-3.83-35.83-7.79-50.77-19.29-8.01-6.16-14.09-14.51-19.98-22.57-2.7-3.7-5.49-7.53-8.42-11.06-.49-.59-.41-1.46.18-1.95.59-.48,1.46-.4,1.94.19,2.98,3.6,5.8,7.46,8.52,11.19,5.78,7.91,11.75,16.09,19.44,22.02,14.44,11.11,32.34,15.01,49.66,18.78,1.83.4,3.66.8,5.48,1.2.39.08.8.18,1.2.28.74.18,1.2.93,1.02,1.67-.15.63-.71,1.06-1.34,1.06"/>
      <path class="cls-3" d="M245.32,214.04c-.63,0-1.16-.42-1.33-1l-.25-.69c-.26-.72.11-1.51.83-1.77.71-.26,1.51.11,1.77.83l.28.77c.05.15.08.31.08.47,0,.77-.62,1.39-1.39,1.39"/>
      <path class="cls-3" d="M245.03,213.26c-.56,0-1.08-.34-1.29-.9-6.21-16.36-24.73-30.61-39.17-39.68-7.6-4.77-15.73-7.51-25.61-10.15-3.81-1.02-8.57-1.69-13.17-2.33-2.12-.3-4.12-.58-6.03-.89-.76-.12-1.27-.83-1.14-1.59s.83-1.27,1.59-1.14c1.88.31,3.86.58,5.96.88,4.68.66,9.53,1.33,13.5,2.4,10.11,2.71,18.47,5.53,26.36,10.48,14.8,9.3,33.8,23.96,40.29,41.04.27.72-.09,1.52-.8,1.79-.16.06-.33.09-.49.09"/>
      <path class="cls-3" d="M339.38,316.15c-.61,0-1.17-.41-1.34-1.03-.12-.45-.22-.9-.34-1.34l-.19-.78c-2.95-12.27-4.88-25.73.89-41.19,3.2-8.59,8.59-16.27,13.8-23.7,3.97-5.67,8.08-11.54,11.08-17.65.33-.69,1.16-.97,1.84-.64.69.33.97,1.16.64,1.85-3.09,6.31-7.27,12.26-11.3,18.02-5.1,7.28-10.39,14.82-13.46,23.07-5.51,14.77-3.64,27.74-.79,39.56l.19.79c.1.43.21.86.33,1.3.19.74-.24,1.49-.98,1.69-.12.04-.24.05-.35.05"/>
      <path class="cls-3" d="M310.62,275.08c-.75,0-1.37-.61-1.38-1.36-.03-1.4-.06-2.78-.1-4.17-.1-4.32-.23-8.65-.36-12.94-1.33-41.18,1.7-82.09,9.24-125.07.14-.75.85-1.25,1.6-1.13.76.14,1.26.85,1.13,1.6-7.52,42.79-10.53,83.52-9.21,124.51.13,4.3.26,8.63.36,12.95.05,1.4.08,2.8.1,4.21.02.77-.59,1.39-1.36,1.41h-.02"/>
      <path class="cls-3" d="M311.19,316.72c-.76,0-1.38-.61-1.38-1.38-.07-14.49-.26-28.49-.57-41.61-.02-.76.58-1.4,1.35-1.42.76,0,1.4.59,1.41,1.35.32,13.14.51,27.15.57,41.66,0,.77-.61,1.39-1.38,1.39h0"/>
      <path class="cls-3" d="M311.16,273.43c-.63,0-1.2-.43-1.35-1.07-.19-.83-.41-1.66-.63-2.49-2.28-8.57-5.3-16.7-8.5-25.31-2.03-5.47-4.13-11.13-6.08-17.04-4.08-12.33-4.07-24.66.04-39.97,5.4-20.21,13.09-40.53,22.23-58.74.34-.68,1.18-.96,1.85-.61.69.34.96,1.17.62,1.85-9.06,18.05-16.68,38.18-22.04,58.21-3.96,14.76-3.98,26.6-.08,38.39,1.94,5.88,4.03,11.5,6.05,16.95,3.22,8.67,6.27,16.87,8.58,25.56.23.85.45,1.71.66,2.58.17.75-.3,1.49-1.04,1.66-.1.02-.21.04-.31.04"/>
      <path class="cls-3" d="M360.68,381.05c-.34,0-.68-.12-.94-.38-1.7-1.58-3.41-3.25-5.23-5.08-7.69-7.72-15.14-16.31-22.14-25.54-7.79-10.27-15.32-21.72-22.38-34.03-5.27-9.18-10.49-19.19-15.52-29.75-.94-1.96-1.88-3.94-2.79-5.92-5.59-12.11-11.31-25.61-17.49-41.28-1.63-4.13-3.35-8.55-5.26-13.53-1.74-4.53-3.52-9.21-5.28-13.93-6.36-16.96-12.57-34.17-18.45-51.16-.25-.72.13-1.51.85-1.76.72-.25,1.51.13,1.76.85,5.88,16.96,12.08,34.16,18.43,51.09,1.76,4.7,3.53,9.38,5.27,13.91,1.91,4.97,3.63,9.39,5.25,13.5,6.16,15.62,11.86,29.08,17.42,41.14.92,1.97,1.84,3.93,2.78,5.89,5,10.5,10.19,20.45,15.42,29.57,7,12.2,14.46,23.55,22.19,33.73,6.93,9.13,14.29,17.63,21.89,25.26,1.8,1.81,3.48,3.45,5.16,5.01.56.53.59,1.4.06,1.96-.27.29-.64.44-1.01.44"/>
      <path class="cls-3" d="M246.5,161.38c-.57,0-1.1-.35-1.3-.93-1.16-3.33-2.3-6.67-3.44-10l-.67-1.95c-2.08-6.11-3.78-11.17-5.35-15.93-12.82-38.66-24.68-78.13-35.26-117.33-.2-.74.24-1.49.97-1.7.74-.2,1.5.24,1.7.98,10.56,39.15,22.41,78.57,35.21,117.18,1.57,4.74,3.28,9.8,5.35,15.91l.67,1.95c1.13,3.32,2.28,6.66,3.43,9.98.25.72-.13,1.52-.85,1.77-.15.05-.3.07-.46.07"/>
      <path class="cls-3" d="M116.35,37.7c-.56,0-1.09-.34-1.3-.9-4.09-10.95-9.66-19.1-16.54-24.22l-1.18-.88c-4.37-3.27-8.89-6.65-14.02-8.14-.54-.16-1.11-.29-1.74-.39-.56-.1-1.08-.19-1.59-.26-.22-.03-.47-.06-.71-.09l-.59-.08c-.76-.09-1.3-.78-1.21-1.54.09-.76.79-1.3,1.54-1.21l.61.08c.23.03.46.06.7.09.59.08,1.16.17,1.73.28.71.12,1.39.27,2.04.46,5.6,1.63,10.33,5.16,14.9,8.57l1.17.88c7.32,5.45,13.2,14.02,17.48,25.47.27.72-.1,1.52-.81,1.78-.16.06-.32.08-.48.08"/>
      <path class="cls-3" d="M111.11,61.9h-.04c-.76-.02-1.36-.66-1.34-1.42.17-6.46,1.46-13.72,3.53-19.93.26-.81.54-1.57.82-2.29.31-.84.65-1.67,1.01-2.49,3.2-7.58,7.47-14.79,11.6-21.76.99-1.66,1.97-3.32,2.94-4.98.72-1.23,1.43-2.45,2.12-3.69.37-.67,1.21-.91,1.88-.53.67.37.91,1.21.53,1.88-.7,1.26-1.41,2.49-2.15,3.74-.97,1.67-1.96,3.33-2.95,5-4.09,6.89-8.31,14.01-11.44,21.43-.34.79-.67,1.58-.97,2.39-.26.69-.53,1.41-.78,2.18-1.99,5.96-3.22,12.93-3.39,19.13-.02.76-.63,1.35-1.38,1.35"/>
      <path class="cls-3" d="M96.16,52.08c-.47,0-.93-.24-1.19-.68-2.54-4.27-5.16-7.73-8.24-10.88-1.93-1.96-4.06-3.86-6.53-5.81-1.43-1.13-2.88-2.21-4.3-3.19-.05-.03-.09-.07-.13-.1-3.77-2.65-7.72-5.11-11.55-7.5-1.58-.98-3.18-2.04-4.73-3.07-5.45-3.61-11.09-7.35-17.26-8.82l-1.07-.27c-1.3-.32-3.03-.74-4.86-1.13-.75-.17-1.22-.9-1.07-1.65.16-.74.9-1.22,1.64-1.06,1.87.4,3.63.83,4.95,1.16l1.07.26c6.63,1.59,12.47,5.46,18.12,9.2,1.53,1.02,3.11,2.07,4.67,3.04,3.9,2.43,7.93,4.94,11.8,7.67.04.03.08.06.11.09,1.42.99,2.88,2.07,4.31,3.2,2.56,2.02,4.78,3.99,6.79,6.04,3.26,3.32,6,6.94,8.65,11.41.39.66.17,1.51-.48,1.9-.22.14-.46.19-.71.19"/>
      <path class="cls-3" d="M138.04,147.89c-.73,0-1.34-.57-1.38-1.31-.5-9.63-1.2-21.01-2.64-32.41-3.1-24.68-10.9-41.88-23.81-52.6-.18-.16-.28-.24-.4-.34-3.39-2.76-6.34-4.9-9.04-6.56-1.89-1.16-3.61-2.06-5.13-2.68-.7-.3-1.04-1.1-.76-1.81.29-.71,1.1-1.05,1.81-.76,1.65.68,3.52,1.65,5.53,2.89,2.81,1.73,5.85,3.94,9.32,6.76.16.13.32.26.49.42,13.43,11.14,21.54,28.93,24.74,54.33,1.44,11.48,2.15,22.93,2.65,32.61.04.76-.54,1.42-1.31,1.45h-.07"/>
      <path class="cls-3" d="M132.81,160.76c-.6,0-1.16-.4-1.33-1.01-.51-1.81-1.05-3.6-1.61-5.34-9.07-28.48-25.37-53.14-42.62-79.25-1.45-2.19-2.91-4.4-4.36-6.62-2.95-4.48-5.84-9.21-8.62-13.78-5.98-9.81-12.17-19.96-19.56-28.62-4.53-5.32-9.49-10.21-14.18-14.71-.55-.53-.57-1.41-.04-1.95.53-.55,1.41-.57,1.96-.04,4.73,4.55,9.75,9.5,14.36,14.91,7.53,8.83,13.77,19.07,19.81,28.98,2.78,4.55,5.65,9.25,8.57,13.7,1.46,2.22,2.92,4.42,4.36,6.62,17.36,26.27,33.76,51.08,42.94,79.93.57,1.77,1.12,3.6,1.64,5.44.21.73-.22,1.5-.96,1.7-.12.04-.25.05-.37.05"/>
      <path class="cls-3" d="M126.43,158.86c-.47,0-.94-.24-1.19-.69-.39-.66-.16-1.51.5-1.9.98-.57,1.98-1.26,3.05-2.09.49-.4.99-.81,1.49-1.24,2.22-1.97,4.47-4.41,6.67-7.28,3.63-4.68,7.23-10.53,10.69-17.4,1.78-3.51,3.47-7.17,5.03-10.87,2.86-6.81,4.43-13.92,5.21-23.77,1.07-13.35.03-28.33-2.93-42.21-2.09-9.81-5.76-23.91-13.32-33.14-.53-.64-1.08-1.33-1.68-2.06-2.25-2.79-5.05-6.25-7.99-9.24-.54-.54-.52-1.42.02-1.95.55-.54,1.42-.53,1.95.02,3.03,3.09,5.88,6.61,8.17,9.44.59.72,1.14,1.41,1.66,2.05,7.95,9.69,11.73,24.22,13.89,34.31,3.05,14.33,4.08,29.21,2.98,43-.81,10.17-2.43,17.54-5.42,24.63-1.58,3.77-3.3,7.48-5.1,11.05-3.55,7.02-7.24,13.02-10.97,17.83-2.3,3-4.67,5.58-7.03,7.67-.53.46-1.07.9-1.6,1.33-1.18.92-2.28,1.67-3.38,2.31-.22.13-.46.19-.7.19"/>
      <g class="cls-2">
        <path class="cls-3" d="M459.77,431.96c-.17,0-.34-.03-.51-.1-33.58-13.24-66.99-30.41-99.29-51.01-.65-.41-.83-1.27-.42-1.91.41-.65,1.27-.83,1.91-.42,32.15,20.51,65.4,37.58,98.82,50.77.71.28,1.06,1.08.78,1.8-.21.54-.73.88-1.29.88"/>
      </g>
      <path class="cls-3" d="M360.68,381.05c-.25,0-.51-.07-.74-.21-42.93-27.38-85.19-61.64-125.62-101.83-.54-.54-.54-1.42,0-1.96s1.41-.54,1.95,0c40.29,40.06,82.4,74.19,125.16,101.46.65.41.83,1.26.43,1.91-.27.42-.71.64-1.17.64"/>
      <path class="cls-3" d="M190.75,231.95c-.39,0-.77-.16-1.04-.47-6.88-7.82-13.7-15.83-20.3-23.81-9.51-11.48-19.5-24.01-31.45-39.4-1.08-1.38-2.12-2.7-3.14-4.05-.46-.61-.34-1.48.26-1.94.6-.46,1.48-.34,1.94.26,1.02,1.33,2.05,2.66,3.08,3.98,11.98,15.42,21.95,27.92,31.44,39.39,6.58,7.95,13.39,15.95,20.25,23.75.5.57.44,1.45-.13,1.95-.27.23-.59.34-.91.34"/>
      <path class="cls-3" d="M135.9,164.76c-.41,0-.82-.18-1.09-.53-1.05-1.34-2.08-2.67-3.1-4.01-.77-.97-1.53-1.95-2.28-2.95-.29-.38-.6-.77-.9-1.16-.46-.61-.34-1.48.27-1.94.61-.46,1.48-.34,1.94.27.29.38.58.76.88,1.14.76,1.01,1.52,1.97,2.28,2.94,1.03,1.35,2.06,2.67,3.09,4.01.47.6.36,1.47-.24,1.94-.25.2-.55.3-.85.3"/>
      <path class="cls-3" d="M7.97,106.78c-.58,0-1.11-.36-1.31-.94-.66-1.96-1.31-3.93-1.95-5.9-1.46-4.43-2.96-9-4.61-13.41-.27-.71.09-1.51.8-1.78.71-.27,1.52.09,1.79.81,1.67,4.46,3.19,9.07,4.65,13.52.64,1.96,1.29,3.92,1.95,5.88.24.72-.15,1.51-.87,1.76-.15.05-.3.07-.44.07"/>
      <path class="cls-3" d="M49.99,88.74c-.36,0-.71-.14-.99-.41-5.6-5.7-8.7-13.04-9.77-23.11-.72-6.71-.45-13.95-.2-20.94.44-12.05.9-24.5-3.69-34.41-.32-.7-.02-1.52.68-1.84.69-.32,1.51-.02,1.83.67,4.86,10.52,4.4,23.31,3.94,35.68-.25,6.9-.52,14.03.18,20.55,1,9.41,3.86,16.23,8.99,21.46.54.54.53,1.42-.02,1.96-.27.27-.61.4-.96.4"/>
      <path class="cls-3" d="M135.91,164.76c-.77,0-1.39-.62-1.39-1.38s.61-1.39,1.38-1.39h.01c.77,0,1.39.61,1.39,1.39s-.62,1.38-1.39,1.38"/>
      <path class="cls-3" d="M121.79,159.73c-.09,0-.18-.01-.27-.03-.18-.03-.34-.09-.49-.18-1.88-.76-3.74-1.57-5.56-2.4-.69-.31-1-1.14-.68-1.83.32-.69,1.13-1.01,1.83-.68,1.81.82,3.68,1.63,5.56,2.39.03.01.06.03.09.04.64.23,1.02.89.89,1.57-.14.66-.71,1.11-1.35,1.11"/>
      <path class="cls-3" d="M116.02,157.25c-.19,0-.39-.04-.57-.13-3.37-1.53-6.63-3.13-9.96-4.89-9.1-4.81-22.34-12.38-32.29-22.46-7.74-7.84-13.36-15.57-17.69-24.34-2.52-5.1-4.69-10.7-6.83-17.61-.17-.48-.07-1.05.32-1.44.54-.54,1.41-.54,1.95,0h0c.16.17.28.36.34.58,2.1,6.79,4.22,12.27,6.68,17.25,4.19,8.49,9.65,16.01,17.18,23.63,9.68,9.82,22.67,17.23,31.6,21.96,3.29,1.74,6.49,3.31,9.81,4.81.69.32,1.01,1.14.69,1.83-.23.51-.73.81-1.26.81"/>
      <path class="cls-3" d="M56.76,106.21c-.31,0-.62-.1-.88-.32-8.69-7.14-19.08-11.66-29.26-12.74-.8-.08-1.63-.17-2.48-.27l-.73-.08c-9.56-1.18-16.94-2.97-22.59-5.51-.69-.31-1.01-1.13-.69-1.83.31-.7,1.13-1.01,1.82-.7,5.39,2.42,12.52,4.14,21.79,5.28l.72.08c.84.1,1.67.19,2.45.27,10.72,1.13,21.64,5.86,30.73,13.35.59.48.68,1.35.19,1.94-.28.33-.67.51-1.07.51"/>
      <path class="cls-3" d="M23.56,92.81c-.6,0-1.16-.39-1.33-1-1.08-3.78-1.9-7.38-2.44-9.77l-.27-1.15c-1.53-6.6-2.46-13.32-3.36-19.82l-.21-1.53c-.1-.76.42-1.45,1.18-1.56.75-.11,1.45.42,1.56,1.18l.21,1.53c.89,6.44,1.82,13.1,3.32,19.58l.26,1.16c.54,2.35,1.34,5.92,2.4,9.61.21.73-.21,1.51-.95,1.71-.13.04-.26.05-.38.05"/>
      <path class="cls-3" d="M40.6,66.46c-.18,0-.36-.04-.54-.11-7.43-3.14-15.42-4.55-22.94-5.62-.75-.11-1.28-.81-1.17-1.56.11-.76.81-1.28,1.56-1.17,7.71,1.09,15.91,2.55,23.63,5.81.7.3,1.04,1.1.73,1.81-.22.53-.73.85-1.27.85"/>
      <path class="cls-3" d="M114.2,160.53c-.1,0-.21-.01-.31-.04-1.29-.3-2.58-.57-3.86-.83-.75-.15-1.23-.88-1.08-1.63.15-.75.88-1.23,1.62-1.08,1.31.26,2.64.55,3.95.85.74.17,1.2.92,1.03,1.66-.15.64-.72,1.07-1.34,1.07"/>
      <path class="cls-3" d="M9.35,105.39h.01-.01ZM110.29,159.69c-.09,0-.18,0-.28-.02-2.07-.42-4.15-.8-6.21-1.18-8.35-1.53-17-3.1-25.28-7.35-2.67-1.38-5.49-2.77-8.22-4.11-7.78-3.83-15.82-7.79-22.82-12.5-3.29-2.21-6.63-4.4-10.16-6.71-10.12-6.62-20.58-13.47-30.11-21.25-.01-.01-.03-.03-.05-.04-.36-.26-.58-.68-.58-1.13,0-.77.61-1.39,1.38-1.39h.01c.35,0,.7.13.96.4h0c9.41,7.69,19.82,14.51,29.89,21.09,3.54,2.31,6.89,4.5,10.19,6.73,6.85,4.6,14.81,8.52,22.5,12.31,2.74,1.35,5.57,2.74,8.27,4.13,7.92,4.06,15.97,5.54,24.51,7.1,2.09.39,4.18.77,6.27,1.19.75.15,1.23.88,1.08,1.63-.13.66-.7,1.11-1.35,1.11"/>
      <path class="cls-3" d="M148.88,130.29c-.06,0-.11,0-.18-.01-.76-.1-1.29-.79-1.2-1.55,1.54-12.17.89-25.46.32-37.19-.13-2.69-.26-5.32-.35-7.88-.94-24.12-5.83-45.93-14.53-64.81-.95-2.07-1.88-4.52-2.84-7.1l-.57-1.53c-.27-.72.09-1.52.81-1.79.71-.27,1.51.09,1.78.81l.57,1.54c.95,2.53,1.85,4.93,2.77,6.91,8.85,19.22,13.82,41.38,14.78,65.86.1,2.55.23,5.18.36,7.85.57,11.85,1.23,25.28-.34,37.68-.09.7-.68,1.21-1.37,1.21"/>
      <path class="cls-3" d="M292.94,281.16c-.12,0-.24-.02-.36-.05-3.59-.96-7.51-1.6-11.97-1.96-7.3-.58-14.86-.3-22.18-.03-4.09.15-7.97.3-11.78.3h-3.79c-2.53,0-5.05,0-7.57,0-8.84-.01-18.38-.13-28.22-.91-22.19-1.76-42.53-5.23-58.84-10.03-11.91-3.51-22.81-10.24-33.35-16.76-2.72-1.68-5.54-3.42-8.3-5.05l-2.05-1.22c-3.22-1.92-6.88-4.09-10.65-6.16-.67-.37-.91-1.21-.54-1.88s1.21-.92,1.88-.54c3.81,2.09,7.48,4.28,10.72,6.2l2.05,1.22c2.78,1.65,5.6,3.39,8.34,5.08,10.39,6.42,21.13,13.05,32.68,16.45,16.13,4.75,36.28,8.18,58.28,9.93,9.75.78,19.22.89,28.01.9,2.52,0,5.04,0,7.56,0h3.8c3.76,0,7.6-.15,11.68-.3,7.39-.28,15.04-.56,22.51.04,4.63.37,8.7,1.04,12.46,2.05.73.2,1.17.96.97,1.69-.16.62-.72,1.03-1.33,1.03"/>
      <path class="cls-3" d="M280.73,279.15c-.26,0-.51-.07-.74-.21-4.79-3.02-9.63-6.15-14.3-9.17-16.11-10.42-32.78-21.2-50.52-29.33-7.83-3.59-16.16-6.46-24.75-8.54-15.78-3.81-32.32-4.98-49.18-3.51-8.81.78-17.89,3.42-26.68,5.97-6.46,1.88-13.14,3.83-19.76,5.05-.75.15-1.47-.35-1.61-1.1-.14-.75.36-1.47,1.11-1.61,6.48-1.2,13.1-3.13,19.49-4.99,8.92-2.59,18.14-5.28,27.21-6.07,17.15-1.51,33.99-.3,50.06,3.57,8.77,2.11,17.26,5.05,25.25,8.7,17.92,8.22,34.67,19.05,50.87,29.53,4.67,3.02,9.49,6.14,14.27,9.15.65.41.84,1.26.43,1.91-.26.42-.71.65-1.17.65"/>
      <path class="cls-3" d="M333.48,350.6c-.72,0-1.34-.57-1.38-1.3-.37-6.38,1.13-13.7,2.33-19.59.22-1.1.44-2.15.63-3.12.74-3.81,1.72-7.8,2.99-12.21.3-1.07.63-2.14.95-3.21.22-.73.99-1.15,1.72-.92.73.22,1.14.99.92,1.72-.32,1.05-.64,2.1-.94,3.17-1.26,4.33-2.21,8.25-2.94,11.97-.19.98-.41,2.04-.63,3.15-1.17,5.72-2.63,12.85-2.28,18.88.04.76-.54,1.41-1.3,1.46h-.08"/>
      <path class="cls-3" d="M247.88,160h0,0ZM246.51,161.39c-.77,0-1.4-.63-1.4-1.39s.62-1.39,1.38-1.39c.38,0,.71.15.96.39.27.25.43.61.43,1.01,0,.76-.62,1.38-1.38,1.38"/>
      <path class="cls-3" d="M264.95,212.53s-.09,0-.14,0c-.76-.08-1.31-.76-1.24-1.52.51-5.19,1.28-10.72,2.36-16.89l.06-.36c.14-.76.85-1.25,1.6-1.12.76.14,1.25.86,1.12,1.61l-.07.35c-1.07,6.09-1.83,11.56-2.33,16.68-.07.71-.67,1.25-1.38,1.25"/>
      <path class="cls-3" d="M310.62,275.08c-.76,0-1.38-.61-1.38-1.38,0-.15.02-.3.07-.43l.6-1.85c14.6-44.52,31.15-94.97,8.24-139.01-.02-.03-.03-.06-.05-.1l-.34-.64c-.22-.42-.45-.84-.69-1.26l-.18-.32c-.37-.66-.13-1.51.54-1.88.67-.37,1.51-.13,1.88.54l.18.32c.25.44.49.88.71,1.31l.39.73s.05.08.06.12c23.38,45.04,6.64,96.05-8.12,141.06l-.59,1.81c-.17.57-.7.99-1.32.99"/>
      <path class="cls-3" d="M340.32,312.96c-.44,0-.88-.21-1.15-.6-.43-.63-.27-1.49.36-1.92,1.78-1.21,3.71-2.24,5.94-3.43.93-.5,1.91-1.02,2.97-1.61,5.79-3.19,12.29-10.98,15.42-14.72,9.65-11.54,9.43-30.88-.66-59.13-.26-.72.11-1.51.83-1.77.72-.26,1.51.12,1.77.84,6.66,18.66,13.93,45.38.17,61.84-5.17,6.2-10.72,12.35-16.2,15.38-1.07.59-2.07,1.13-3.01,1.63-2.16,1.15-4.03,2.14-5.68,3.27-.24.16-.51.24-.78.24"/>
      <path class="cls-3" d="M242.4,149.45c-.35,0-.71-.14-.98-.41-1.07-1.08-2.27-2.13-3.43-3.14-1.33-1.16-2.7-2.36-3.86-3.59-3.01-3.21-6.02-7.11-9.21-11.95-4.05-6.16-7.79-13.33-11.43-21.92-9-21.2-13.93-42.44-14.64-63.13-.32-9.09.49-18.25,1.28-27.1l.32-3.64c.13-1.48.26-2.96.38-4.44.06-.76.72-1.33,1.49-1.27.76.06,1.33.73,1.27,1.49-.12,1.49-.25,2.97-.38,4.46l-.32,3.64c-.78,8.78-1.59,17.85-1.28,26.77.7,20.35,5.56,41.26,14.42,62.15,3.58,8.43,7.24,15.45,11.19,21.47,3.1,4.7,6.02,8.49,8.92,11.58,1.06,1.13,2.33,2.23,3.66,3.4,1.2,1.05,2.43,2.13,3.57,3.27.54.54.54,1.42,0,1.96-.27.27-.63.4-.98.4"/>
      <path class="cls-3" d="M243.07,151.39s-.08,0-.11,0c-.76-.06-1.33-.73-1.27-1.49l.1-1.14c.46-4.99.82-10.07,1.18-14.98.29-4.14.59-8.42.96-12.64.67-7.81,1.09-17.03-.89-26.2-.46-2.1-.96-4.17-1.49-6.13-.2-.74.23-1.5.97-1.7.73-.2,1.49.23,1.7.97.55,2.02,1.06,4.13,1.52,6.28,2.06,9.53,1.63,19.01.94,27.02-.36,4.21-.67,8.47-.96,12.6-.35,4.92-.71,10.01-1.18,15.02l-.1,1.12c-.06.72-.67,1.27-1.38,1.27"/>
      <path class="cls-3" d="M242.87,89.81c-.61,0-1.17-.41-1.33-1.03-2.81-10.39-6.82-19.9-11.04-29.53-5.07-11.58-11.61-21.04-18.55-31.07-.8-1.17-1.61-2.34-2.44-3.53-3.58-5.21-6.29-9.58-8.52-13.76-.36-.68-.1-1.51.57-1.88.68-.36,1.52-.1,1.88.57,2.17,4.08,4.83,8.37,8.35,13.49.82,1.19,1.63,2.36,2.43,3.52,7.01,10.14,13.63,19.71,18.8,31.54,4.27,9.73,8.32,19.34,11.18,29.92.2.74-.24,1.5-.97,1.7-.13.03-.24.05-.36.05"/>
      <path class="cls-3" d="M109.03,160.69c-.45,0-.91,0-1.36,0-11.31-.14-22.49-2.16-33.3-4.11-13.15-2.37-45.31-10.54-59.84-35.13-2.84-4.81-5.57-9.58-7.66-15.21l-.11-.31c-.72-1.98-1.32-4.06-1.9-6.07-.57-2.01-1.17-4.07-1.89-6.02-.27-.71.1-1.51.82-1.78.71-.26,1.51.1,1.78.82.76,2.05,1.36,4.17,1.95,6.21.56,1.96,1.15,3.99,1.84,5.92l.11.31c1.99,5.37,4.65,10.03,7.43,14.72,13.95,23.61,45.18,31.51,57.95,33.81,10.7,1.93,21.77,3.93,32.84,4.07,2.21.04,4.37-.02,6.41-.14,2.42-.14,4.79-.39,7.07-.73.03,0,.06,0,.09-.01.06,0,.13-.02.2-.03.04-.01.07-.01.11-.02,1.53-.22,3.06-.52,4.55-.85,1.4-.31,2.71-.64,4.02-1.02l.38-.11c.73-.22,1.51.19,1.72.92.22.73-.19,1.51-.92,1.73l-.4.11c-1.39.4-2.76.75-4.2,1.07-1.54.35-3.11.65-4.7.89-.16.03-.33.06-.48.07-2.35.36-4.8.61-7.28.75-1.68.1-3.44.16-5.24.16"/>
      <path class="cls-3" d="M81.06,35.01c-.61,0-1.17-.41-1.33-1.02-1.57-5.76-2.48-10.65-2.88-15.39-.15-1.92-.21-3.73-.2-5.55.02-2.61.26-5.21.48-7.73l.09-1.08c.08-.99.17-1.97.23-2.96.06-.76.71-1.33,1.48-1.28.76.05,1.33.71,1.28,1.48-.07,1.01-.16,2-.24,3l-.09,1.07c-.22,2.48-.45,5.03-.47,7.53-.01,1.74.05,3.48.19,5.31.38,4.61,1.24,9.21,2.79,14.88.2.74-.23,1.5-.97,1.7-.13.04-.24.05-.36.05"/>
      <path class="cls-3" d="M114.56,42.37c-.47,0-.93-.24-1.19-.67-10.15-16.84-21.1-29.62-32.56-37.98-.48-.36-.96-.69-1.42-1.02l1.57-2.28-.8,1.13.81-1.12c.49.35.99.7,1.48,1.07,11.73,8.56,22.94,21.61,33.29,38.77.39.66.18,1.51-.47,1.9-.22.14-.46.2-.71.2"/>
    </g>
  </g>
</svg>