<svg xmlns="http://www.w3.org/2000/svg" xmlns:xlink="http://www.w3.org/1999/xlink" width="500" zoomAndPan="magnify" viewBox="0 0 375 374.999991" height="500" preserveAspectRatio="xMidYMid meet" version="1.0"><defs><filter x="0%" y="0%" width="100%" height="100%" id="af584a858b"><feColorMatrix values="0 0 0 0 1 0 0 0 0 1 0 0 0 0 1 0 0 0 1 0" color-interpolation-filters="sRGB"/></filter><g/><mask id="29d33a7e7f"><g filter="url(#af584a858b)"><rect x="-37.5" width="450" fill="#000000" y="-37.499999" height="449.999989" fill-opacity="0.15"/></g></mask><clipPath id="da9d907f4e"><path d="M 0.601562 50 L 174.359375 50 L 174.359375 72 L 0.601562 72 Z M 0.601562 50 " clip-rule="nonzero"/></clipPath><clipPath id="9815970568"><path d="M 0.601562 105 L 174.359375 105 L 174.359375 127 L 0.601562 127 Z M 0.601562 105 " clip-rule="nonzero"/></clipPath><clipPath id="146c70fda0"><path d="M 22 0.078125 L 96 0.078125 L 96 174.800781 L 22 174.800781 Z M 22 0.078125 " clip-rule="nonzero"/></clipPath><clipPath id="d9fbe27d65"><path d="M 80 0.078125 L 154 0.078125 L 154 174.800781 L 80 174.800781 Z M 80 0.078125 " clip-rule="nonzero"/></clipPath><clipPath id="09ab61d72f"><rect x="0" width="175" y="0" height="175"/></clipPath><clipPath id="130ee254c1"><rect x="0" width="204" y="0" height="76"/></clipPath><clipPath id="001df6115f"><rect x="0" width="135" y="0" height="17"/></clipPath></defs><rect x="-37.5" width="450" fill="#ffffff" y="-37.499999" height="449.999989" fill-opacity="1"/><rect x="-37.5" width="450" fill="#ffffff" y="-37.499999" height="449.999989" fill-opacity="1"/><g mask="url(#29d33a7e7f)"><g transform="matrix(1, 0, 0, 1, 21, 100)"><g clip-path="url(#09ab61d72f)"><g clip-path="url(#da9d907f4e)"><path fill="#000000" d="M 163.6875 71.472656 L 11.382812 71.472656 C 5.640625 71.472656 0.988281 66.828125 0.988281 61.082031 C 0.988281 55.34375 5.640625 50.695312 11.382812 50.695312 L 163.6875 50.695312 C 169.429688 50.695312 174.078125 55.34375 174.078125 61.082031 C 174.078125 66.828125 169.429688 71.472656 163.6875 71.472656 " fill-opacity="1" fill-rule="nonzero"/></g><g clip-path="url(#9815970568)"><path fill="#000000" d="M 163.6875 126.394531 L 11.382812 126.394531 C 5.640625 126.394531 0.988281 121.742188 0.988281 116 C 0.988281 110.261719 5.640625 105.609375 11.382812 105.609375 L 163.6875 105.609375 C 169.429688 105.609375 174.078125 110.261719 174.078125 116 C 174.078125 121.742188 169.429688 126.394531 163.6875 126.394531 " fill-opacity="1" fill-rule="nonzero"/></g><g clip-path="url(#146c70fda0)"><path fill="#000000" d="M 32.707031 174.492188 C 31.589844 174.492188 30.453125 174.308594 29.339844 173.929688 C 23.90625 172.066406 21.015625 166.15625 22.878906 160.726562 L 75.429688 7.523438 C 77.292969 2.09375 83.199219 -0.792969 88.628906 1.066406 C 94.058594 2.929688 96.953125 8.839844 95.089844 14.269531 L 42.539062 167.472656 C 41.058594 171.78125 37.023438 174.492188 32.707031 174.492188 " fill-opacity="1" fill-rule="nonzero"/></g><g clip-path="url(#d9fbe27d65)"><path fill="#000000" d="M 90.503906 174.492188 C 89.386719 174.492188 88.25 174.308594 87.132812 173.929688 C 81.703125 172.066406 78.8125 166.15625 80.671875 160.726562 L 133.226562 7.523438 C 135.089844 2.09375 140.996094 -0.792969 146.429688 1.066406 C 151.859375 2.929688 154.746094 8.839844 152.886719 14.269531 L 100.332031 167.472656 C 98.851562 171.78125 94.816406 174.492188 90.503906 174.492188 " fill-opacity="1" fill-rule="nonzero"/></g></g></g></g><g transform="matrix(1, 0, 0, 1, 95, 123)"><g clip-path="url(#130ee254c1)"><g fill="#c26196" fill-opacity="1"><g transform="translate(0.868536, 59.529376)"><g><path d="M 20.75 0.25 L 19.515625 -0.0625 L 16.484375 -0.0625 L 14.625 0.1875 L 12.140625 -0.0625 L 10.90625 0.0625 L 8.984375 0.125 L 7.1875 -0.125 L 6.015625 0 L 4.828125 0 L 3.59375 -0.5625 L 2.96875 -2.234375 L 3.15625 -7.9375 L 3.84375 -9.046875 L 7.9375 -10.28125 L 8.609375 -12.140625 L 8.421875 -31.15625 L 7.875 -32.828125 L 6.6875 -33.578125 L 5.453125 -33.578125 L 4.09375 -34.265625 L 3.40625 -35.5 L 3.53125 -36.671875 L 3.34375 -41.265625 L 3.96875 -42.75 L 5.203125 -43.359375 L 6.625 -43.359375 L 7.8125 -43.1875 L 12.890625 -43.1875 L 14.125 -43.421875 L 15.234375 -43.3125 L 22.734375 -43.3125 L 23.859375 -42.625 L 24.59375 -41.453125 L 24.53125 -35.3125 L 23.90625 -34.328125 L 22.609375 -33.828125 L 21.375 -33.640625 L 20.015625 -33.078125 L 19.578125 -31.65625 L 19.328125 -25.40625 L 19.578125 -20.9375 L 19.453125 -19.578125 L 19.515625 -12.765625 L 19.328125 -11.578125 L 20.078125 -10.15625 L 21.5625 -9.671875 L 22.859375 -9.671875 L 24.21875 -8.984375 L 24.96875 -7.8125 L 24.96875 -1.671875 L 24.34375 -0.5 L 23.234375 0.125 Z M 20.75 0.25 "/></g></g></g><g fill="#c26196" fill-opacity="1"><g transform="translate(28.993005, 59.529376)"><g><path d="M 17.46875 -1.109375 L 15.796875 -4.515625 L 15.484375 -5.828125 L 14.875 -6.75 L 13.265625 -10.34375 L 12.890625 -11.515625 L 11.828125 -13.75 L 11.515625 -14.8125 L 7.4375 -24.03125 L 6.8125 -25.03125 L 4.953125 -29.546875 L 4.34375 -30.671875 L 3.34375 -33.078125 L 2.65625 -34.265625 L 2.296875 -35.375 L 1.734375 -36.484375 L 0.8125 -38.84375 L 0.25 -39.953125 L 0 -41.453125 L 0.125 -42.8125 L 1.421875 -43.359375 L 2.71875 -43.421875 L 3.84375 -43.3125 L 4.890625 -43.421875 L 8.359375 -43.25 L 9.78125 -42.75 L 10.84375 -41.515625 L 11.40625 -40.515625 L 11.828125 -39.40625 L 12.453125 -38.21875 L 12.640625 -37.046875 L 14.8125 -32.59375 L 15.046875 -31.34375 L 15.484375 -30.234375 L 16.046875 -29.234375 L 16.796875 -26.765625 L 17.46875 -25.65625 L 17.90625 -24.65625 L 18.28125 -23.421875 L 18.765625 -22.296875 L 19.578125 -19.953125 L 20.078125 -18.828125 L 20.8125 -18.953125 L 21.5625 -20.078125 L 21.875 -21.1875 L 22.484375 -22.359375 L 29.859375 -40.515625 L 30.171875 -41.625 L 31.28125 -42.8125 L 32.71875 -43.3125 L 40.015625 -43.3125 L 41.078125 -42.9375 L 41.453125 -41.390625 L 40.828125 -39.890625 L 40.578125 -38.84375 L 39.953125 -37.671875 L 39.53125 -36.421875 L 38.84375 -35.375 L 38.53125 -34.265625 L 37.609375 -31.84375 L 36.796875 -30.921875 L 36.484375 -29.734375 L 35.625 -28.625 L 35.3125 -27.4375 L 35 -26.390625 L 34.328125 -25.15625 L 33.640625 -22.796875 L 32.34375 -20.5625 L 31.59375 -18.15625 L 27.875 -10.21875 L 27.5 -9.109375 L 26.515625 -6.875 L 25.890625 -5.828125 L 25.34375 -4.640625 L 24.28125 -2.234375 L 23.90625 -1.046875 L 22.859375 -0.0625 L 21.1875 0.6875 L 19.953125 0.5625 L 18.46875 0 Z M 17.46875 -1.109375 "/></g></g></g><g fill="#c26196" fill-opacity="1"><g transform="translate(70.746074, 59.529376)"><g><path d="M 23.171875 0.75 L 21.875 0.625 L 19.640625 0.125 L 18.28125 0 L 16.484375 -0.625 L 11.640625 -3.09375 L 9.609375 -4.703125 L 8.921875 -5.515625 L 7.984375 -6.375 L 7.1875 -7.375 L 6.4375 -8.109375 L 3.59375 -13.75 L 3.03125 -16.109375 L 2.90625 -17.28125 L 2.609375 -18.40625 L 2.421875 -19.703125 L 2.609375 -24.71875 L 3.65625 -29.484375 L 4.578125 -31.84375 L 6.5 -35.125 L 9.546875 -38.65625 L 11.640625 -40.203125 L 12.765625 -40.765625 L 13.6875 -41.453125 L 18.34375 -43.1875 L 24.90625 -44.109375 L 26.578125 -44.046875 L 30.171875 -43.421875 L 34.9375 -41.9375 L 35.875 -41.265625 L 37.734375 -40.453125 L 39.15625 -39.46875 L 40.953125 -37.921875 L 42.6875 -36 L 44.046875 -34.140625 L 45.21875 -31.84375 L 46.78125 -27.203125 L 47.203125 -24.65625 L 47.390625 -21.5625 L 47.140625 -19.765625 L 47.078125 -18.46875 L 46.78125 -17.21875 L 46.71875 -16.109375 L 46.21875 -13.75 L 45.28125 -11.40625 L 42.5625 -7.25 L 41.6875 -6.375 L 40.890625 -5.265625 L 39.15625 -3.78125 L 37.984375 -3.21875 L 37.046875 -2.484375 L 35 -1.359375 L 30.359375 0.1875 L 26.640625 0.6875 Z M 26.640625 -10.21875 L 27.875 -10.46875 L 28.8125 -10.90625 L 29.921875 -11.21875 L 32.890625 -13.265625 L 33.765625 -14.25 L 34.140625 -15.171875 L 34.8125 -16.296875 L 35.25 -17.40625 L 35.75 -19.703125 L 35.875 -23.484375 L 35.6875 -24.59375 L 35.125 -25.765625 L 34.390625 -28.125 L 31.96875 -30.671875 L 30.046875 -32.03125 L 28.9375 -32.53125 L 27.8125 -32.765625 L 24.84375 -33.140625 L 23.109375 -33.015625 L 20.6875 -32.40625 L 19.890625 -32.09375 L 16.796875 -29.984375 L 15.296875 -28 L 14.9375 -26.890625 L 14.4375 -25.765625 L 14.25 -24.59375 L 13.9375 -23.484375 L 13.9375 -19.703125 L 14.4375 -17.40625 L 15 -16.296875 L 15.296875 -15.296875 L 16.171875 -14.125 L 16.96875 -13.265625 L 18.640625 -11.890625 L 19.640625 -11.34375 L 21.875 -10.40625 L 23.234375 -10.21875 Z M 26.640625 -10.21875 "/></g></g></g><g fill="#c26196" fill-opacity="1"><g transform="translate(120.428508, 59.529376)"><g><path d="M 4.765625 -1.984375 L 4.578125 -6.8125 L 4.703125 -8.109375 L 4.453125 -11.703125 L 4.640625 -14.25 L 4.453125 -15.609375 L 4.515625 -17.96875 L 4.640625 -19.265625 L 4.640625 -22.359375 L 4.453125 -24.15625 L 4.640625 -41.515625 L 5.140625 -42.8125 L 6.3125 -43.359375 L 7.6875 -43.3125 L 8.859375 -43.484375 L 11.40625 -43.25 L 12.578125 -43.421875 L 16.296875 -43.3125 L 17.34375 -43.421875 L 18.703125 -43.3125 L 19.953125 -43.421875 L 21.3125 -43.359375 L 23.109375 -43.421875 L 24.65625 -43.3125 L 29.796875 -42.25 L 31.96875 -41.140625 L 35.0625 -38.78125 L 35.625 -37.859375 L 36.484375 -36.921875 L 38.15625 -33.515625 L 38.46875 -32.28125 L 38.65625 -31.09375 L 38.96875 -29.921875 L 38.90625 -25.03125 L 38.21875 -22.671875 L 37.796875 -21.625 L 37.109375 -20.5 L 36.671875 -19.328125 L 35.9375 -18.28125 L 34.203125 -16.609375 L 33.515625 -15.296875 L 33.703125 -13.8125 L 35.5625 -10.59375 L 36.359375 -9.609375 L 36.984375 -8.484375 L 37.734375 -7.375 L 38.28125 -6.3125 L 40.265625 -3.28125 L 41.078125 -1.734375 L 40.828125 -0.4375 L 39.53125 -0.125 L 38.15625 0 L 35.6875 0 L 34.453125 -0.125 L 33.078125 0 L 30.859375 -0.125 L 29.296875 -0.5 L 28.0625 -1.609375 L 27.328125 -2.609375 L 26.765625 -3.65625 L 25.953125 -4.828125 L 24.21875 -7.9375 L 23.796875 -9.109375 L 22.171875 -11.28125 L 21.1875 -12.328125 L 19.640625 -12.828125 L 18.53125 -12.765625 L 17.40625 -12.765625 L 16.171875 -12.140625 L 15.609375 -10.90625 L 15.734375 -7.0625 L 15.546875 -4.40625 L 15.796875 -3.09375 L 15.671875 -1.796875 L 15.234375 -0.625 L 13.3125 0 L 11.46875 0 L 10.15625 -0.125 L 7.625 0.0625 L 6.4375 0 L 5.203125 -0.625 Z M 17.40625 -22.796875 L 18.765625 -22.796875 L 20.015625 -22.609375 L 24.84375 -23.046875 L 25.765625 -23.484375 L 26.515625 -24.21875 L 27.203125 -25.28125 L 27.6875 -26.515625 L 27.875 -28.1875 L 27.75 -29.984375 L 27.328125 -30.96875 L 26.703125 -31.90625 L 24.78125 -33.078125 L 21.9375 -33.453125 L 18.53125 -33.515625 L 17.53125 -33.453125 L 16.296875 -32.828125 L 15.546875 -31.59375 L 15.734375 -24.65625 L 16.359375 -23.359375 Z M 17.40625 -22.796875 "/></g></g></g><g fill="#c26196" fill-opacity="1"><g transform="translate(163.358595, 59.529376)"><g><path d="M 14.25 -1.734375 L 14.375 -3.03125 L 14.0625 -5.578125 L 14.125 -7.9375 L 14.25 -9.046875 L 14.1875 -10.21875 L 14.0625 -11.46875 L 14.125 -16.359375 L 13.8125 -18.15625 L 13.3125 -19.765625 L 7.8125 -28.4375 L 7.3125 -29.484375 L 0.625 -40.078125 L 0 -41.578125 L 0.125 -42.9375 L 1.484375 -43.3125 L 9.671875 -43.421875 L 11.21875 -42.75 L 12.578125 -41.75 L 13.078125 -40.515625 L 13.75 -39.46875 L 16.84375 -34.015625 L 17.21875 -32.765625 L 17.78125 -31.65625 L 19.203125 -29.421875 L 20.078125 -29.546875 L 22.125 -32.890625 L 23.046875 -35.125 L 24.46875 -37.171875 L 24.84375 -38.34375 L 25.65625 -39.53125 L 26.703125 -41.625 L 28 -42.8125 L 29.546875 -43.421875 L 30.734375 -43.3125 L 33.078125 -43.3125 L 34.390625 -43.484375 L 36.796875 -43.3125 L 38.046875 -43.484375 L 39.21875 -43 L 39.40625 -41.515625 L 38.53125 -40.015625 L 38.09375 -38.90625 L 37.359375 -37.984375 L 30.234375 -26.203125 L 28.6875 -24.15625 L 28 -23.109375 L 27.5 -21.9375 L 25.34375 -18.15625 L 25.03125 -16.359375 L 25.28125 -15.234375 L 25.09375 -11.640625 L 25.28125 -10.34375 L 24.96875 -6.5625 L 25.03125 -5.453125 L 24.96875 -4.28125 L 25.09375 -2.96875 L 25.09375 -1.921875 L 24.46875 -0.6875 L 22.609375 -0.0625 L 20.875 0 L 19.578125 -0.0625 L 18.34375 0.0625 L 16.109375 -0.0625 L 14.9375 -0.6875 Z M 14.25 -1.734375 "/></g></g></g></g></g><g transform="matrix(1, 0, 0, 1, 156, 210)"><g clip-path="url(#001df6115f)"><g fill="#545454" fill-opacity="1"><g transform="translate(0.786557, 12.732829)"><g><path d="M 0.640625 -0.390625 L 0.640625 -1.40625 L 0.671875 -1.65625 L 0.828125 -1.90625 L 1.703125 -2.1875 L 1.828125 -2.484375 L 1.859375 -3 L 1.8125 -3.578125 L 1.875 -3.84375 L 1.8125 -4.359375 L 1.84375 -4.625 L 1.859375 -5.171875 L 1.8125 -5.46875 L 1.8125 -5.703125 L 1.84375 -6.828125 L 1.671875 -7.0625 L 0.859375 -7.34375 L 0.734375 -7.59375 L 0.734375 -7.84375 L 0.703125 -8.109375 L 0.703125 -8.40625 L 0.734375 -8.640625 L 0.734375 -8.890625 L 0.875 -9.171875 L 1.171875 -9.296875 L 1.6875 -9.265625 L 1.9375 -9.28125 L 2.75 -9.265625 L 3.046875 -9.296875 L 4.734375 -9.28125 L 5.15625 -9.171875 L 5.265625 -8.90625 L 5.28125 -8.640625 L 5.265625 -8.390625 L 5.265625 -7.609375 L 5.109375 -7.359375 L 4.859375 -7.21875 L 4.5625 -7.203125 L 4.3125 -7.046875 L 4.171875 -6.8125 L 4.171875 -6.25 L 4.203125 -5.984375 L 4.171875 -5.71875 L 4.203125 -5.453125 L 4.171875 -5.046875 L 4.203125 -4.65625 L 4.140625 -4.09375 L 4.203125 -3.5625 L 4.171875 -2.46875 L 4.3125 -2.203125 L 5.203125 -1.921875 L 5.390625 -1.703125 L 5.359375 -0.890625 L 5.375 -0.65625 L 5.375 -0.359375 L 5.234375 -0.125 L 4.984375 0.015625 L 1.03125 -0.015625 L 0.765625 -0.109375 Z M 0.640625 -0.390625 "/></g></g></g><g fill="#545454" fill-opacity="1"><g transform="translate(6.814076, 12.732829)"><g><path d="M 7.84375 -0.21875 L 7.65625 -0.390625 L 7.5 -0.578125 L 7.296875 -0.75 L 7.125 -0.96875 L 5.828125 -2.265625 L 5.625 -2.4375 L 3.71875 -4.296875 L 3.546875 -4.328125 L 3.40625 -4.171875 L 3.46875 -3.890625 L 3.421875 -0.640625 L 3.46875 -0.375 L 3.34375 -0.109375 L 3.078125 0.03125 L 2.78125 0 L 2.5 0.046875 L 1.828125 0 L 1.375 0.03125 L 1.125 -0.125 L 1.015625 -0.40625 L 1.015625 -0.671875 L 0.96875 -0.9375 L 1.015625 -1.4375 L 0.984375 -1.703125 L 1 -2.25 L 0.953125 -2.53125 L 0.953125 -2.78125 L 0.984375 -3.0625 L 0.984375 -3.328125 L 1.015625 -3.5625 L 0.953125 -5.453125 L 1 -5.734375 L 0.984375 -6.015625 L 1.015625 -6.25 L 0.96875 -6.796875 L 1 -7.0625 L 0.96875 -8.921875 L 1.140625 -9.171875 L 1.46875 -9.34375 L 1.8125 -9.234375 L 2.34375 -8.875 L 3.0625 -8.140625 L 3.234375 -7.921875 L 3.46875 -7.75 L 3.59375 -7.5625 L 3.859375 -7.390625 L 4 -7.1875 L 4.40625 -6.84375 L 4.6875 -6.546875 L 4.828125 -6.359375 L 5.046875 -6.203125 L 5.515625 -5.71875 L 5.71875 -5.5625 L 6.296875 -4.96875 L 6.484375 -4.921875 L 6.546875 -5.125 L 6.53125 -5.65625 L 6.59375 -5.9375 L 6.59375 -6.1875 L 6.53125 -6.46875 L 6.546875 -8.890625 L 6.6875 -9.171875 L 7 -9.296875 L 7.265625 -9.28125 L 7.5 -9.3125 L 7.78125 -9.265625 L 8.078125 -9.296875 L 8.328125 -9.296875 L 8.59375 -9.265625 L 8.890625 -9.140625 L 9.046875 -8.90625 L 9.015625 -8.203125 L 9.046875 -7.8125 L 8.984375 -7.546875 L 8.984375 -7.015625 L 9.015625 -6.765625 L 8.984375 -6.234375 L 9.03125 -4.640625 L 9 -4.34375 L 9.0625 -3.96875 L 8.984375 -0.359375 L 8.875 -0.078125 L 8.5625 0.0625 L 8.21875 -0.046875 Z M 7.84375 -0.21875 "/></g></g></g><g fill="#545454" fill-opacity="1"><g transform="translate(16.824549, 12.732829)"><g><path d="M 3.75 -0.234375 L 3.390625 -0.96875 L 3.328125 -1.25 L 3.1875 -1.453125 L 2.84375 -2.21875 L 2.765625 -2.46875 L 2.53125 -2.953125 L 2.46875 -3.171875 L 1.59375 -5.15625 L 1.46875 -5.359375 L 1.0625 -6.328125 L 0.9375 -6.578125 L 0.71875 -7.09375 L 0.578125 -7.34375 L 0.484375 -7.578125 L 0.375 -7.828125 L 0.171875 -8.328125 L 0.046875 -8.5625 L 0 -8.890625 L 0.03125 -9.171875 L 0.3125 -9.296875 L 0.578125 -9.3125 L 0.828125 -9.28125 L 1.046875 -9.3125 L 1.796875 -9.265625 L 2.09375 -9.171875 L 2.328125 -8.90625 L 2.4375 -8.6875 L 2.53125 -8.453125 L 2.671875 -8.1875 L 2.703125 -7.9375 L 3.171875 -6.984375 L 3.234375 -6.71875 L 3.328125 -6.484375 L 3.4375 -6.265625 L 3.59375 -5.734375 L 3.75 -5.5 L 3.84375 -5.28125 L 3.921875 -5.015625 L 4.03125 -4.78125 L 4.203125 -4.28125 L 4.296875 -4.03125 L 4.46875 -4.0625 L 4.625 -4.296875 L 4.6875 -4.546875 L 4.828125 -4.796875 L 6.40625 -8.6875 L 6.46875 -8.921875 L 6.703125 -9.171875 L 7.015625 -9.28125 L 8.578125 -9.28125 L 8.8125 -9.203125 L 8.890625 -8.875 L 8.75 -8.546875 L 8.703125 -8.328125 L 8.5625 -8.078125 L 8.46875 -7.8125 L 8.328125 -7.578125 L 8.265625 -7.34375 L 8.0625 -6.828125 L 7.890625 -6.625 L 7.828125 -6.375 L 7.640625 -6.140625 L 7.578125 -5.890625 L 7.5 -5.65625 L 7.359375 -5.390625 L 7.21875 -4.890625 L 6.9375 -4.40625 L 6.78125 -3.890625 L 5.984375 -2.1875 L 5.890625 -1.953125 L 5.6875 -1.46875 L 5.546875 -1.25 L 5.4375 -1 L 5.203125 -0.484375 L 5.125 -0.21875 L 4.90625 -0.015625 L 4.546875 0.140625 L 4.28125 0.125 L 3.953125 0 Z M 3.75 -0.234375 "/></g></g></g><g fill="#545454" fill-opacity="1"><g transform="translate(25.772906, 12.732829)"><g><path d="M 0.953125 -0.390625 L 1.015625 -0.65625 L 1.015625 -0.921875 L 1 -1.4375 L 1 -1.703125 L 0.96875 -2 L 1.015625 -2.25 L 1 -2.5 L 1.015625 -2.796875 L 0.984375 -3.0625 L 1.015625 -3.59375 L 0.96875 -4.125 L 1.015625 -4.390625 L 1.015625 -6.78125 L 0.984375 -7.015625 L 1.015625 -7.296875 L 0.953125 -7.96875 L 1.015625 -8.359375 L 0.984375 -8.890625 L 1.109375 -9.171875 L 1.5 -9.265625 L 3.234375 -9.3125 L 3.484375 -9.28125 L 4 -9.296875 L 4.265625 -9.265625 L 4.84375 -9.296875 L 5.109375 -9.25 L 5.359375 -9.28125 L 6.421875 -9.265625 L 6.6875 -9.15625 L 6.828125 -8.890625 L 6.78125 -8.640625 L 6.78125 -8.34375 L 6.8125 -8.09375 L 6.84375 -7.546875 L 6.6875 -7.3125 L 6.421875 -7.15625 L 3.859375 -7.140625 L 3.453125 -7.03125 L 3.328125 -6.640625 L 3.34375 -6.234375 L 3.5 -5.984375 L 3.734375 -5.84375 L 4.78125 -5.859375 L 5.09375 -5.828125 L 5.359375 -5.828125 L 5.625 -5.859375 L 6.15625 -5.84375 L 6.390625 -5.703125 L 6.515625 -5.453125 L 6.53125 -5.1875 L 6.515625 -4.125 L 6.375 -3.875 L 6.109375 -3.734375 L 5.875 -3.71875 L 5.59375 -3.75 L 5.234375 -3.71875 L 4.53125 -3.765625 L 4.265625 -3.734375 L 3.75 -3.734375 L 3.5 -3.59375 L 3.390625 -3.3125 L 3.375 -2.65625 L 3.5 -2.25 L 3.765625 -2.078125 L 4.0625 -2.109375 L 4.359375 -2.078125 L 4.609375 -2.125 L 6.359375 -2.09375 L 6.765625 -1.96875 L 6.9375 -1.703125 L 6.90625 -1.453125 L 6.921875 -0.625 L 6.890625 -0.375 L 6.78125 -0.125 L 6.5 0.015625 L 6.25 0.046875 L 5.4375 -0.015625 L 4.625 0.03125 L 4.390625 -0.015625 L 1.375 0.015625 L 1.125 -0.140625 Z M 0.953125 -0.390625 "/></g></g></g><g fill="#545454" fill-opacity="1"><g transform="translate(33.380329, 12.732829)"><g><path d="M 7.84375 -0.21875 L 7.65625 -0.390625 L 7.5 -0.578125 L 7.296875 -0.75 L 7.125 -0.96875 L 5.828125 -2.265625 L 5.625 -2.4375 L 3.71875 -4.296875 L 3.546875 -4.328125 L 3.40625 -4.171875 L 3.46875 -3.890625 L 3.421875 -0.640625 L 3.46875 -0.375 L 3.34375 -0.109375 L 3.078125 0.03125 L 2.78125 0 L 2.5 0.046875 L 1.828125 0 L 1.375 0.03125 L 1.125 -0.125 L 1.015625 -0.40625 L 1.015625 -0.671875 L 0.96875 -0.9375 L 1.015625 -1.4375 L 0.984375 -1.703125 L 1 -2.25 L 0.953125 -2.53125 L 0.953125 -2.78125 L 0.984375 -3.0625 L 0.984375 -3.328125 L 1.015625 -3.5625 L 0.953125 -5.453125 L 1 -5.734375 L 0.984375 -6.015625 L 1.015625 -6.25 L 0.96875 -6.796875 L 1 -7.0625 L 0.96875 -8.921875 L 1.140625 -9.171875 L 1.46875 -9.34375 L 1.8125 -9.234375 L 2.34375 -8.875 L 3.0625 -8.140625 L 3.234375 -7.921875 L 3.46875 -7.75 L 3.59375 -7.5625 L 3.859375 -7.390625 L 4 -7.1875 L 4.40625 -6.84375 L 4.6875 -6.546875 L 4.828125 -6.359375 L 5.046875 -6.203125 L 5.515625 -5.71875 L 5.71875 -5.5625 L 6.296875 -4.96875 L 6.484375 -4.921875 L 6.546875 -5.125 L 6.53125 -5.65625 L 6.59375 -5.9375 L 6.59375 -6.1875 L 6.53125 -6.46875 L 6.546875 -8.890625 L 6.6875 -9.171875 L 7 -9.296875 L 7.265625 -9.28125 L 7.5 -9.3125 L 7.78125 -9.265625 L 8.078125 -9.296875 L 8.328125 -9.296875 L 8.59375 -9.265625 L 8.890625 -9.140625 L 9.046875 -8.90625 L 9.015625 -8.203125 L 9.046875 -7.8125 L 8.984375 -7.546875 L 8.984375 -7.015625 L 9.015625 -6.765625 L 8.984375 -6.234375 L 9.03125 -4.640625 L 9 -4.34375 L 9.0625 -3.96875 L 8.984375 -0.359375 L 8.875 -0.078125 L 8.5625 0.0625 L 8.21875 -0.046875 Z M 7.84375 -0.21875 "/></g></g></g><g fill="#545454" fill-opacity="1"><g transform="translate(43.390802, 12.732829)"><g><path d="M 2.546875 -0.40625 L 2.53125 -1.453125 L 2.5625 -1.71875 L 2.53125 -2.53125 L 2.53125 -3.0625 L 2.578125 -3.46875 L 2.53125 -3.859375 L 2.53125 -4.390625 L 2.5625 -4.65625 L 2.53125 -4.90625 L 2.578125 -5.3125 L 2.53125 -6.78125 L 2.40625 -7.03125 L 2.171875 -7.171875 L 0.984375 -7.1875 L 0.640625 -7.140625 L 0.375 -7.28125 L 0.21875 -7.578125 L 0.234375 -8.90625 L 0.375 -9.171875 L 0.671875 -9.296875 L 4.625 -9.265625 L 4.921875 -9.3125 L 5.1875 -9.3125 L 5.453125 -9.28125 L 5.71875 -9.28125 L 6.015625 -9.328125 L 6.265625 -9.328125 L 6.484375 -9.296875 L 6.796875 -9.328125 L 7.0625 -9.1875 L 7.203125 -8.921875 L 7.171875 -7.84375 L 7.203125 -7.5625 L 7.0625 -7.296875 L 6.765625 -7.171875 L 6.03125 -7.1875 L 5.796875 -7.15625 L 5.53125 -7.171875 L 5.296875 -7.15625 L 5 -7.046875 L 4.90625 -6.796875 L 4.921875 -6.515625 L 4.890625 -6.25 L 4.9375 -3.59375 L 4.90625 -3.046875 L 4.921875 -2.796875 L 4.90625 -2 L 4.859375 -1.71875 L 4.90625 -1.484375 L 4.921875 -0.953125 L 4.890625 -0.65625 L 4.90625 -0.40625 L 4.796875 -0.140625 L 4.53125 -0.03125 L 3.703125 -0.03125 L 3.453125 0 L 3.1875 -0.03125 L 2.9375 0 L 2.65625 -0.140625 Z M 2.546875 -0.40625 "/></g></g></g><g fill="#545454" fill-opacity="1"><g transform="translate(50.812356, 12.732829)"><g><path d="M 4.96875 0.15625 L 4.6875 0.140625 L 4.203125 0.03125 L 3.921875 0 L 3.53125 -0.140625 L 2.5 -0.671875 L 2.0625 -1.015625 L 1.90625 -1.1875 L 1.71875 -1.375 L 1.546875 -1.578125 L 1.375 -1.734375 L 0.765625 -2.953125 L 0.65625 -3.453125 L 0.625 -3.703125 L 0.5625 -3.9375 L 0.515625 -4.21875 L 0.5625 -5.296875 L 0.78125 -6.328125 L 0.984375 -6.828125 L 1.390625 -7.53125 L 2.046875 -8.28125 L 2.5 -8.625 L 2.734375 -8.734375 L 2.9375 -8.890625 L 3.9375 -9.25 L 5.34375 -9.453125 L 5.703125 -9.4375 L 6.46875 -9.3125 L 7.484375 -8.984375 L 7.6875 -8.84375 L 8.09375 -8.671875 L 8.390625 -8.453125 L 8.78125 -8.125 L 9.15625 -7.71875 L 9.4375 -7.3125 L 9.703125 -6.828125 L 10.03125 -5.828125 L 10.125 -5.28125 L 10.15625 -4.625 L 10.109375 -4.234375 L 10.09375 -3.953125 L 10.03125 -3.6875 L 10.015625 -3.453125 L 9.90625 -2.953125 L 9.703125 -2.4375 L 9.125 -1.546875 L 8.9375 -1.375 L 8.765625 -1.125 L 8.390625 -0.8125 L 8.140625 -0.6875 L 7.9375 -0.53125 L 7.5 -0.296875 L 6.515625 0.046875 L 5.71875 0.140625 Z M 5.71875 -2.1875 L 5.984375 -2.25 L 6.171875 -2.34375 L 6.421875 -2.40625 L 7.046875 -2.84375 L 7.234375 -3.0625 L 7.3125 -3.25 L 7.46875 -3.5 L 7.5625 -3.734375 L 7.65625 -4.21875 L 7.6875 -5.03125 L 7.65625 -5.265625 L 7.53125 -5.53125 L 7.375 -6.03125 L 6.859375 -6.578125 L 6.4375 -6.859375 L 6.203125 -6.96875 L 5.96875 -7.03125 L 5.328125 -7.109375 L 4.953125 -7.078125 L 4.4375 -6.953125 L 4.265625 -6.875 L 3.59375 -6.421875 L 3.28125 -6 L 3.203125 -5.765625 L 3.09375 -5.53125 L 3.0625 -5.265625 L 2.984375 -5.03125 L 2.984375 -4.21875 L 3.09375 -3.734375 L 3.21875 -3.5 L 3.28125 -3.28125 L 3.46875 -3.03125 L 3.640625 -2.84375 L 4 -2.546875 L 4.203125 -2.4375 L 4.6875 -2.234375 L 4.984375 -2.1875 Z M 5.71875 -2.1875 "/></g></g></g><g fill="#545454" fill-opacity="1"><g transform="translate(61.460104, 12.732829)"><g><path d="M 1.015625 -0.421875 L 0.984375 -1.46875 L 1.015625 -1.734375 L 0.953125 -2.515625 L 1 -3.0625 L 0.953125 -3.34375 L 0.96875 -3.859375 L 1 -4.125 L 1 -4.796875 L 0.953125 -5.1875 L 1 -8.90625 L 1.109375 -9.171875 L 1.359375 -9.296875 L 1.640625 -9.28125 L 1.90625 -9.328125 L 2.4375 -9.265625 L 2.703125 -9.3125 L 3.5 -9.28125 L 3.71875 -9.3125 L 4.015625 -9.28125 L 4.28125 -9.3125 L 4.5625 -9.296875 L 4.953125 -9.3125 L 5.28125 -9.28125 L 6.390625 -9.0625 L 6.859375 -8.8125 L 7.515625 -8.3125 L 7.640625 -8.109375 L 7.828125 -7.921875 L 8.1875 -7.1875 L 8.25 -6.921875 L 8.28125 -6.671875 L 8.359375 -6.421875 L 8.34375 -5.359375 L 8.1875 -4.859375 L 8.109375 -4.640625 L 7.953125 -4.390625 L 7.859375 -4.140625 L 7.703125 -3.921875 L 7.328125 -3.5625 L 7.1875 -3.28125 L 7.21875 -2.96875 L 7.625 -2.265625 L 7.796875 -2.0625 L 7.921875 -1.8125 L 8.09375 -1.578125 L 8.203125 -1.359375 L 8.640625 -0.703125 L 8.8125 -0.375 L 8.75 -0.09375 L 8.46875 -0.03125 L 8.1875 0 L 7.65625 0 L 7.390625 -0.03125 L 7.09375 0 L 6.609375 -0.03125 L 6.28125 -0.109375 L 6.015625 -0.34375 L 5.859375 -0.5625 L 5.734375 -0.78125 L 5.5625 -1.03125 L 5.1875 -1.703125 L 5.09375 -1.953125 L 4.75 -2.421875 L 4.546875 -2.640625 L 4.203125 -2.75 L 3.96875 -2.734375 L 3.734375 -2.734375 L 3.46875 -2.609375 L 3.34375 -2.34375 L 3.375 -1.515625 L 3.328125 -0.9375 L 3.390625 -0.671875 L 3.359375 -0.390625 L 3.265625 -0.140625 L 2.859375 0 L 2.453125 0 L 2.171875 -0.03125 L 1.640625 0.015625 L 1.375 0 L 1.109375 -0.140625 Z M 3.734375 -4.890625 L 4.03125 -4.890625 L 4.296875 -4.84375 L 5.328125 -4.9375 L 5.53125 -5.03125 L 5.6875 -5.1875 L 5.828125 -5.421875 L 5.9375 -5.6875 L 5.984375 -6.046875 L 5.953125 -6.421875 L 5.859375 -6.640625 L 5.71875 -6.84375 L 5.3125 -7.09375 L 4.703125 -7.171875 L 3.96875 -7.1875 L 3.765625 -7.171875 L 3.5 -7.046875 L 3.328125 -6.78125 L 3.375 -5.28125 L 3.5 -5 Z M 3.734375 -4.890625 "/></g></g></g><g fill="#545454" fill-opacity="1"><g transform="translate(70.660714, 12.732829)"><g><path d="M 3.0625 -0.375 L 3.078125 -0.65625 L 3.015625 -1.203125 L 3.03125 -1.703125 L 3.0625 -1.9375 L 3.046875 -2.1875 L 3.015625 -2.453125 L 3.03125 -3.5 L 2.96875 -3.890625 L 2.859375 -4.234375 L 1.671875 -6.09375 L 1.5625 -6.328125 L 0.140625 -8.59375 L 0 -8.90625 L 0.03125 -9.203125 L 0.3125 -9.28125 L 2.078125 -9.3125 L 2.40625 -9.171875 L 2.703125 -8.953125 L 2.796875 -8.6875 L 2.953125 -8.453125 L 3.609375 -7.296875 L 3.6875 -7.03125 L 3.8125 -6.78125 L 4.125 -6.3125 L 4.296875 -6.328125 L 4.734375 -7.046875 L 4.9375 -7.53125 L 5.25 -7.96875 L 5.328125 -8.21875 L 5.5 -8.46875 L 5.71875 -8.921875 L 6 -9.171875 L 6.328125 -9.3125 L 6.59375 -9.28125 L 7.09375 -9.28125 L 7.375 -9.328125 L 7.890625 -9.28125 L 8.15625 -9.328125 L 8.40625 -9.21875 L 8.453125 -8.90625 L 8.265625 -8.578125 L 8.171875 -8.34375 L 8.015625 -8.140625 L 6.484375 -5.625 L 6.15625 -5.1875 L 6 -4.953125 L 5.890625 -4.703125 L 5.4375 -3.890625 L 5.359375 -3.5 L 5.421875 -3.265625 L 5.375 -2.5 L 5.421875 -2.21875 L 5.359375 -1.40625 L 5.359375 -0.921875 L 5.375 -0.640625 L 5.375 -0.40625 L 5.25 -0.140625 L 4.84375 -0.015625 L 4.46875 0 L 4.203125 -0.015625 L 3.9375 0.015625 L 3.453125 -0.015625 L 3.203125 -0.140625 Z M 3.0625 -0.375 "/></g></g></g><g fill="#545454" fill-opacity="1"><g transform="translate(79.104564, 12.732829)"><g/></g></g><g fill="#545454" fill-opacity="1"><g transform="translate(82.702496, 12.732829)"><g><path d="M 1.015625 -0.421875 L 0.984375 -1.46875 L 1.015625 -1.734375 L 0.953125 -2.515625 L 1 -3.0625 L 0.953125 -3.34375 L 0.96875 -3.859375 L 1 -4.125 L 1 -4.796875 L 0.953125 -5.1875 L 1 -8.90625 L 1.109375 -9.171875 L 1.359375 -9.296875 L 1.640625 -9.28125 L 1.90625 -9.328125 L 2.4375 -9.265625 L 2.703125 -9.3125 L 3.5 -9.28125 L 3.71875 -9.3125 L 4.015625 -9.28125 L 4.28125 -9.3125 L 4.5625 -9.296875 L 4.953125 -9.3125 L 5.28125 -9.28125 L 6.390625 -9.0625 L 6.859375 -8.8125 L 7.515625 -8.3125 L 7.640625 -8.109375 L 7.828125 -7.921875 L 8.1875 -7.1875 L 8.25 -6.921875 L 8.28125 -6.671875 L 8.359375 -6.421875 L 8.34375 -5.359375 L 8.1875 -4.859375 L 8.109375 -4.640625 L 7.953125 -4.390625 L 7.859375 -4.140625 L 7.703125 -3.921875 L 7.328125 -3.5625 L 7.1875 -3.28125 L 7.21875 -2.96875 L 7.625 -2.265625 L 7.796875 -2.0625 L 7.921875 -1.8125 L 8.09375 -1.578125 L 8.203125 -1.359375 L 8.640625 -0.703125 L 8.8125 -0.375 L 8.75 -0.09375 L 8.46875 -0.03125 L 8.1875 0 L 7.65625 0 L 7.390625 -0.03125 L 7.09375 0 L 6.609375 -0.03125 L 6.28125 -0.109375 L 6.015625 -0.34375 L 5.859375 -0.5625 L 5.734375 -0.78125 L 5.5625 -1.03125 L 5.1875 -1.703125 L 5.09375 -1.953125 L 4.75 -2.421875 L 4.546875 -2.640625 L 4.203125 -2.75 L 3.96875 -2.734375 L 3.734375 -2.734375 L 3.46875 -2.609375 L 3.34375 -2.34375 L 3.375 -1.515625 L 3.328125 -0.9375 L 3.390625 -0.671875 L 3.359375 -0.390625 L 3.265625 -0.140625 L 2.859375 0 L 2.453125 0 L 2.171875 -0.03125 L 1.640625 0.015625 L 1.375 0 L 1.109375 -0.140625 Z M 3.734375 -4.890625 L 4.03125 -4.890625 L 4.296875 -4.84375 L 5.328125 -4.9375 L 5.53125 -5.03125 L 5.6875 -5.1875 L 5.828125 -5.421875 L 5.9375 -5.6875 L 5.984375 -6.046875 L 5.953125 -6.421875 L 5.859375 -6.640625 L 5.71875 -6.84375 L 5.3125 -7.09375 L 4.703125 -7.171875 L 3.96875 -7.1875 L 3.765625 -7.171875 L 3.5 -7.046875 L 3.328125 -6.78125 L 3.375 -5.28125 L 3.5 -5 Z M 3.734375 -4.890625 "/></g></g></g><g fill="#545454" fill-opacity="1"><g transform="translate(91.903106, 12.732829)"><g><path d="M 0.953125 -0.390625 L 1.015625 -0.65625 L 1.015625 -0.921875 L 1 -1.4375 L 1 -1.703125 L 0.96875 -2 L 1.015625 -2.25 L 1 -2.5 L 1.015625 -2.796875 L 0.984375 -3.0625 L 1.015625 -3.59375 L 0.96875 -4.125 L 1.015625 -4.390625 L 1.015625 -6.78125 L 0.984375 -7.015625 L 1.015625 -7.296875 L 0.953125 -7.96875 L 1.015625 -8.359375 L 0.984375 -8.890625 L 1.109375 -9.171875 L 1.5 -9.265625 L 3.234375 -9.3125 L 3.484375 -9.28125 L 4 -9.296875 L 4.265625 -9.265625 L 4.84375 -9.296875 L 5.109375 -9.25 L 5.359375 -9.28125 L 6.421875 -9.265625 L 6.6875 -9.15625 L 6.828125 -8.890625 L 6.78125 -8.640625 L 6.78125 -8.34375 L 6.8125 -8.09375 L 6.84375 -7.546875 L 6.6875 -7.3125 L 6.421875 -7.15625 L 3.859375 -7.140625 L 3.453125 -7.03125 L 3.328125 -6.640625 L 3.34375 -6.234375 L 3.5 -5.984375 L 3.734375 -5.84375 L 4.78125 -5.859375 L 5.09375 -5.828125 L 5.359375 -5.828125 L 5.625 -5.859375 L 6.15625 -5.84375 L 6.390625 -5.703125 L 6.515625 -5.453125 L 6.53125 -5.1875 L 6.515625 -4.125 L 6.375 -3.875 L 6.109375 -3.734375 L 5.875 -3.71875 L 5.59375 -3.75 L 5.234375 -3.71875 L 4.53125 -3.765625 L 4.265625 -3.734375 L 3.75 -3.734375 L 3.5 -3.59375 L 3.390625 -3.3125 L 3.375 -2.65625 L 3.5 -2.25 L 3.765625 -2.078125 L 4.0625 -2.109375 L 4.359375 -2.078125 L 4.609375 -2.125 L 6.359375 -2.09375 L 6.765625 -1.96875 L 6.9375 -1.703125 L 6.90625 -1.453125 L 6.921875 -0.625 L 6.890625 -0.375 L 6.78125 -0.125 L 6.5 0.015625 L 6.25 0.046875 L 5.4375 -0.015625 L 4.625 0.03125 L 4.390625 -0.015625 L 1.375 0.015625 L 1.125 -0.140625 Z M 0.953125 -0.390625 "/></g></g></g><g fill="#545454" fill-opacity="1"><g transform="translate(99.51053, 12.732829)"><g><path d="M 7.84375 -0.21875 L 7.65625 -0.390625 L 7.5 -0.578125 L 7.296875 -0.75 L 7.125 -0.96875 L 5.828125 -2.265625 L 5.625 -2.4375 L 3.71875 -4.296875 L 3.546875 -4.328125 L 3.40625 -4.171875 L 3.46875 -3.890625 L 3.421875 -0.640625 L 3.46875 -0.375 L 3.34375 -0.109375 L 3.078125 0.03125 L 2.78125 0 L 2.5 0.046875 L 1.828125 0 L 1.375 0.03125 L 1.125 -0.125 L 1.015625 -0.40625 L 1.015625 -0.671875 L 0.96875 -0.9375 L 1.015625 -1.4375 L 0.984375 -1.703125 L 1 -2.25 L 0.953125 -2.53125 L 0.953125 -2.78125 L 0.984375 -3.0625 L 0.984375 -3.328125 L 1.015625 -3.5625 L 0.953125 -5.453125 L 1 -5.734375 L 0.984375 -6.015625 L 1.015625 -6.25 L 0.96875 -6.796875 L 1 -7.0625 L 0.96875 -8.921875 L 1.140625 -9.171875 L 1.46875 -9.34375 L 1.8125 -9.234375 L 2.34375 -8.875 L 3.0625 -8.140625 L 3.234375 -7.921875 L 3.46875 -7.75 L 3.59375 -7.5625 L 3.859375 -7.390625 L 4 -7.1875 L 4.40625 -6.84375 L 4.6875 -6.546875 L 4.828125 -6.359375 L 5.046875 -6.203125 L 5.515625 -5.71875 L 5.71875 -5.5625 L 6.296875 -4.96875 L 6.484375 -4.921875 L 6.546875 -5.125 L 6.53125 -5.65625 L 6.59375 -5.9375 L 6.59375 -6.1875 L 6.53125 -6.46875 L 6.546875 -8.890625 L 6.6875 -9.171875 L 7 -9.296875 L 7.265625 -9.28125 L 7.5 -9.3125 L 7.78125 -9.265625 L 8.078125 -9.296875 L 8.328125 -9.296875 L 8.59375 -9.265625 L 8.890625 -9.140625 L 9.046875 -8.90625 L 9.015625 -8.203125 L 9.046875 -7.8125 L 8.984375 -7.546875 L 8.984375 -7.015625 L 9.015625 -6.765625 L 8.984375 -6.234375 L 9.03125 -4.640625 L 9 -4.34375 L 9.0625 -3.96875 L 8.984375 -0.359375 L 8.875 -0.078125 L 8.5625 0.0625 L 8.21875 -0.046875 Z M 7.84375 -0.21875 "/></g></g></g><g fill="#545454" fill-opacity="1"><g transform="translate(109.521003, 12.732829)"><g><path d="M 2.546875 -0.40625 L 2.53125 -1.453125 L 2.5625 -1.71875 L 2.53125 -2.53125 L 2.53125 -3.0625 L 2.578125 -3.46875 L 2.53125 -3.859375 L 2.53125 -4.390625 L 2.5625 -4.65625 L 2.53125 -4.90625 L 2.578125 -5.3125 L 2.53125 -6.78125 L 2.40625 -7.03125 L 2.171875 -7.171875 L 0.984375 -7.1875 L 0.640625 -7.140625 L 0.375 -7.28125 L 0.21875 -7.578125 L 0.234375 -8.90625 L 0.375 -9.171875 L 0.671875 -9.296875 L 4.625 -9.265625 L 4.921875 -9.3125 L 5.1875 -9.3125 L 5.453125 -9.28125 L 5.71875 -9.28125 L 6.015625 -9.328125 L 6.265625 -9.328125 L 6.484375 -9.296875 L 6.796875 -9.328125 L 7.0625 -9.1875 L 7.203125 -8.921875 L 7.171875 -7.84375 L 7.203125 -7.5625 L 7.0625 -7.296875 L 6.765625 -7.171875 L 6.03125 -7.1875 L 5.796875 -7.15625 L 5.53125 -7.171875 L 5.296875 -7.15625 L 5 -7.046875 L 4.90625 -6.796875 L 4.921875 -6.515625 L 4.890625 -6.25 L 4.9375 -3.59375 L 4.90625 -3.046875 L 4.921875 -2.796875 L 4.90625 -2 L 4.859375 -1.71875 L 4.90625 -1.484375 L 4.921875 -0.953125 L 4.890625 -0.65625 L 4.90625 -0.40625 L 4.796875 -0.140625 L 4.53125 -0.03125 L 3.703125 -0.03125 L 3.453125 0 L 3.1875 -0.03125 L 2.9375 0 L 2.65625 -0.140625 Z M 2.546875 -0.40625 "/></g></g></g><g fill="#545454" fill-opacity="1"><g transform="translate(116.942557, 12.732829)"><g><path d="M 0.171875 -0.359375 L 0.328125 -0.921875 L 0.453125 -1.1875 L 0.609375 -1.390625 L 1 -2.359375 L 1.375 -3.0625 L 1.46875 -3.328125 L 1.578125 -3.53125 L 1.65625 -3.8125 L 1.84375 -4.15625 L 1.9375 -4.40625 L 2.140625 -4.75 L 2.34375 -5.234375 L 2.5 -5.46875 L 2.5625 -5.703125 L 3.3125 -7.375 L 3.453125 -7.609375 L 4.03125 -8.8125 L 4.109375 -9.046875 L 4.359375 -9.28125 L 4.78125 -9.421875 L 5.234375 -9.296875 L 5.46875 -9.046875 L 5.546875 -8.796875 L 5.671875 -8.59375 L 5.890625 -8.09375 L 6.15625 -7.59375 L 6.34375 -7.125 L 6.421875 -6.921875 L 6.65625 -6.421875 L 6.734375 -6.15625 L 7 -5.703125 L 7.0625 -5.453125 L 7.203125 -5.21875 L 7.3125 -5 L 7.453125 -4.75 L 7.53125 -4.484375 L 7.65625 -4.296875 L 7.75 -4.03125 L 7.859375 -3.796875 L 7.96875 -3.53125 L 8.109375 -3.328125 L 8.296875 -2.828125 L 8.4375 -2.609375 L 8.53125 -2.34375 L 8.75 -1.875 L 8.828125 -1.625 L 8.96875 -1.421875 L 9.046875 -1.15625 L 9.21875 -0.9375 L 9.3125 -0.6875 L 9.390625 -0.359375 L 9.34375 -0.078125 L 9.09375 0 L 8.28125 0.03125 L 7.8125 -0.015625 L 7.578125 0.015625 L 7.21875 -0.125 L 7 -0.328125 L 6.859375 -0.578125 L 6.78125 -0.8125 L 6.515625 -1.015625 L 6.0625 -1.171875 L 5.453125 -1.140625 L 5.171875 -1.171875 L 4.921875 -1.171875 L 4.625 -1.125 L 4.34375 -1.171875 L 3.59375 -1.15625 L 3.328125 -1.1875 L 3.015625 -1.046875 L 2.796875 -0.796875 L 2.5625 -0.34375 L 2.328125 -0.109375 L 2.015625 0.03125 L 1.671875 -0.015625 L 0.5 -0.015625 L 0.234375 -0.078125 Z M 4.28125 -3.28125 L 5.3125 -3.296875 L 5.53125 -3.40625 L 5.5625 -3.640625 L 5.46875 -3.875 L 5.34375 -4.140625 L 5.28125 -4.359375 L 5.140625 -4.578125 L 4.96875 -5.09375 L 4.8125 -5.203125 L 4.640625 -5.078125 L 4.515625 -4.859375 L 3.984375 -3.65625 L 4.03125 -3.390625 Z M 4.28125 -3.28125 "/></g></g></g><g fill="#545454" fill-opacity="1"><g transform="translate(126.58129, 12.732829)"><g><path d="M 1 -0.390625 L 0.96875 -0.671875 L 1.015625 -0.921875 L 1 -1.1875 L 1.015625 -2.796875 L 0.984375 -3.046875 L 0.96875 -3.578125 L 1.015625 -3.84375 L 0.96875 -4.375 L 1.015625 -4.625 L 0.96875 -5.1875 L 1.015625 -5.453125 L 0.984375 -5.71875 L 1.015625 -5.953125 L 0.984375 -6.234375 L 1.015625 -6.5 L 1 -6.75 L 1.03125 -7.046875 L 1.015625 -7.296875 L 0.96875 -7.5625 L 1.015625 -7.84375 L 1.03125 -8.09375 L 0.953125 -8.78125 L 1.125 -9.140625 L 1.515625 -9.28125 L 2.890625 -9.3125 L 3.234375 -9.15625 L 3.375 -8.75 L 3.40625 -8.109375 L 3.375 -7.8125 L 3.40625 -5.734375 L 3.375 -5.453125 L 3.40625 -5.171875 L 3.375 -4.796875 L 3.390625 -4.125 L 3.359375 -3.859375 L 3.390625 -3.59375 L 3.375 -3.296875 L 3.40625 -3.046875 L 3.40625 -2.546875 L 3.484375 -2.265625 L 3.765625 -2.140625 L 6.09375 -2.109375 L 6.390625 -2.15625 L 6.59375 -2.015625 L 6.78125 -1.734375 L 6.734375 -1.46875 L 6.78125 -1.1875 L 6.75 -0.9375 L 6.734375 -0.671875 L 6.765625 -0.390625 L 6.609375 -0.140625 L 6.25 -0.015625 L 1.546875 0.015625 L 1.109375 -0.140625 Z M 1 -0.390625 "/></g></g></g></g></g></svg>